<svg width="78" height="67" viewBox="0 0 78 67" fill="none" xmlns="http://www.w3.org/2000/svg">
<path opacity="0.5" d="M12.4789 63.245L11.936 64.0848L11.942 64.0887L12.4789 63.245ZM5.41391 55.595L4.53665 56.075L5.41391 55.595ZM1.67891 45.065L0.696014 45.2493L0.697459 45.2567L1.67891 45.065ZM1.27391 24.275L2.26348 24.4191L2.26367 24.4178L1.27391 24.275ZM3.47891 15.41L2.54296 15.0578L2.53971 15.0666L3.47891 15.41ZM7.70891 7.985L8.48241 8.61883L8.48665 8.61358L7.70891 7.985ZM14.2789 2.81L13.8482 1.90751L13.8442 1.90944L14.2789 2.81ZM34.8439 3.755L34.307 4.59867L34.3109 4.60109L34.8439 3.755ZM41.9089 11.315L41.03 11.7921L41.0336 11.7985L41.9089 11.315ZM45.5989 21.845L44.6157 22.0279L44.6175 22.0367L45.5989 21.845ZM43.7989 51.545L42.863 51.1928L43.7989 51.545ZM39.5689 59.015L40.3467 59.6436L39.5689 59.015ZM32.9989 64.19L33.4337 65.0906L32.9989 64.19ZM29.1739 53.255L29.8234 54.0154L29.8247 54.0143L29.1739 53.255ZM32.6389 48.26L31.717 47.8725L31.7123 47.884L32.6389 48.26ZM34.4839 41.33L35.4741 41.4698L34.4839 41.33ZM34.4389 25.625L33.4487 25.7648L33.4504 25.7762L34.4389 25.625ZM32.6389 18.695L31.7104 19.0664L31.7123 19.071L32.6389 18.695ZM29.1739 13.745L28.5244 14.5054L28.5329 14.5126L28.5415 14.5197L29.1739 13.745ZM18.1039 13.745L18.7456 14.5119V14.5119L18.1039 13.745ZM14.5939 18.74L15.5158 19.1275L15.5178 19.1227L14.5939 18.74ZM12.7489 25.67L13.7391 25.8098L12.7489 25.67ZM12.7489 41.375L11.7585 41.5132L11.7587 41.5148L12.7489 41.375ZM14.5939 48.305L15.5158 47.9175V47.9175L14.5939 48.305ZM18.1039 53.255L17.4622 54.022L17.4698 54.0283L18.1039 53.255ZM23.6839 65.08C19.3217 65.08 15.7862 64.1643 13.0158 62.4013L11.942 64.0887C15.1116 66.1057 19.0461 67.08 23.6839 67.08V65.08ZM13.0218 62.4052C10.195 60.5778 7.95344 58.1529 6.29118 55.115L4.53665 56.075C6.35439 59.3971 8.82279 62.0722 11.936 64.0848L13.0218 62.4052ZM6.29118 55.115C4.60428 52.032 3.39222 48.6204 2.66037 44.8733L0.697459 45.2567C1.4656 49.1896 2.74355 52.798 4.53665 56.075L6.29118 55.115ZM2.66179 44.8807C1.95307 41.1009 1.59891 37.3076 1.59891 33.5H-0.401086C-0.401086 37.4324 -0.035243 41.3491 0.696042 45.2493L2.66179 44.8807ZM1.59891 33.5C1.59891 30.4892 1.82028 27.4624 2.26348 24.4191L0.284353 24.1309C-0.172455 27.2676 -0.401086 30.3908 -0.401086 33.5H1.59891ZM2.26367 24.4178C2.7044 21.362 3.42326 18.4746 4.41812 15.7534L2.53971 15.0666C1.49457 17.9254 0.743427 20.948 0.284156 24.1322L2.26367 24.4178ZM4.41483 15.7622C5.42901 13.0674 6.78607 10.6889 8.48239 8.61882L6.93544 7.35117C5.09176 9.60108 3.62882 12.1726 2.543 15.0578L4.41483 15.7622ZM8.48665 8.61358C10.1611 6.54187 12.2327 4.90827 14.7137 3.71055L13.8442 1.90944C11.1052 3.23172 8.79677 5.04813 6.93117 7.35641L8.48665 8.61358ZM14.7096 3.71248C17.1867 2.53024 20.1679 1.92 23.6839 1.92V-0.0800009C19.9399 -0.0800009 16.6511 0.569758 13.8482 1.90751L14.7096 3.71248ZM23.6839 1.92C28.0146 1.92 31.5356 2.83502 34.307 4.59866L35.3808 2.91134C32.2122 0.894977 28.2932 -0.0800009 23.6839 -0.0800009V1.92ZM34.3109 4.60109C37.1643 6.39872 39.4009 8.79097 41.0301 11.7921L42.7878 10.8379C40.9969 7.53902 38.5236 4.89128 35.377 2.90891L34.3109 4.60109ZM41.0336 11.7985C42.7171 14.8464 43.9136 18.2534 44.6158 22.0279L46.582 21.6621C45.8443 17.6966 44.5807 14.0836 42.7843 10.8315L41.0336 11.7985ZM44.6175 22.0367C45.3551 25.8133 45.7239 29.6341 45.7239 33.5H47.7239C47.7239 29.5059 47.3428 25.5567 46.5804 21.6533L44.6175 22.0367ZM45.7239 33.5C45.7239 36.5108 45.5025 39.5376 45.0594 42.5809L47.0385 42.8691C47.4953 39.7324 47.7239 36.6092 47.7239 33.5H45.7239ZM45.0594 42.5809C44.6192 45.6032 43.8865 48.4731 42.863 51.1928L44.7348 51.8972C45.8113 49.0369 46.5786 46.0268 47.0385 42.8691L45.0594 42.5809ZM42.863 51.1928C41.8484 53.8887 40.4902 56.2843 38.7912 58.3864L40.3467 59.6436C42.1876 57.3657 43.6494 54.7813 44.7348 51.8972L42.863 51.1928ZM38.7912 58.3864C37.1168 60.4581 35.0452 62.0917 32.5642 63.2894L33.4337 65.0906C36.1727 63.7683 38.4811 61.9519 40.3467 59.6436L38.7912 58.3864ZM32.5642 63.2894C30.1185 64.4701 27.169 65.08 23.6839 65.08V67.08C27.3989 67.08 30.6593 66.4299 33.4337 65.0906L32.5642 63.2894ZM23.6839 56.1C26.0988 56.1 28.172 55.4259 29.8234 54.0154L28.5244 52.4946C27.2958 53.544 25.709 54.1 23.6839 54.1V56.1ZM29.8247 54.0143C31.4333 52.6354 32.6748 50.8311 33.5655 48.636L31.7123 47.884C30.9231 49.8289 29.8545 51.3546 28.5231 52.4957L29.8247 54.0143ZM33.5608 48.6475C34.4686 46.4876 35.1038 44.0927 35.4741 41.4698L33.4937 41.1902C33.144 43.6673 32.5493 45.8924 31.717 47.8725L33.5608 48.6475ZM35.4741 41.4698C35.8409 38.8718 36.0239 36.2151 36.0239 33.5H34.0239C34.0239 36.1249 33.847 38.6882 33.4937 41.1902L35.4741 41.4698ZM36.0239 33.5C36.0239 30.7517 35.8254 28.0761 35.4274 25.4738L33.4504 25.7762C33.8324 28.2739 34.0239 30.8483 34.0239 33.5H36.0239ZM35.4291 25.4852C35.0594 22.8662 34.4406 20.4753 33.5655 18.319L31.7123 19.071C32.5173 21.0547 33.0985 23.2838 33.4487 25.7648L35.4291 25.4852ZM33.5674 18.3236C32.6765 16.0964 31.4306 14.2963 29.8063 12.9703L28.5415 14.5197C29.8572 15.5937 30.9213 17.0935 31.7104 19.0664L33.5674 18.3236ZM29.8234 12.9846C28.172 11.574 26.0988 10.9 23.6839 10.9V12.9C25.709 12.9 27.2958 13.4559 28.5244 14.5054L29.8234 12.9846ZM23.6839 10.9C21.2421 10.9 19.1425 11.5721 17.4622 12.9781L18.7456 14.5119C20.0054 13.4579 21.6257 12.9 23.6839 12.9V10.9ZM17.4622 12.9781C15.8475 14.3291 14.5903 16.1359 13.6701 18.3573L15.5178 19.1227C16.3375 17.1441 17.4203 15.6209 18.7456 14.5119L17.4622 12.9781ZM13.672 18.3525C12.7642 20.5124 12.129 22.9073 11.7587 25.5302L13.7391 25.8098C14.0888 23.3327 14.6836 21.1076 15.5158 19.1275L13.672 18.3525ZM11.7587 25.5302C11.392 28.1282 11.2089 30.7849 11.2089 33.5H13.2089C13.2089 30.8751 13.3859 28.3118 13.7391 25.8098L11.7587 25.5302ZM11.2089 33.5C11.2089 36.2151 11.392 38.8863 11.7585 41.5132L13.7393 41.2368C13.3859 38.7037 13.2089 36.1249 13.2089 33.5H11.2089ZM11.7587 41.5148C12.129 44.1377 12.7642 46.5326 13.672 48.6925L15.5158 47.9175C14.6836 45.9374 14.0888 43.7123 13.7391 41.2352L11.7587 41.5148ZM13.672 48.6925C14.5932 50.8843 15.8505 52.6734 17.4622 54.0219L18.7456 52.4881C17.4173 51.3766 16.3346 49.8657 15.5158 47.9175L13.672 48.6925ZM17.4698 54.0283C19.1741 55.4258 21.2679 56.1 23.6839 56.1V54.1C21.6599 54.1 20.0337 53.5442 18.738 52.4817L17.4698 54.0283ZM66.0043 65H65.0043V66H66.0043V65ZM66.0043 17.975H67.0043V16.975H66.0043V17.975ZM56.3293 17.975H55.3293V18.975H56.3293V17.975ZM56.3293 8.84V7.84H55.3293V8.84H56.3293ZM61.7743 8.21L61.5233 7.242L61.5233 7.242L61.7743 8.21ZM65.8693 6.095L65.2136 5.3399L65.2037 5.3487L65.8693 6.095ZM68.4343 2V0.999996H67.7096L67.484 1.68869L68.4343 2ZM77.6593 2H78.6593V0.999996H77.6593V2ZM77.6593 65V66H78.6593V65H77.6593ZM67.0043 65V17.975H65.0043V65H67.0043ZM66.0043 16.975H56.3293V18.975H66.0043V16.975ZM57.3293 17.975V8.84H55.3293V17.975H57.3293ZM56.3293 9.84C58.4076 9.84 60.3088 9.62299 62.0253 9.17799L61.5233 7.242C59.9998 7.637 58.271 7.84 56.3293 7.84V9.84ZM62.0253 9.17799C63.7797 8.72315 65.2921 7.94973 66.5349 6.8413L65.2037 5.3487C64.2265 6.22027 63.0089 6.85684 61.5233 7.242L62.0253 9.17799ZM66.525 6.85003C67.8279 5.71856 68.7703 4.18655 69.3846 2.3113L67.484 1.68869C66.9583 3.29344 66.1907 4.49144 65.2136 5.33997L66.525 6.85003ZM68.4343 3H77.6593V0.999996H68.4343V3ZM76.6593 2V65H78.6593V2H76.6593ZM77.6593 64H66.0043V66H77.6593V64Z" fill="#2D0065"/>
</svg>
