<svg width="103" height="67" viewBox="0 0 103 67" fill="none" xmlns="http://www.w3.org/2000/svg">
<path opacity="0.5" d="M12.3201 63.245L11.7772 64.0848L11.7832 64.0887L12.3201 63.245ZM5.2551 55.595L4.37784 56.075L4.37784 56.075L5.2551 55.595ZM1.5201 45.065L0.537201 45.2493L0.538645 45.2567L1.5201 45.065ZM1.1151 24.275L2.10466 24.4191L2.10486 24.4178L1.1151 24.275ZM3.3201 15.41L2.38414 15.0578L2.3809 15.0666L3.3201 15.41ZM7.5501 7.985L8.3236 8.61883L8.32784 8.61358L7.5501 7.985ZM14.1201 2.81L13.6894 1.90751L13.6854 1.90944L14.1201 2.81ZM34.6851 3.755L34.1482 4.59867L34.1521 4.60109L34.6851 3.755ZM41.7501 11.315L40.8712 11.7921L40.8748 11.7985L41.7501 11.315ZM45.4401 21.845L44.4569 22.0279L44.4586 22.0367L45.4401 21.845ZM43.6401 51.545L42.7042 51.1928L42.7042 51.1928L43.6401 51.545ZM39.4101 59.015L40.1878 59.6436L40.1878 59.6436L39.4101 59.015ZM32.8401 64.19L33.2749 65.0906L33.2749 65.0906L32.8401 64.19ZM29.0151 53.255L29.6646 54.0154L29.6659 54.0143L29.0151 53.255ZM32.4801 48.26L31.5581 47.8725L31.5535 47.884L32.4801 48.26ZM34.3251 41.33L35.3153 41.4698L35.3153 41.4698L34.3251 41.33ZM34.2801 25.625L33.2899 25.7648L33.2916 25.7762L34.2801 25.625ZM32.4801 18.695L31.5516 19.0664L31.5535 19.071L32.4801 18.695ZM29.0151 13.745L28.3656 14.5054L28.3741 14.5126L28.3827 14.5197L29.0151 13.745ZM17.9451 13.745L18.5868 14.5119L18.5868 14.5119L17.9451 13.745ZM14.4351 18.74L15.357 19.1275L15.359 19.1227L14.4351 18.74ZM12.5901 25.67L13.5803 25.8098L13.5803 25.8098L12.5901 25.67ZM12.5901 41.375L11.5997 41.5132L11.5999 41.5148L12.5901 41.375ZM14.4351 48.305L15.357 47.9175L15.357 47.9175L14.4351 48.305ZM17.9451 53.255L17.3033 54.022L17.311 54.0283L17.9451 53.255ZM23.5251 65.08C19.1629 65.08 15.6274 64.1643 12.857 62.4013L11.7832 64.0887C14.9528 66.1057 18.8873 67.08 23.5251 67.08V65.08ZM12.863 62.4052C10.0362 60.5778 7.79463 58.1529 6.13236 55.115L4.37784 56.075C6.19557 59.3971 8.66398 62.0722 11.7772 64.0848L12.863 62.4052ZM6.13236 55.115C4.44547 52.032 3.23341 48.6204 2.50156 44.8733L0.538645 45.2567C1.30679 49.1896 2.58473 52.798 4.37784 56.075L6.13236 55.115ZM2.50297 44.8807C1.79426 41.1009 1.4401 37.3076 1.4401 33.5H-0.559899C-0.559899 37.4324 -0.194056 41.3491 0.537229 45.2493L2.50297 44.8807ZM1.4401 33.5C1.4401 30.4892 1.66147 27.4624 2.10466 24.4191L0.125539 24.1309C-0.331269 27.2676 -0.559899 30.3908 -0.559899 33.5H1.4401ZM2.10486 24.4178C2.54559 21.362 3.26444 18.4746 4.2593 15.7534L2.3809 15.0666C1.33576 17.9254 0.584614 20.948 0.125342 24.1322L2.10486 24.4178ZM4.25602 15.7622C5.27019 13.0674 6.62725 10.6889 8.32358 8.61882L6.77662 7.35117C4.93295 9.60108 3.47001 12.1726 2.38419 15.0578L4.25602 15.7622ZM8.32784 8.61358C10.0022 6.54187 12.0739 4.90827 14.5549 3.71055L13.6854 1.90944C10.9463 3.23172 8.63796 5.04813 6.77236 7.35641L8.32784 8.61358ZM14.5508 3.71248C17.0279 2.53024 20.0091 1.92 23.5251 1.92V-0.0800011C19.7811 -0.0800011 16.4923 0.569759 13.6894 1.90751L14.5508 3.71248ZM23.5251 1.92C27.8558 1.92 31.3768 2.83502 34.1482 4.59866L35.222 2.91134C32.0534 0.894976 28.1344 -0.0800011 23.5251 -0.0800011V1.92ZM34.1521 4.60109C37.0054 6.39871 39.2421 8.79097 40.8713 11.7921L42.629 10.8379C40.8381 7.53902 38.3648 4.89128 35.2181 2.90891L34.1521 4.60109ZM40.8748 11.7985C42.5583 14.8464 43.7547 18.2534 44.457 22.0279L46.4232 21.6621C45.6855 17.6966 44.4219 14.0836 42.6254 10.8315L40.8748 11.7985ZM44.4586 22.0367C45.1963 25.8133 45.5651 29.6341 45.5651 33.5H47.5651C47.5651 29.5059 47.1839 25.5567 46.4216 21.6533L44.4586 22.0367ZM45.5651 33.5C45.5651 36.5108 45.3437 39.5376 44.9005 42.5809L46.8797 42.8691C47.3365 39.7324 47.5651 36.6092 47.5651 33.5H45.5651ZM44.9005 42.5809C44.4604 45.6032 43.7277 48.4731 42.7042 51.1928L44.576 51.8972C45.6525 49.0369 46.4198 46.0268 46.8797 42.8691L44.9005 42.5809ZM42.7042 51.1928C41.6896 53.8887 40.3314 56.2843 38.6324 58.3864L40.1878 59.6436C42.0288 57.3657 43.4906 54.7813 44.576 51.8972L42.7042 51.1928ZM38.6324 58.3864C36.958 60.4581 34.8863 62.0917 32.4054 63.2894L33.2749 65.0906C36.0139 63.7683 38.3222 61.9519 40.1878 59.6436L38.6324 58.3864ZM32.4054 63.2894C29.9597 64.4701 27.0102 65.08 23.5251 65.08V67.08C27.2401 67.08 30.5005 66.4299 33.2749 65.0906L32.4054 63.2894ZM23.5251 56.1C25.94 56.1 28.0132 55.426 29.6646 54.0154L28.3656 52.4946C27.137 53.544 25.5502 54.1 23.5251 54.1V56.1ZM29.6659 54.0143C31.2745 52.6354 32.516 50.8311 33.4067 48.636L31.5535 47.884C30.7642 49.8289 29.6957 51.3546 28.3643 52.4957L29.6659 54.0143ZM33.402 48.6475C34.3098 46.4876 34.945 44.0927 35.3153 41.4698L33.3349 41.1902C32.9852 43.6673 32.3904 45.8924 31.5582 47.8725L33.402 48.6475ZM35.3153 41.4698C35.6821 38.8718 35.8651 36.2151 35.8651 33.5H33.8651C33.8651 36.1249 33.6881 38.6882 33.3349 41.1902L35.3153 41.4698ZM35.8651 33.5C35.8651 30.7517 35.6666 28.0761 35.2686 25.4738L33.2916 25.7762C33.6736 28.2739 33.8651 30.8483 33.8651 33.5H35.8651ZM35.2703 25.4852C34.9005 22.8662 34.2818 20.4753 33.4067 18.319L31.5535 19.071C32.3585 21.0547 32.9397 23.2838 33.2899 25.7648L35.2703 25.4852ZM33.4086 18.3236C32.5177 16.0964 31.2718 14.2963 29.6475 12.9703L28.3827 14.5197C29.6984 15.5937 30.7625 17.0935 31.5516 19.0664L33.4086 18.3236ZM29.6646 12.9846C28.0132 11.574 25.94 10.9 23.5251 10.9V12.9C25.5502 12.9 27.137 13.4559 28.3656 14.5054L29.6646 12.9846ZM23.5251 10.9C21.0833 10.9 18.9836 11.5721 17.3034 12.9781L18.5868 14.5119C19.8466 13.4579 21.4669 12.9 23.5251 12.9V10.9ZM17.3034 12.9781C15.6887 14.3291 14.4315 16.1359 13.5112 18.3573L15.359 19.1227C16.1787 17.1441 17.2615 15.6209 18.5868 14.5119L17.3034 12.9781ZM13.5132 18.3525C12.6054 20.5124 11.9702 22.9073 11.5999 25.5302L13.5803 25.8098C13.93 23.3327 14.5248 21.1076 15.357 19.1275L13.5132 18.3525ZM11.5999 25.5302C11.2331 28.1282 11.0501 30.7849 11.0501 33.5H13.0501C13.0501 30.8751 13.2271 28.3118 13.5803 25.8098L11.5999 25.5302ZM11.0501 33.5C11.0501 36.2151 11.2332 38.8863 11.5997 41.5132L13.5805 41.2368C13.2271 38.7037 13.0501 36.1249 13.0501 33.5H11.0501ZM11.5999 41.5148C11.9702 44.1377 12.6054 46.5326 13.5132 48.6925L15.357 47.9175C14.5248 45.9374 13.93 43.7123 13.5803 41.2352L11.5999 41.5148ZM13.5132 48.6925C14.4344 50.8843 15.6917 52.6734 17.3034 54.0219L18.5868 52.4881C17.2585 51.3766 16.1758 49.8657 15.357 47.9175L13.5132 48.6925ZM17.311 54.0283C19.0153 55.4258 21.1091 56.1 23.5251 56.1V54.1C21.5011 54.1 19.8749 53.5442 18.5792 52.4817L17.311 54.0283ZM58.8705 65H57.8705V66H58.8705V65ZM60.5355 52.85L61.4882 53.1539L61.489 53.1515L60.5355 52.85ZM71.8755 36.515L71.2552 35.7306L71.2508 35.7341L71.8755 36.515ZM80.0655 31.025L79.576 30.153L79.5752 30.1534L80.0655 31.025ZM84.8805 27.965L85.4648 28.7765L85.4648 28.7765L84.8805 27.965ZM87.5355 14.015L86.865 14.7569L86.8724 14.7636L86.88 14.7702L87.5355 14.015ZM74.3955 13.88L74.9845 14.6881L74.9869 14.6864L74.3955 13.88ZM70.2555 19.28L69.8417 20.1904L70.7721 20.6133L71.1746 19.6739L70.2555 19.28ZM59.8605 14.555L58.9339 14.179L58.573 15.0682L59.4467 15.4654L59.8605 14.555ZM68.1405 4.655L68.6799 5.49703L68.6816 5.49596L68.1405 4.655ZM92.1255 3.395L91.6472 4.27329L91.6576 4.27878L92.1255 3.395ZM99.1005 10.01L98.2316 10.5052L98.2381 10.5162L99.1005 10.01ZM99.5505 28.55L98.6693 28.0772L98.6649 28.0856L99.5505 28.55ZM94.2405 34.94L93.6158 34.1591L93.6107 34.1632L94.2405 34.94ZM86.7705 40.07L86.2643 39.2076L86.2602 39.21L86.7705 40.07ZM79.7955 44.57L80.3767 45.3837L80.3791 45.382L79.7955 44.57ZM75.1605 48.8L75.9288 49.4402L75.9352 49.4324L75.1605 48.8ZM72.4605 53.795L71.5074 53.4924L71.0939 54.795H72.4605V53.795ZM102.07 53.795H103.07V52.795H102.07V53.795ZM102.07 65V66H103.07V65H102.07ZM59.8705 65C59.8705 60.4571 60.4166 56.5136 61.4882 53.1539L59.5828 52.5461C58.4344 56.1464 57.8705 60.3029 57.8705 65H59.8705ZM61.489 53.1515C62.5699 49.7333 64.0538 46.7429 65.933 44.1698L64.3179 42.9902C62.2972 45.7571 60.721 48.9467 59.582 52.5485L61.489 53.1515ZM65.933 44.1698C67.8315 41.5704 70.0202 39.2799 72.5002 37.2959L71.2508 35.7341C68.6308 37.8301 66.3195 40.2496 64.3179 42.9902L65.933 44.1698ZM72.4957 37.2994C75.0346 35.292 77.7211 33.4911 80.5558 31.8966L79.5752 30.1534C76.6499 31.7989 73.8764 33.658 71.2553 35.7306L72.4957 37.2994ZM80.555 31.897C82.2958 30.9197 83.9326 29.8797 85.4648 28.7765L84.2962 27.1535C82.8284 28.2103 81.2552 29.2103 79.576 30.153L80.555 31.897ZM85.4648 28.7765C87.0462 27.6379 88.3461 26.3431 89.349 24.8873L87.702 23.7527C86.8449 24.9969 85.7148 26.1321 84.2962 27.1535L85.4648 28.7765ZM89.349 24.8873C90.4032 23.357 90.9205 21.5956 90.9205 19.64H88.9205C88.9205 21.2244 88.5078 22.583 87.702 23.7527L89.349 24.8873ZM90.9205 19.64C90.9205 17.0209 90.0288 14.8549 88.191 13.2598L86.88 14.7702C88.2222 15.9351 88.9205 17.5191 88.9205 19.64H90.9205ZM88.206 13.2731C86.4187 11.6576 84.0575 10.9 81.2355 10.9V12.9C83.6935 12.9 85.5323 13.5524 86.865 14.7569L88.206 13.2731ZM81.2355 10.9C78.3139 10.9 75.8127 11.6006 73.8041 13.0736L74.9869 14.6864C76.5783 13.5194 78.6371 12.9 81.2355 12.9V10.9ZM73.8065 13.0719C71.8709 14.4826 70.3865 16.4356 69.3363 18.8861L71.1746 19.6739C72.1044 17.5044 73.3801 15.8574 74.9845 14.6881L73.8065 13.0719ZM70.6693 18.3696L60.2743 13.6446L59.4467 15.4654L69.8417 20.1904L70.6693 18.3696ZM60.7871 14.931C62.3876 10.9869 65.0102 7.84794 68.6799 5.49703L67.6011 3.81296C63.5908 6.38206 60.6933 9.84314 58.9339 14.179L60.7871 14.931ZM68.6816 5.49596C72.3841 3.11372 76.515 1.92 81.1005 1.92V-0.0800011C76.146 -0.0800011 71.6369 1.21628 67.5994 3.81403L68.6816 5.49596ZM81.1005 1.92C85.2948 1.92 88.7965 2.72083 91.6472 4.27322L92.6037 2.51677C89.3945 0.769164 85.5462 -0.0800011 81.1005 -0.0800011V1.92ZM91.6576 4.27878C94.5634 5.81717 96.7431 7.89307 98.2317 10.5051L99.9693 9.51487C98.2779 6.54692 95.8075 4.21282 92.5934 2.51121L91.6576 4.27878ZM98.2381 10.5162C99.7602 13.1094 100.53 16.0519 100.53 19.37H102.53C102.53 15.7281 101.681 12.4306 99.9629 9.5038L98.2381 10.5162ZM100.53 19.37C100.53 22.9146 99.8908 25.8008 98.6693 28.0772L100.432 29.0228C101.85 26.3792 102.53 23.1454 102.53 19.37H100.53ZM98.6649 28.0856C97.4415 30.4186 95.762 32.4422 93.6158 34.1591L94.8652 35.7209C97.219 33.8378 99.0795 31.6014 100.436 29.0144L98.6649 28.0856ZM93.6107 34.1632C91.434 35.9281 88.9861 37.61 86.2643 39.2076L87.2767 40.9324C90.0749 39.29 92.607 37.5519 94.8703 35.7168L93.6107 34.1632ZM86.2602 39.21C83.5129 40.8402 81.162 42.3563 79.2119 43.758L80.3791 45.382C82.269 44.0237 84.568 42.5398 87.2808 40.93L86.2602 39.21ZM79.2143 43.7563C77.2675 45.1468 75.6529 46.6155 74.3858 48.1676L75.9352 49.4324C77.0681 48.0445 78.5435 46.6932 80.3767 45.3837L79.2143 43.7563ZM74.3923 48.1598C73.1046 49.705 72.1443 51.4862 71.5074 53.4924L73.4136 54.0976C73.9767 52.3238 74.8164 50.775 75.9287 49.4402L74.3923 48.1598ZM72.4605 54.795H102.07V52.795H72.4605V54.795ZM101.07 53.795V65H103.07V53.795H101.07ZM102.07 64H58.8705V66H102.07V64Z" fill="#2D0065"/>
</svg>
