<svg width="102" height="67" viewBox="0 0 102 67" fill="none" xmlns="http://www.w3.org/2000/svg">
<path opacity="0.5" d="M12.1808 63.245L11.6378 64.0848L11.6439 64.0887L12.1808 63.245ZM5.11576 55.595L4.23849 56.075L5.11576 55.595ZM1.38076 45.065L0.397857 45.2493L0.399302 45.2567L1.38076 45.065ZM0.975757 24.275L1.96532 24.4191L1.96552 24.4178L0.975757 24.275ZM3.18076 15.41L2.2448 15.0578L2.24156 15.0666L3.18076 15.41ZM7.41076 7.985L8.18425 8.61883L8.1885 8.61358L7.41076 7.985ZM13.9808 2.81L13.55 1.90751L13.546 1.90944L13.9808 2.81ZM34.5458 3.755L34.0089 4.59867L34.0127 4.60109L34.5458 3.755ZM41.6108 11.315L40.7319 11.7921L40.7354 11.7985L41.6108 11.315ZM45.3008 21.845L44.3176 22.0279L44.3193 22.0367L45.3008 21.845ZM43.5008 51.545L42.5648 51.1928L43.5008 51.545ZM39.2708 59.015L40.0485 59.6436L39.2708 59.015ZM32.7008 64.19L33.1355 65.0906L32.7008 64.19ZM28.8758 53.255L29.5252 54.0154L29.5266 54.0143L28.8758 53.255ZM32.3408 48.26L31.4188 47.8725L31.4141 47.884L32.3408 48.26ZM34.1858 41.33L35.1759 41.4698L34.1858 41.33ZM34.1408 25.625L33.1505 25.7648L33.1523 25.7762L34.1408 25.625ZM32.3408 18.695L31.4123 19.0664L31.4141 19.071L32.3408 18.695ZM28.8758 13.745L28.2263 14.5054L28.2347 14.5126L28.2434 14.5197L28.8758 13.745ZM17.8058 13.745L18.4475 14.5119V14.5119L17.8058 13.745ZM14.2958 18.74L15.2177 19.1275L15.2196 19.1227L14.2958 18.74ZM12.4508 25.67L13.4409 25.8098L12.4508 25.67ZM12.4508 41.375L11.4604 41.5132L11.4606 41.5148L12.4508 41.375ZM14.2958 48.305L15.2176 47.9175V47.9175L14.2958 48.305ZM17.8058 53.255L17.164 54.022L17.1717 54.0283L17.8058 53.255ZM23.3858 65.08C19.0236 65.08 15.4881 64.1643 12.7176 62.4013L11.6439 64.0887C14.8134 66.1057 18.7479 67.08 23.3858 67.08V65.08ZM12.7237 62.4052C9.89688 60.5778 7.65528 58.1529 5.99302 55.115L4.23849 56.075C6.05623 59.3971 8.52464 62.0722 11.6379 64.0848L12.7237 62.4052ZM5.99302 55.115C4.30612 52.032 3.09407 48.6204 2.36221 44.8733L0.399302 45.2567C1.16745 49.1896 2.44539 52.798 4.23849 56.075L5.99302 55.115ZM2.36363 44.8807C1.65491 41.1009 1.30076 37.3076 1.30076 33.5H-0.699243C-0.699243 37.4324 -0.3334 41.3491 0.397885 45.2493L2.36363 44.8807ZM1.30076 33.5C1.30076 30.4892 1.52213 27.4624 1.96532 24.4191L-0.013804 24.1309C-0.470612 27.2676 -0.699243 30.3908 -0.699243 33.5H1.30076ZM1.96552 24.4178C2.40624 21.362 3.1251 18.4746 4.11996 15.7534L2.24156 15.0666C1.19641 17.9254 0.445271 20.948 -0.0140009 24.1322L1.96552 24.4178ZM4.11667 15.7622C5.13085 13.0674 6.48791 10.6889 8.18424 8.61882L6.63728 7.35117C4.79361 9.60108 3.33066 12.1726 2.24484 15.0578L4.11667 15.7622ZM8.1885 8.61358C9.8629 6.54187 11.9345 4.90827 14.4155 3.71055L13.546 1.90944C10.807 3.23172 8.49862 5.04813 6.63302 7.35641L8.1885 8.61358ZM14.4115 3.71248C16.8886 2.53024 19.8698 1.92 23.3858 1.92V-0.0800009C19.6418 -0.0800009 16.3529 0.569758 13.55 1.90751L14.4115 3.71248ZM23.3858 1.92C27.7165 1.92 31.2374 2.83502 34.0089 4.59866L35.0826 2.91134C31.9141 0.894977 27.9951 -0.0800009 23.3858 -0.0800009V1.92ZM34.0127 4.60109C36.8661 6.39872 39.1027 8.79097 40.7319 11.7921L42.4896 10.8379C40.6988 7.53902 38.2254 4.89128 35.0788 2.90891L34.0127 4.60109ZM40.7354 11.7985C42.419 14.8464 43.6154 18.2534 44.3176 22.0279L46.2839 21.6621C45.5461 17.6966 44.2825 14.0836 42.4861 10.8315L40.7354 11.7985ZM44.3193 22.0367C45.0569 25.8133 45.4258 29.6341 45.4258 33.5H47.4258C47.4258 29.5059 47.0446 25.5567 46.2822 21.6533L44.3193 22.0367ZM45.4258 33.5C45.4258 36.5108 45.2044 39.5376 44.7612 42.5809L46.7403 42.8691C47.1971 39.7324 47.4258 36.6092 47.4258 33.5H45.4258ZM44.7612 42.5809C44.3211 45.6032 43.5884 48.4731 42.5648 51.1928L44.4367 51.8972C45.5132 49.0369 46.2805 46.0268 46.7403 42.8691L44.7612 42.5809ZM42.5648 51.1928C41.5503 53.8887 40.192 56.2843 38.493 58.3864L40.0485 59.6436C41.8895 57.3657 43.3513 54.7813 44.4367 51.8972L42.5648 51.1928ZM38.493 58.3864C36.8186 60.4581 34.747 62.0917 32.266 63.2894L33.1355 65.0906C35.8745 63.7683 38.1829 61.9519 40.0485 59.6436L38.493 58.3864ZM32.266 63.2894C29.8204 64.4701 26.8708 65.08 23.3858 65.08V67.08C27.1007 67.08 30.3611 66.4299 33.1355 65.0906L32.266 63.2894ZM23.3858 56.1C25.8007 56.1 27.8738 55.4259 29.5252 54.0154L28.2263 52.4946C26.9977 53.544 25.4108 54.1 23.3858 54.1V56.1ZM29.5266 54.0143C31.1352 52.6354 32.3766 50.8311 33.2674 48.636L31.4141 47.884C30.6249 49.8289 29.5563 51.3546 28.225 52.4957L29.5266 54.0143ZM33.2626 48.6475C34.1704 46.4876 34.8056 44.0927 35.1759 41.4698L33.1956 41.1902C32.8459 43.6673 32.2511 45.8924 31.4189 47.8725L33.2626 48.6475ZM35.1759 41.4698C35.5427 38.8718 35.7258 36.2151 35.7258 33.5H33.7258C33.7258 36.1249 33.5488 38.6882 33.1956 41.1902L35.1759 41.4698ZM35.7258 33.5C35.7258 30.7517 35.5273 28.0761 35.1293 25.4738L33.1523 25.7762C33.5343 28.2739 33.7258 30.8483 33.7258 33.5H35.7258ZM35.1309 25.4852C34.7612 22.8662 34.1424 20.4753 33.2674 18.319L31.4141 19.071C32.2191 21.0547 32.8003 23.2838 33.1506 25.7648L35.1309 25.4852ZM33.2692 18.3236C32.3784 16.0964 31.1325 14.2963 29.5081 12.9703L28.2434 14.5197C29.559 15.5937 30.6231 17.0935 31.4123 19.0664L33.2692 18.3236ZM29.5252 12.9846C27.8738 11.574 25.8007 10.9 23.3858 10.9V12.9C25.4108 12.9 26.9977 13.4559 28.2263 14.5054L29.5252 12.9846ZM23.3858 10.9C20.944 10.9 18.8443 11.5721 17.164 12.9781L18.4475 14.5119C19.7072 13.4579 21.3275 12.9 23.3858 12.9V10.9ZM17.164 12.9781C15.5494 14.3291 14.2922 16.1359 13.3719 18.3573L15.2196 19.1227C16.0393 17.1441 17.1222 15.6209 18.4475 14.5119L17.164 12.9781ZM13.3739 18.3525C12.4661 20.5124 11.8309 22.9073 11.4606 25.5302L13.4409 25.8098C13.7906 23.3327 14.3854 21.1076 15.2176 19.1275L13.3739 18.3525ZM11.4606 25.5302C11.0938 28.1282 10.9108 30.7849 10.9108 33.5H12.9108C12.9108 30.8751 13.0877 28.3118 13.4409 25.8098L11.4606 25.5302ZM10.9108 33.5C10.9108 36.2151 11.0938 38.8863 11.4604 41.5132L13.4412 41.2368C13.0877 38.7037 12.9108 36.1249 12.9108 33.5H10.9108ZM11.4606 41.5148C11.8309 44.1377 12.4661 46.5326 13.3739 48.6925L15.2176 47.9175C14.3854 45.9374 13.7906 43.7123 13.4409 41.2352L11.4606 41.5148ZM13.3739 48.6925C14.2951 50.8843 15.5524 52.6734 17.164 54.0219L18.4475 52.4881C17.1192 51.3766 16.0364 49.8657 15.2176 47.9175L13.3739 48.6925ZM17.1717 54.0283C18.8759 55.4258 20.9698 56.1 23.3858 56.1V54.1C21.3617 54.1 19.7356 53.5442 18.4398 52.4817L17.1717 54.0283ZM65.7962 62.255L65.2384 63.0851L65.2459 63.09L65.7962 62.255ZM57.2461 51.23L56.8706 50.3032L55.9559 50.6738L56.3145 51.5933L57.2461 51.23ZM67.6861 47L68.5816 46.5548L68.1692 45.7253L67.3106 46.0732L67.6861 47ZM86.7662 52.805L86.1196 52.0421L86.1132 52.0476L86.7662 52.805ZM86.7212 40.79L86.0886 41.5646L86.0965 41.5709L86.7212 40.79ZM73.4011 38.585H72.4011V39.585H73.4011V38.585ZM73.4011 27.47V26.47H72.4011V27.47H73.4011ZM85.0562 14.06L84.3563 14.7744L84.3639 14.7817L85.0562 14.06ZM73.7611 13.52L74.305 14.3592L74.3088 14.3567L73.7611 13.52ZM69.6661 18.155L69.3037 19.087L70.1239 19.406L70.5445 18.6329L69.6661 18.155ZM59.1361 14.06L58.2303 13.6364L57.7775 14.6046L58.7737 14.992L59.1361 14.06ZM67.3261 4.38499L67.8709 5.2236L67.8726 5.22246L67.3261 4.38499ZM89.5561 3.17L89.1017 4.06079L89.1089 4.06442L89.5561 3.17ZM96.4411 9.38L95.5905 9.9057L95.5932 9.91L96.4411 9.38ZM96.8912 26.525L96.017 26.0394L96.0149 26.0431L96.8912 26.525ZM91.3111 32.375L90.7812 31.527L89.1028 32.576L90.9429 33.3047L91.3111 32.375ZM98.4661 38.315L99.3121 37.7817L98.4661 38.315ZM98.3312 57.305L99.1618 57.8618L99.1646 57.8576L98.3312 57.305ZM90.6812 63.74L90.2506 62.8374L90.2473 62.839L90.6812 63.74ZM79.5661 65.08C74.4224 65.08 70.0302 63.8473 66.3464 61.42L65.2459 63.09C69.3021 65.7627 74.0899 67.08 79.5661 67.08V65.08ZM66.3538 61.4249C62.7011 58.9708 59.972 55.4678 58.1778 50.8667L56.3145 51.5933C58.2403 56.5322 61.2112 60.3792 65.2385 63.085L66.3538 61.4249ZM57.6217 52.1568L68.0617 47.9268L67.3106 46.0732L56.8706 50.3032L57.6217 52.1568ZM66.7907 47.4452C68.1832 50.2459 69.9432 52.4083 72.0975 53.8689C74.2591 55.3346 76.7614 56.055 79.5661 56.055V54.055C77.1209 54.055 75.0182 53.4329 73.2198 52.2136C71.4141 50.9892 69.8591 49.1241 68.5816 46.5548L66.7907 47.4452ZM79.5661 56.055C82.7854 56.055 85.4447 55.2645 87.4191 53.5624L86.1132 52.0476C84.6076 53.3455 82.4669 54.055 79.5661 54.055V56.055ZM87.4127 53.5679C89.4365 51.8528 90.4212 49.5027 90.4212 46.64H88.4212C88.4212 48.9973 87.6358 50.7572 86.1196 52.0421L87.4127 53.5679ZM90.4212 46.64C90.4212 43.8997 89.4008 41.6531 87.3458 40.0091L86.0965 41.5709C87.6415 42.8069 88.4212 44.4603 88.4212 46.64H90.4212ZM87.3537 40.0155C85.327 38.3604 82.6658 37.585 79.4762 37.585V39.585C82.3465 39.585 84.5153 40.2796 86.0886 41.5645L87.3537 40.0155ZM79.4762 37.585H73.4011V39.585H79.4762V37.585ZM74.4011 38.585V27.47H72.4011V38.585H74.4011ZM73.4011 28.47H79.2962V26.47H73.4011V28.47ZM79.2962 28.47C81.9556 28.47 84.1689 27.7015 85.8083 26.0621L84.394 24.6479C83.2134 25.8285 81.5567 26.47 79.2962 26.47V28.47ZM85.8083 26.0621C87.469 24.4014 88.2611 22.2093 88.2611 19.595H86.2611C86.2611 21.7807 85.6133 23.4286 84.394 24.6479L85.8083 26.0621ZM88.2611 19.595C88.2611 17.0783 87.4394 14.9603 85.7484 13.3383L84.3639 14.7817C85.6129 15.9797 86.2611 17.5517 86.2611 19.595H88.2611ZM85.7559 13.3456C84.0705 11.6946 81.8849 10.9 79.2962 10.9V12.9C81.4474 12.9 83.1018 13.5454 84.3564 14.7744L85.7559 13.3456ZM79.2962 10.9C77.0687 10.9 75.0321 11.4929 73.2135 12.6833L74.3088 14.3567C75.7902 13.3871 77.4436 12.9 79.2962 12.9V10.9ZM73.2173 12.6808C71.4316 13.8382 69.9613 15.5202 68.7878 17.6771L70.5445 18.6329C71.591 16.7098 72.8507 15.3018 74.305 14.3592L73.2173 12.6808ZM70.0286 17.223L59.4986 13.128L58.7737 14.992L69.3037 19.087L70.0286 17.223ZM60.042 14.4836C61.921 10.4655 64.5331 7.39172 67.8709 5.2236L66.7814 3.54639C63.0992 5.93828 60.2513 9.31452 58.2303 13.6364L60.042 14.4836ZM67.8726 5.22246C71.2394 3.02549 75.0671 1.92 79.3861 1.92V-0.0800009C74.7052 -0.0800009 70.4929 1.12451 66.7797 3.54752L67.8726 5.22246ZM79.3861 1.92C83.094 1.92 86.3238 2.64345 89.1017 4.06076L90.0106 2.27923C86.9085 0.696546 83.3583 -0.0800009 79.3861 -0.0800009V1.92ZM89.1089 4.06442C91.891 5.45548 94.0428 7.40133 95.5905 9.90569L97.2918 8.8543C95.5395 6.01867 93.1013 3.82452 90.0034 2.27557L89.1089 4.06442ZM95.5932 9.91C97.1333 12.3742 97.9162 15.2315 97.9162 18.515H99.9162C99.9162 14.8985 99.049 11.6658 97.2891 8.85L95.5932 9.91ZM97.9162 18.515C97.9162 21.2633 97.2805 23.765 96.017 26.0394L97.7653 27.0106C99.2018 24.425 99.9162 21.5867 99.9162 18.515H97.9162ZM96.0149 26.0431C94.78 28.2884 93.0414 30.1143 90.7812 31.527L91.8411 33.223C94.3809 31.6357 96.3623 29.5616 97.7674 27.0069L96.0149 26.0431ZM90.9429 33.3047C93.7754 34.4265 95.9932 36.2676 97.6202 38.8483L99.3121 37.7817C97.4591 34.8424 94.9069 32.7235 91.6794 31.4453L90.9429 33.3047ZM97.6202 38.8483C99.2493 41.4324 100.076 44.4236 100.076 47.855H102.076C102.076 44.0864 101.163 40.7176 99.3121 37.7817L97.6202 38.8483ZM100.076 47.855C100.076 51.2127 99.2115 54.1677 97.4977 56.7524L99.1646 57.8576C101.111 54.9223 102.076 51.5773 102.076 47.855H100.076ZM97.5005 56.7482C95.7804 59.3142 93.3757 61.3466 90.2506 62.8374L91.1117 64.6426C94.5266 63.0134 97.2219 60.7558 99.1618 57.8618L97.5005 56.7482ZM90.2473 62.839C87.1627 64.3242 83.6099 65.08 79.5661 65.08V67.08C83.8624 67.08 87.7196 66.2758 91.115 64.641L90.2473 62.839Z" fill="#2D0065"/>
</svg>
