<svg width="88" height="66" viewBox="0 0 88 66" fill="none" xmlns="http://www.w3.org/2000/svg">
<path d="M25.4085 0.661227L27.1677 4.16337C22.5277 6.16752 18.4389 9.25531 14.902 13.4159L14.9019 13.4158L14.8947 13.4247C11.4006 17.7306 9.29983 22.1454 8.62625 26.6675C8.12483 29.8301 8.20591 32.7608 8.88201 35.4527L9.09627 36.3057L9.71968 35.6852C12.9029 32.5168 16.962 30.9238 21.9384 30.9238C27.091 30.9238 31.3213 32.443 34.6682 35.4571C37.9901 38.4486 39.6793 42.7158 39.6793 48.3346C39.6793 53.4392 37.923 57.5532 34.4208 60.7222C30.905 63.9035 26.5906 65.5 21.4454 65.5C17.5655 65.5 14.2826 64.7765 11.5776 63.3524C9.02584 61.9225 6.95224 59.9383 5.35341 57.3921L5.3495 57.3859L5.3454 57.3797C3.74129 54.9848 2.52985 52.0986 1.71937 48.7114C0.904926 45.1438 0.5 41.8292 0.5 38.7658C0.5 30.6762 2.53037 23.3253 6.58801 16.7012C10.7289 10.0439 16.9921 4.69356 25.4085 0.661227ZM73.2292 0.661224L74.9884 4.16337C70.3484 6.16752 66.2597 9.25531 62.7227 13.4159L62.7226 13.4158L62.7154 13.4247C59.2213 17.7306 57.1205 22.1455 56.4469 26.6677C55.9456 29.8302 56.0267 32.7609 56.7027 35.4527L56.917 36.3057L57.5404 35.6852C60.7237 32.5168 64.7827 30.9238 69.7591 30.9238C74.9117 30.9238 79.142 32.443 82.4889 35.4571C85.8108 38.4486 87.5 42.7158 87.5 48.3346C87.5 53.4392 85.7437 57.5532 82.2415 60.7222C78.7257 63.9035 74.4114 65.5 69.2661 65.5C65.3862 65.5 62.1034 64.7765 59.3984 63.3524C56.8466 61.9225 54.773 59.9383 53.1741 57.3921L53.1702 57.3859L53.1661 57.3797C51.562 54.9847 50.3505 52.0985 49.54 48.7112C48.7256 45.1437 48.3207 41.8292 48.3207 38.7658C48.3207 30.6763 50.3511 23.3254 54.4086 16.7013C58.5495 10.044 64.8128 4.69358 73.2292 0.661224Z" stroke="black"/>
</svg>
