<svg width="168" height="108" viewBox="0 0 168 108" fill="none" xmlns="http://www.w3.org/2000/svg">
<g clip-path="url(#clip0_12_903)">
<path d="M168 48.673C168 45.634 165.536 43.1525 162.497 43.1525C159.458 43.1525 156.995 45.634 156.995 48.673C156.995 51.7121 159.458 54.1935 162.497 54.1935C165.536 54.1935 168 51.7121 168 48.673Z" fill="black"/>
<path d="M130.713 68.2478C130.713 66.1774 129.035 64.4868 126.965 64.4868C124.894 64.4868 123.216 66.1774 123.216 68.2478C123.216 70.3182 124.894 72.0088 126.965 72.0088C129.035 72.0088 130.713 70.3182 130.713 68.2478Z" fill="black"/>
<path d="M115.639 17.4017C115.639 21.7363 119.153 25.2756 123.488 25.2756C127.822 25.2756 131.336 21.7363 131.336 17.4017C131.336 13.0672 127.822 9.52783 123.488 9.52783C119.153 9.52783 115.639 13.0672 115.639 17.4017Z" fill="black"/>
<path d="M94.9702 22.0117C101.029 22.0117 105.94 17.0646 105.94 11.0059C105.94 4.94715 101.029 -1.33514e-05 94.9702 -1.33514e-05C88.9115 -1.33514e-05 84 4.94715 84 11.0059C84 17.0646 88.9115 22.0117 94.9702 22.0117Z" fill="black"/>
<path d="M100.46 5.50732H89.4895V16.5132H100.46V5.50732Z" fill="#FDE722"/>
</g>
<g clip-path="url(#clip1_12_903)">
<path d="M84 59.327C84 62.366 81.5364 64.8475 78.4973 64.8475C75.4583 64.8475 72.9947 62.366 72.9947 59.327C72.9947 56.2879 75.4583 53.8065 78.4973 53.8065C81.5364 53.8065 84 56.2879 84 59.327Z" fill="black"/>
<path d="M46.7134 39.7522C46.7134 41.8226 45.035 43.5132 42.9646 43.5132C40.8942 43.5132 39.2158 41.8226 39.2158 39.7522C39.2158 37.6818 40.8942 35.9912 42.9646 35.9912C45.035 35.9912 46.7134 37.6818 46.7134 39.7522Z" fill="black"/>
<path d="M31.6392 90.5982C31.6392 86.2637 35.1531 82.7243 39.4876 82.7243C43.8222 82.7243 47.3361 86.2637 47.3361 90.5982C47.3361 94.9328 43.8222 98.4721 39.4876 98.4721C35.1531 98.4721 31.6392 94.9328 31.6392 90.5982Z" fill="black"/>
<path d="M10.9702 85.9883C17.0289 85.9883 21.9405 90.9354 21.9405 96.9941C21.9405 103.053 17.0289 108 10.9702 108C4.91155 108 0 103.053 0 96.9941C0 90.9354 4.91155 85.9883 10.9702 85.9883Z" fill="black"/>
<path d="M16.4597 102.493H5.4895V91.4868H16.4597V102.493Z" fill="#FDE722"/>
</g>
<defs>
<clipPath id="clip0_12_903">
<rect width="84" height="72" fill="white" transform="translate(84)"/>
</clipPath>
<clipPath id="clip1_12_903">
<rect width="84" height="72" fill="white" transform="matrix(1 0 0 -1 0 108)"/>
</clipPath>
</defs>
</svg>
