<svg width="53" height="52" viewBox="0 0 53 52" fill="none" xmlns="http://www.w3.org/2000/svg">
<path d="M33.1279 1.89417H11.6982C8.66657 1.89417 6.20367 4.35706 6.20367 7.3887V44.6063C6.20367 47.6379 8.66657 50.1008 11.6982 50.1008H40.9634C43.9951 50.1008 46.458 47.6328 46.458 44.6063V15.2242L33.1279 1.89417ZM33.7881 5.70784L42.6392 14.5641H37.7388C35.5603 14.5641 33.7881 12.7918 33.7881 10.6133V5.70784ZM40.9634 47.8614H11.7033C9.90563 47.8614 8.44313 46.3989 8.44313 44.6012V7.3887C8.44313 5.59104 9.90563 4.12854 11.7033 4.12854H31.5588V10.6184C31.5588 14.0258 34.3314 16.8035 37.7439 16.8035H44.2287V44.6012C44.2236 46.4039 42.7611 47.8664 40.9634 47.8614Z" fill="#FDE722"/>
<path d="M36.1037 25.1773L23.7638 37.5172L16.5631 30.3215C16.1263 29.8847 15.4205 29.8847 14.9838 30.3215C14.547 30.7582 14.547 31.464 14.9838 31.9008L23.7638 40.6758L37.6881 26.7515C38.1248 26.3148 38.1248 25.609 37.6881 25.1722C37.2513 24.7355 36.5404 24.7355 36.1037 25.1773Z" fill="#FDE722"/>
</svg>
