<svg width="53" height="52" viewBox="0 0 53 52" fill="none" xmlns="http://www.w3.org/2000/svg">
<path d="M46.0883 6.89151H41.7027V2.50605C41.7028 1.12765 40.575 0 39.1973 0H7.24499C5.86669 0 4.73904 1.12765 4.73904 2.50605V42.6023C4.73904 43.9806 5.86669 45.1084 7.24509 45.1084H11.6307V49.4939C11.6307 50.8723 12.7578 52 14.1367 52H35.4373C36.815 52 38.7647 51.2269 39.7677 50.2828L46.7683 43.6932C47.7725 42.7491 48.5932 40.8483 48.5932 39.47L48.5945 9.39776C48.5944 8.01926 47.4666 6.89151 46.0883 6.89151ZM11.6305 9.39766V43.2289H7.24499C6.90547 43.2289 6.61856 42.942 6.61856 42.6024V2.50605C6.61856 2.16653 6.90547 1.87961 7.24499 1.87961H39.1974C39.5363 1.87961 39.8238 2.16653 39.8238 2.50605V6.89161H14.1365C12.7576 6.89161 11.6305 8.01926 11.6305 9.39766ZM45.4801 42.3248L38.4795 48.9138C38.3361 49.0486 38.1493 49.1807 37.9431 49.3066V43.5421C37.9431 43.1117 38.1167 42.7244 38.403 42.4363C38.6918 42.15 39.079 41.9759 39.5094 41.9759H45.7776C45.6804 42.1079 45.5809 42.2295 45.4801 42.3248ZM46.7135 39.4698C46.7135 39.6558 46.6796 39.8713 46.6283 40.0962H39.5093C37.608 40.0999 36.0674 41.6405 36.0635 43.542V50.0444C35.8399 50.0896 35.6243 50.1202 35.4371 50.1202H14.1365V50.1203C13.7963 50.1203 13.5101 49.8334 13.5101 49.4939V9.39756C13.5101 9.05804 13.7964 8.77112 14.1365 8.77112H46.0882C46.4277 8.77112 46.7146 9.05804 46.7146 9.39756L46.7135 39.4698Z" fill="#FDE722"/>
<path d="M39.1973 15.6625H21.0287C20.5093 15.6625 20.089 16.0828 20.089 16.6022C20.089 17.1216 20.5094 17.542 21.0287 17.542H39.1973C39.7161 17.542 40.1371 17.1216 40.1371 16.6022C40.1371 16.0828 39.7161 15.6625 39.1973 15.6625Z" fill="#FDE722"/>
<path d="M39.1973 28.1926H21.0287C20.5093 28.1926 20.089 28.613 20.089 29.1324C20.089 29.6518 20.5094 30.0721 21.0287 30.0721H39.1973C39.7161 30.0721 40.1371 29.6518 40.1371 29.1324C40.1371 28.6129 39.7161 28.1926 39.1973 28.1926Z" fill="#FDE722"/>
<path d="M31.0528 34.4578H21.0288C20.5094 34.4578 20.0891 34.8781 20.0891 35.3975C20.0891 35.9169 20.5094 36.3373 21.0288 36.3373H31.0528C31.5716 36.3373 31.9919 35.9169 31.9919 35.3975C31.9919 34.8781 31.5716 34.4578 31.0528 34.4578Z" fill="#FDE722"/>
<path d="M39.1973 21.9276H21.0287C20.5093 21.9276 20.089 22.348 20.089 22.8674C20.089 23.3868 20.5094 23.8071 21.0287 23.8071H39.1973C39.7161 23.8071 40.1371 23.3868 40.1371 22.8674C40.1371 22.348 39.7161 21.9276 39.1973 21.9276Z" fill="#FDE722"/>
</svg>
