<svg width="111" height="40" viewBox="0 0 111 40" fill="none" xmlns="http://www.w3.org/2000/svg">
<path d="M15.0643 17.7211V13.9474H27.75C27.8795 14.6132 27.9561 15.4026 27.9561 16.2605C27.9561 19.0895 27.1791 22.5921 24.6737 25.0868C22.237 27.6132 19.1263 28.9605 14.9982 28.9605C7.35242 28.9605 0.924988 22.7632 0.924988 15.15C0.924988 7.53685 7.35242 1.33948 14.9982 1.33948C19.2268 1.33948 22.237 2.98948 24.5046 5.14474L21.8326 7.80527C20.2099 6.28948 18.0111 5.11053 14.9982 5.11053C9.41649 5.11053 5.05313 9.58948 5.05313 15.15C5.05313 20.7105 9.41649 25.1895 14.9982 25.1895C18.6189 25.1895 20.6803 23.7421 22.0018 22.4263C23.0774 21.3553 23.7857 19.8211 24.0606 17.7211H15.0643Z" fill="black"/>
<path d="M47.286 20.0658C47.286 25.1869 43.2609 28.9579 38.3214 28.9579C33.3819 28.9579 29.3569 25.1842 29.3569 20.0658C29.3569 14.9132 33.3819 11.1737 38.3214 11.1737C43.2609 11.1737 47.286 14.9132 47.286 20.0658ZM43.3614 20.0658C43.3614 16.8658 41.0277 14.6763 38.3214 14.6763C35.6152 14.6763 33.2815 16.8658 33.2815 20.0658C33.2815 23.2316 35.6152 25.4553 38.3214 25.4553C41.0277 25.4579 43.3614 23.2342 43.3614 20.0658Z" fill="black"/>
<path d="M66.5789 20.0658C66.5789 25.1869 62.5538 28.9579 57.6143 28.9579C52.6748 28.9579 48.6497 25.1842 48.6497 20.0658C48.6497 14.9132 52.6748 11.1737 57.6143 11.1737C62.5538 11.1737 66.5789 14.9132 66.5789 20.0658ZM62.6542 20.0658C62.6542 16.8658 60.3206 14.6763 57.6143 14.6763C54.908 14.6763 52.5744 16.8658 52.5744 20.0658C52.5744 23.2316 54.908 25.4553 57.6143 25.4553C60.3206 25.4579 62.6542 23.2342 62.6542 20.0658Z" fill="black"/>
<path d="M85.1 11.7079V27.679C85.1 34.2474 81.2097 36.9421 76.6085 36.9421C72.2795 36.9421 69.6736 34.0448 68.6931 31.6869L72.1103 30.2711C72.7182 31.7185 74.2088 33.4369 76.6085 33.4369C79.5526 33.4369 81.3789 31.6185 81.3789 28.2158V26.9369H81.2441C80.364 28.0158 78.6726 28.9579 76.5424 28.9579C72.076 28.9579 67.9822 25.0842 67.9822 20.0974C67.9822 15.079 72.076 11.1711 76.5424 11.1711C78.6726 11.1711 80.364 12.1132 81.2441 13.1579H81.3789V11.7053H85.1V11.7079ZM81.6484 20.1C81.6484 16.9658 79.55 14.6763 76.8781 14.6763C74.1718 14.6763 71.9042 16.9658 71.9042 20.1C71.9042 23.2 74.1718 25.4553 76.8781 25.4553C79.5526 25.4579 81.6484 23.2 81.6484 20.1Z" fill="black"/>
<path d="M91.7071 2.36841V28.421H87.7825V2.36841H91.7071Z" fill="black"/>
<path d="M106.597 22.9974L109.642 25.0184C108.661 26.4658 106.293 28.9605 102.199 28.9605C97.125 28.9605 93.3351 25.0526 93.3351 20.0684C93.3351 14.779 97.1567 11.1763 101.758 11.1763C106.394 11.1763 108.658 14.8474 109.404 16.8342L109.811 17.8447L97.8676 22.7632C98.7821 24.5474 100.201 25.4579 102.197 25.4579C104.195 25.4579 105.582 24.479 106.597 22.9974ZM97.2254 19.7974L105.209 16.4974C104.771 15.3869 103.449 14.6105 101.895 14.6105C99.8974 14.6105 97.125 16.3605 97.2254 19.7974Z" fill="black"/>
</svg>
