<svg width="1296" height="29" viewBox="0 0 1296 29" fill="none" xmlns="http://www.w3.org/2000/svg">
<line y1="14.5" x2="1296" y2="14.5" stroke="white"/>
<circle cx="660.5" cy="14.5" r="3.5" transform="rotate(-90 660.5 14.5)" fill="white"/>
<g clip-path="url(#clip0_125_16)">
<path d="M662 13.1819V15.8182C662 16.1822 661.704 16.4772 661.341 16.4772H660.681V23.1867C661.711 23.5507 662.251 24.6804 661.887 25.7099C661.523 26.7393 660.393 27.2789 659.363 26.915C658.334 26.551 657.794 25.4213 658.158 24.3918C658.357 23.8287 658.8 23.3859 659.363 23.1867V20.59C656.727 24.8014 650.967 25.7043 650.888 25.7043C650.528 25.7583 650.192 25.5102 650.138 25.1504C650.137 25.1463 650.137 25.1419 650.136 25.1375V25.0453C650.133 24.7145 650.376 24.4326 650.703 24.3863C650.795 24.3863 658.836 23.1537 659.363 16.4772H658.704C658.34 16.4772 658.045 16.1822 658.045 15.8182V13.1819C658.045 12.8179 658.34 12.5228 658.704 12.5228H659.363C658.816 6.42632 650.795 4.61382 650.69 4.61382C650.368 4.56149 650.132 4.28119 650.136 3.95479V3.81648C650.203 3.45873 650.548 3.22292 650.905 3.28977C650.915 3.29161 650.924 3.29346 650.934 3.29576C651.006 3.29576 656.727 4.61382 659.363 8.68693V5.81339C658.334 5.44942 657.794 4.31969 658.158 3.29023C658.522 2.26077 659.652 1.72115 660.681 2.08512C661.711 2.4491 662.25 3.57883 661.886 4.60829C661.687 5.17142 661.244 5.61423 660.681 5.81339V12.5228H661.34C661.704 12.5228 662 12.8179 662 13.1819Z" fill="white"/>
<path d="M643.545 14.4999C643.545 14.1359 643.84 13.8409 644.204 13.8409C644.568 13.8409 644.863 14.1359 644.863 14.4999C644.863 14.8639 644.568 15.1589 644.204 15.1589C643.84 15.1589 643.545 14.8639 643.545 14.4999Z" fill="white"/>
<path d="M643.736 20.2405C642.405 18.9854 640.735 18.1489 638.932 17.8349V11.1651C640.734 10.8512 642.405 10.0146 643.736 8.75951C643.927 8.5698 644.214 8.51494 644.461 8.62121L656.859 13.8409H646.063C645.699 12.8114 644.569 12.2718 643.54 12.6358C642.51 12.9997 641.971 14.1295 642.335 15.1589C642.699 16.1884 643.828 16.728 644.858 16.364C645.421 16.1649 645.864 15.7221 646.063 15.1589H656.859L644.461 20.3788C644.214 20.4851 643.927 20.4302 643.736 20.2405Z" fill="white"/>
<path d="M633.659 19.1135C633.295 19.1135 633 18.8185 633 18.4545V10.5455C633 10.1815 633.295 9.88644 633.659 9.88644H637.614V19.1135H633.659Z" fill="white"/>
</g>
<defs>
<clipPath id="clip0_125_16">
<rect width="29" height="29" fill="white" transform="matrix(0 -1 -1 0 662 29)"/>
</clipPath>
</defs>
</svg>
