<svg width="37" height="39" viewBox="0 0 37 39" fill="none" xmlns="http://www.w3.org/2000/svg">
<path d="M33.1566 0C22.7148 0 13.438 0 3.01417 0C1.35198 0 0 1.46419 0 3.26433C0.000170547 9.3866 0.000627071 25.7777 0.000735971 29.6891C0.000735971 31.4892 1.35308 32.9538 3.01527 32.9538H19.7008C20.117 32.9538 20.4545 32.5883 20.4545 32.1376C20.4545 31.6869 20.117 31.3214 19.7008 31.3214H3.01527C2.18399 31.3214 1.508 30.5893 1.508 29.6891V8.45634H34.6679V29.6891C34.6679 30.5893 33.9919 31.3214 33.1606 31.3214H30.0331C29.6169 31.3214 29.2795 31.6869 29.2795 32.1376C29.2795 32.5883 29.6169 32.9538 30.0331 32.9538H33.1606C34.8228 32.9538 36.1752 31.4892 36.1752 29.6891V3.26912C36.1752 1.48289 34.8308 0 33.1566 0ZM13.182 6.82398H1.508V3.26912C1.508 2.36884 2.18399 1.63675 3.01527 1.63675H13.182V6.82398ZM34.6635 6.82398H14.6892V1.63675H33.1606C33.9908 1.63675 34.6635 2.36593 34.6635 3.26433V6.82398Z" fill="black"/>
<path d="M4.24838 5.04411H4.54645C4.96264 5.04411 5.30009 4.67866 5.30009 4.22793C5.30009 3.77719 4.96264 3.41174 4.54645 3.41174H4.24838C3.83219 3.41174 3.49475 3.77719 3.49475 4.22793C3.49475 4.67866 3.83219 5.04411 4.24838 5.04411Z" fill="black"/>
<path d="M7.19522 5.04411H7.49366C7.90985 5.04411 8.24729 4.67866 8.24729 4.22793C8.24729 3.77719 7.90985 3.41174 7.49366 3.41174H7.19522C6.77903 3.41174 6.44159 3.77719 6.44159 4.22793C6.44159 4.67866 6.77903 5.04411 7.19522 5.04411Z" fill="black"/>
<path d="M10.1424 5.04411H10.4409C10.8571 5.04411 11.1945 4.67866 11.1945 4.22793C11.1945 3.77719 10.8571 3.41174 10.4409 3.41174H10.1424C9.72624 3.41174 9.38879 3.77719 9.38879 4.22793C9.38879 4.67866 9.72624 5.04411 10.1424 5.04411Z" fill="black"/>
<path d="M31.1084 3.41174H18.244C17.8278 3.41174 17.4904 3.77719 17.4904 4.22793C17.4904 4.67866 17.8278 5.04411 18.244 5.04411H31.1084C31.5246 5.04411 31.862 4.67866 31.862 4.22793C31.862 3.77719 31.5246 3.41174 31.1084 3.41174Z" fill="black"/>
<path d="M21.8565 35.7399C21.8565 37.5308 23.2089 38.9879 24.8711 38.9879C26.571 38.9879 27.9281 37.4668 27.8771 35.6339C27.8771 35.6327 27.8771 35.6319 27.8771 35.6307L27.6252 27.5395C30.8438 26.3048 33.1599 22.9818 33.1599 19.0751C33.1599 14.1206 29.4414 10.0895 24.8711 10.0895C20.2963 10.0895 16.5741 14.1206 16.5741 19.0751C16.5741 22.9769 18.8867 26.2963 22.1022 27.5347C22.0743 28.4691 22.198 24.3376 21.8565 35.7399ZM24.8711 37.3555C24.0398 37.3555 23.3638 36.6306 23.3638 35.7399C23.4391 33.2304 23.6026 27.7836 23.5975 27.9554C24.4434 28.098 25.3658 28.085 26.1299 27.9558L26.3706 35.6841C26.3949 36.5959 25.7186 37.3555 24.8711 37.3555ZM18.0814 19.0751C18.0814 15.0205 21.1272 11.7218 24.8711 11.7218C28.6105 11.7218 31.6527 15.0205 31.6527 19.0751C31.6527 22.4761 29.5087 25.3372 26.6112 26.1734C25.4866 26.5135 24.2172 26.4864 23.1844 26.1889C20.2554 25.3735 18.0814 22.4978 18.0814 19.0751Z" fill="black"/>
<path d="M24.5947 22.1852L28.7684 17.6651C29.0627 17.3463 29.0627 16.8298 28.7684 16.511C28.474 16.1921 27.9971 16.1921 27.7027 16.511L23.529 21.0311L22.0317 19.4095C21.7373 19.0906 21.2604 19.0906 20.966 19.4095C20.6716 19.7283 20.6716 20.2448 20.966 20.5636L22.4629 22.1848C22.7474 22.4937 23.126 22.6634 23.529 22.6634C23.9316 22.6634 24.3099 22.4937 24.5947 22.1852Z" fill="black"/>
<path d="M6.73853 24.0328H4.52253C3.69125 24.0328 3.01526 24.7649 3.01526 25.6652V28.0568C3.01526 28.957 3.69125 29.6891 4.52253 29.6891H6.73853C7.56981 29.6891 8.2458 28.957 8.2458 28.0568V25.6652C8.2458 24.7649 7.56981 24.0328 6.73853 24.0328ZM6.73853 28.0568H4.52253V25.6652L6.73853 25.664V28.0568Z" fill="black"/>
<path d="M10.7643 24.9541C10.3481 24.9541 10.0107 25.3196 10.0107 25.7703C10.0107 26.221 10.3481 26.5865 10.7643 26.5865H15.8786C16.2948 26.5865 16.6322 26.221 16.6322 25.7703C16.6322 25.3196 16.2948 24.9541 15.8786 24.9541H10.7643Z" fill="black"/>
<path d="M10.7643 29.689H18.6996C19.1157 29.689 19.4532 29.3236 19.4532 28.8728C19.4532 28.4221 19.1157 28.0566 18.6996 28.0566H10.7643C10.3481 28.0566 10.0107 28.4221 10.0107 28.8728C10.0107 29.3236 10.3481 29.689 10.7643 29.689Z" fill="black"/>
<path d="M8.2458 18.6954C8.2458 17.7951 7.56981 17.063 6.73853 17.063H4.52253C3.69125 17.063 3.01526 17.7951 3.01526 18.6954V21.0869C3.01526 21.9872 3.69125 22.7193 4.52253 22.7193H6.73853C7.56981 22.7193 8.2458 21.9872 8.2458 21.0869V18.6954ZM6.73853 21.0869H4.52253V18.6954L6.73853 18.6942V21.0869Z" fill="black"/>
<path d="M10.7628 19.6171H14.3197C14.7359 19.6171 15.0734 19.2517 15.0734 18.8009C15.0734 18.3502 14.7359 17.9847 14.3197 17.9847H10.7628C10.3466 17.9847 10.0092 18.3502 10.0092 18.8009C10.0092 19.2517 10.3466 19.6171 10.7628 19.6171Z" fill="black"/>
<path d="M10.7628 22.7187H14.6439C15.0601 22.7187 15.3976 22.3532 15.3976 21.9025C15.3976 21.4518 15.0601 21.0863 14.6439 21.0863H10.7628C10.3466 21.0863 10.0092 21.4518 10.0092 21.9025C10.0092 22.3532 10.3466 22.7187 10.7628 22.7187Z" fill="black"/>
<path d="M8.2458 11.7258C8.2458 10.8255 7.56981 10.0934 6.73853 10.0934H4.52253C3.69125 10.0934 3.01526 10.8255 3.01526 11.7258V14.1169C3.01526 15.0172 3.69125 15.7493 4.52253 15.7493H6.73853C7.56981 15.7493 8.2458 15.0172 8.2458 14.1169V11.7258ZM6.73853 14.1169H4.52253V11.7258L6.73853 11.7246V14.1169Z" fill="black"/>
<path d="M15.8786 11.0144H10.7643C10.3481 11.0144 10.0107 11.3799 10.0107 11.8306C10.0107 12.2813 10.3481 12.6468 10.7643 12.6468H15.8786C16.2948 12.6468 16.6322 12.2813 16.6322 11.8306C16.6322 11.3799 16.2948 11.0144 15.8786 11.0144Z" fill="black"/>
<path d="M10.7628 15.7486H15.0358C15.452 15.7486 15.7895 15.3831 15.7895 14.9324C15.7895 14.4817 15.452 14.1162 15.0358 14.1162H10.7628C10.3466 14.1162 10.0092 14.4817 10.0092 14.9324C10.0092 15.3831 10.3466 15.7486 10.7628 15.7486Z" fill="black"/>
</svg>
