<svg width="52" height="46" viewBox="0 0 52 46" fill="none" xmlns="http://www.w3.org/2000/svg">
<path d="M47.6667 0.466797H4.33339C3.18455 0.468173 2.08314 0.925161 1.27078 1.73752C0.458425 2.54988 0.00143718 3.65128 6.10352e-05 4.80013L6.10352e-05 41.2001C0.00143718 42.349 0.458425 43.4504 1.27078 44.2627C2.08314 45.0751 3.18455 45.5321 4.33339 45.5335H47.6667C48.8156 45.5321 49.917 45.0751 50.7293 44.2627C51.5417 43.4504 51.9987 42.349 52.0001 41.2001V4.80013C51.9987 3.65128 51.5417 2.54988 50.7293 1.73752C49.917 0.925161 48.8156 0.468173 47.6667 0.466797ZM4.33339 2.20013H47.6667C48.3563 2.20013 49.0176 2.47406 49.5052 2.96165C49.9928 3.44925 50.2667 4.11057 50.2667 4.80013V35.1335H1.73339V4.80013C1.73339 4.11057 2.00732 3.44925 2.49492 2.96165C2.98251 2.47406 3.64383 2.20013 4.33339 2.20013ZM47.6667 43.8001H4.33339C3.64383 43.8001 2.98251 43.5262 2.49492 43.0386C2.00732 42.551 1.73339 41.8897 1.73339 41.2001V36.8668H50.2667V41.2001C50.2667 41.8897 49.9928 42.551 49.5052 43.0386C49.0176 43.5262 48.3563 43.8001 47.6667 43.8001Z" fill="#FDE722"/>
<path d="M6.06673 38.6001C5.83687 38.6001 5.61643 38.6914 5.4539 38.8539C5.29137 39.0165 5.20006 39.2369 5.20006 39.4668V41.2001C5.20006 41.43 5.29137 41.6504 5.4539 41.8129C5.61643 41.9755 5.83687 42.0668 6.06673 42.0668C6.29658 42.0668 6.51702 41.9755 6.67955 41.8129C6.84209 41.6504 6.9334 41.43 6.9334 41.2001V39.4668C6.9334 39.2369 6.84209 39.0165 6.67955 38.8539C6.51702 38.6914 6.29658 38.6001 6.06673 38.6001Z" fill="#FDE722"/>
<path d="M9.5334 38.6001C9.30354 38.6001 9.0831 38.6914 8.92057 38.8539C8.75804 39.0165 8.66673 39.2369 8.66673 39.4668V41.2001C8.66673 41.43 8.75804 41.6504 8.92057 41.8129C9.0831 41.9755 9.30354 42.0668 9.5334 42.0668C9.76325 42.0668 9.98369 41.9755 10.1462 41.8129C10.3088 41.6504 10.4001 41.43 10.4001 41.2001V39.4668C10.4001 39.2369 10.3088 39.0165 10.1462 38.8539C9.98369 38.6914 9.76325 38.6001 9.5334 38.6001Z" fill="#FDE722"/>
<path d="M45.9334 39.4668H17.3334C17.3334 39.2369 17.2421 39.0165 17.0796 38.8539C16.917 38.6914 16.6966 38.6001 16.4667 38.6001C16.2369 38.6001 16.0164 38.6914 15.8539 38.8539C15.6914 39.0165 15.6001 39.2369 15.6001 39.4668H13.0001C12.7702 39.4668 12.5498 39.5581 12.3872 39.7206C12.2247 39.8831 12.1334 40.1036 12.1334 40.3334C12.1334 40.5633 12.2247 40.7837 12.3872 40.9463C12.5498 41.1088 12.7702 41.2001 13.0001 41.2001H15.6001C15.6001 41.43 15.6914 41.6504 15.8539 41.8129C16.0164 41.9755 16.2369 42.0668 16.4667 42.0668C16.6966 42.0668 16.917 41.9755 17.0796 41.8129C17.2421 41.6504 17.3334 41.43 17.3334 41.2001H45.9334C46.1632 41.2001 46.3837 41.1088 46.5462 40.9463C46.7088 40.7837 46.8001 40.5633 46.8001 40.3334C46.8001 40.1036 46.7088 39.8831 46.5462 39.7206C46.3837 39.5581 46.1632 39.4668 45.9334 39.4668Z" fill="#FDE722"/>
<path d="M15.6971 29.105L15.5931 29.209C15.1122 29.698 14.8439 30.3572 14.8468 31.0431C14.8496 31.729 15.1234 32.386 15.6085 32.8709C16.0935 33.3558 16.7506 33.6295 17.4365 33.6322C18.1223 33.6349 18.7815 33.3665 19.2704 32.8854L20.0556 32.1002C21.7076 32.8603 23.4903 33.2955 25.3067 33.382C25.5416 33.3932 25.7739 33.3984 26.0061 33.3984C27.9405 33.3983 29.8559 33.0172 31.6429 32.2768C33.4299 31.5363 35.0536 30.4511 36.4212 29.0831C37.7887 27.7152 38.8735 26.0912 39.6134 24.3039C40.3533 22.5167 40.7339 20.6012 40.7334 18.6668C40.7334 18.2257 40.7152 17.7941 40.6788 17.3668C40.6542 17.0887 40.5842 16.8164 40.4717 16.5608C41.1173 15.8662 41.5154 14.9778 41.6044 14.0336C41.6375 13.4652 41.6017 12.8948 41.4978 12.335C41.4137 11.8913 41.3846 11.439 41.4111 10.9882C41.4716 10.339 41.7064 9.71829 42.0906 9.19158C42.5405 8.73005 43.0398 8.31938 43.5795 7.96697C43.7588 7.91468 43.9164 7.80588 44.0288 7.65678C44.1412 7.50767 44.2025 7.32624 44.2035 7.13951C44.2045 6.95277 44.1451 6.77071 44.0342 6.62044C43.9233 6.47018 43.7669 6.35974 43.5882 6.30557C42.4797 5.99565 41.35 5.76739 40.2082 5.62264C39.9057 5.57844 39.6015 5.53597 39.2939 5.48224C37.8585 5.24008 36.3858 5.34982 35.0021 5.80204C33.9039 6.19148 32.932 6.87191 32.1903 7.77067C31.4486 8.66943 30.965 9.75276 30.791 10.905C30.4569 11.0555 30.1801 11.3096 30.0015 11.6295L28.1988 14.8726C27.5907 14.5861 27.068 14.1458 26.6823 13.5952C26.2967 13.0446 26.0615 12.4029 26.0001 11.7335C26.0484 11.1104 26.253 10.5095 26.5951 9.98645C26.9371 9.46337 27.4055 9.03499 27.957 8.74091C28.4284 8.44228 28.7905 7.99918 28.9894 7.47779C29.1882 6.95639 29.2131 6.38466 29.0603 5.84797C28.9173 5.31427 28.6054 4.84116 28.1713 4.49937C27.7372 4.15757 27.2041 3.96545 26.6518 3.95171C26.4412 3.94217 26.2202 3.93351 26.0001 3.93351C23.0773 3.91995 20.217 4.78 17.7864 6.40331C15.3558 8.02661 13.4657 10.3391 12.3585 13.0441C11.2513 15.7492 10.9776 18.7233 11.5724 21.585C12.1673 24.4466 13.6036 27.0653 15.6971 29.105ZM18.0449 31.6599C17.8824 31.8225 17.662 31.9139 17.4321 31.914C17.2022 31.9141 16.9817 31.8228 16.819 31.6603C16.6564 31.4978 16.565 31.2774 16.5649 31.0475C16.5648 30.8176 16.6561 30.5971 16.8186 30.4344L28.8601 18.3956L30.0838 19.6202L18.0449 31.6599ZM27.7334 26.9002C27.7357 27.2355 27.6076 27.5586 27.3761 27.8012C27.1446 28.0438 26.8279 28.1869 26.4928 28.2003C26.1578 28.2137 25.8306 28.0963 25.5805 27.873C25.3304 27.6496 25.1769 27.3377 25.1525 27.0033L26.5443 25.6114C26.8676 25.6391 27.1688 25.7867 27.3889 26.0252C27.6089 26.2636 27.7318 26.5757 27.7334 26.9002ZM34.9805 28.0684C33.7103 29.2879 32.2041 30.2348 30.5545 30.8508C28.9049 31.4667 27.1468 31.7389 25.3882 31.6504C24.0093 31.5881 22.6503 31.297 21.3669 30.7889L23.7935 28.3622C24.0191 28.7739 24.3374 29.1273 24.7233 29.3946C25.1091 29.6619 25.5519 29.8356 26.0166 29.9021C26.4812 29.9685 26.955 29.9259 27.4003 29.7775C27.8456 29.6291 28.2502 29.3791 28.5821 29.0471C28.914 28.7152 29.1641 28.3106 29.3125 27.8653C29.4608 27.42 29.5035 26.9463 29.437 26.4816C29.3706 26.0169 29.1968 25.5742 28.9296 25.1883C28.6623 24.8024 28.3088 24.4841 27.8972 24.2586L31.4029 20.7529C31.6164 20.8423 31.8456 20.8885 32.0771 20.889C32.3706 20.8892 32.6594 20.8147 32.9161 20.6723L36.8559 18.484C37.1067 18.3435 37.3183 18.1423 37.4713 17.899C37.979 17.8752 38.4797 17.7714 38.955 17.5913C38.9836 17.9466 39.0009 18.302 39.0009 18.666C39.0077 20.4246 38.6546 22.166 37.9631 23.783C37.2717 25.4 36.2566 26.8584 34.9805 28.0684ZM35.5646 7.43484C36.6784 7.07599 37.8624 6.99213 39.0157 7.19044C39.3259 7.23984 39.6353 7.28664 39.9447 7.33344C40.4041 7.40191 40.853 7.46864 41.295 7.54751C40.9423 7.87857 40.6996 8.14637 40.6935 8.15417C40.124 8.93099 39.7752 9.84732 39.6839 10.8062C39.6384 11.4001 39.6707 11.9973 39.7801 12.5828C39.861 13.0085 39.893 13.4421 39.8754 13.875C39.8214 14.5315 39.5147 15.1414 39.02 15.5763C38.5958 15.9187 38.076 16.1213 37.5319 16.1561C37.4539 16.0051 37.354 15.8664 37.2355 15.7444L32.7289 11.2378C32.6584 11.1711 32.5824 11.1106 32.5018 11.0566C32.6438 10.235 33.0026 9.46619 33.541 8.82952C34.0794 8.19284 34.778 7.71138 35.5646 7.43484ZM31.5077 12.4615L36.0144 16.9682L32.0745 19.1565L29.3229 16.404L31.5077 12.4615ZM16.6011 9.68297C17.8109 8.40783 19.2689 7.39373 20.8853 6.70306C22.5017 6.01238 24.2423 5.65975 26.0001 5.66684C26.1959 5.66684 26.3909 5.67551 26.5799 5.68331C26.765 5.68369 26.9449 5.74525 27.0914 5.85841C27.238 5.97158 27.343 6.13 27.3902 6.30904C27.4429 6.49163 27.4341 6.68648 27.3652 6.8636C27.2963 7.04071 27.1711 7.19027 27.0089 7.28924C26.2116 7.73575 25.5414 8.3782 25.0616 9.15585C24.5818 9.93351 24.3082 10.8207 24.2667 11.7335C24.2667 13.6324 25.5104 15.3813 27.6086 16.5192C27.6207 16.7075 27.6634 16.8925 27.7351 17.067L16.9209 27.8812C14.4715 25.5078 13.0624 22.2604 13.0021 18.8503C12.9418 15.4401 14.2353 12.145 16.5993 9.68644L16.6011 9.68297Z" fill="#FDE722"/>
<path d="M19.5001 16.0668C20.1 16.0668 20.6865 15.8889 21.1853 15.5556C21.6841 15.2223 22.0729 14.7485 22.3025 14.1943C22.5321 13.64 22.5922 13.0301 22.4751 12.4417C22.3581 11.8533 22.0692 11.3128 21.645 10.8886C21.2207 10.4643 20.6802 10.1754 20.0918 10.0584C19.5034 9.94137 18.8935 10.0014 18.3393 10.231C17.785 10.4606 17.3112 10.8494 16.9779 11.3482C16.6446 11.8471 16.4667 12.4335 16.4667 13.0335C16.4667 13.8379 16.7863 14.6095 17.3552 15.1783C17.924 15.7472 18.6956 16.0668 19.5001 16.0668ZM19.5001 11.7335C19.7572 11.7335 20.0085 11.8097 20.2223 11.9525C20.4361 12.0954 20.6027 12.2984 20.7011 12.536C20.7995 12.7735 20.8252 13.0349 20.7751 13.2871C20.7249 13.5392 20.6011 13.7709 20.4193 13.9527C20.2375 14.1345 20.0059 14.2583 19.7537 14.3085C19.5015 14.3586 19.2401 14.3329 19.0026 14.2345C18.765 14.1361 18.562 13.9695 18.4192 13.7557C18.2763 13.5419 18.2001 13.2906 18.2001 13.0335C18.2001 12.6887 18.337 12.358 18.5808 12.1142C18.8246 11.8704 19.1553 11.7335 19.5001 11.7335Z" fill="#FDE722"/>
<path d="M20.8001 19.9668C20.8001 19.3669 20.6222 18.7804 20.2889 18.2816C19.9555 17.7827 19.4818 17.394 18.9275 17.1644C18.3733 16.9348 17.7634 16.8747 17.175 16.9918C16.5865 17.1088 16.0461 17.3977 15.6218 17.8219C15.1976 18.2461 14.9087 18.7866 14.7917 19.375C14.6746 19.9634 14.7347 20.5733 14.9643 21.1276C15.1939 21.6819 15.5827 22.1556 16.0815 22.4889C16.5803 22.8222 17.1668 23.0001 17.7667 23.0001C18.5712 23.0001 19.3428 22.6806 19.9116 22.1117C20.4805 21.5428 20.8001 20.7713 20.8001 19.9668ZM16.4667 19.9668C16.4667 19.7097 16.543 19.4583 16.6858 19.2446C16.8287 19.0308 17.0317 18.8642 17.2692 18.7658C17.5068 18.6674 17.7682 18.6416 18.0203 18.6918C18.2725 18.7419 18.5042 18.8658 18.686 19.0476C18.8678 19.2294 18.9916 19.461 19.0418 19.7132C19.0919 19.9654 19.0662 20.2267 18.9678 20.4643C18.8694 20.7018 18.7028 20.9049 18.489 21.0477C18.2752 21.1906 18.0238 21.2668 17.7667 21.2668C17.4219 21.2668 17.0913 21.1298 16.8475 20.886C16.6037 20.6422 16.4667 20.3116 16.4667 19.9668Z" fill="#FDE722"/>
</svg>
