<svg width="42" height="42" viewBox="0 0 42 42" fill="none" xmlns="http://www.w3.org/2000/svg">
<path fill-rule="evenodd" clip-rule="evenodd" d="M21 0.5C9.67816 0.5 0.5 9.67816 0.5 21C0.5 32.3218 9.67816 41.5 21 41.5C32.3218 41.5 41.5 32.3218 41.5 21C41.5 9.67816 32.3218 0.5 21 0.5ZM1.5 21C1.5 10.2304 10.2304 1.5 21 1.5C31.7696 1.5 40.5 10.2304 40.5 21C40.5 31.7696 31.7696 40.5 21 40.5C10.2304 40.5 1.5 31.7696 1.5 21ZM29.9995 18.0051C29.9995 17.0606 29.8106 16.494 29.6217 15.9273C29.3384 15.3606 29.055 14.8884 28.5828 14.4162C28.1106 13.944 27.6384 13.6606 27.0717 13.4717C26.505 13.2828 25.9384 13.094 24.9939 13.094C24.6235 13.094 24.3547 13.0794 24.028 13.0618C23.522 13.0344 22.877 12.9995 21.4995 12.9995C19.2328 12.9995 18.8551 12.9995 18.0051 13.094C17.0606 13.094 16.494 13.2828 15.9273 13.4717C15.3606 13.6606 14.8884 13.944 14.4162 14.4162C13.944 14.794 13.6606 15.3606 13.4717 15.9273C13.2828 16.494 13.094 17.0606 13.094 18.0051C13.094 18.3755 13.0794 18.6443 13.0618 18.971C13.0344 19.477 12.9995 20.122 12.9995 21.4995C12.9995 23.7662 12.9995 24.1439 13.094 24.9939C13.094 25.9384 13.2828 26.505 13.4717 27.0717C13.6606 27.6384 14.0384 28.1106 14.4162 28.5828C14.794 29.055 15.3606 29.3384 15.9273 29.5273C16.494 29.7162 17.0606 29.905 18.0051 29.905C18.3754 29.905 18.6441 29.9196 18.9706 29.9372L18.9709 29.9372L18.971 29.9372C19.477 29.9646 20.122 29.9995 21.4995 29.9995C23.7662 29.9995 24.1439 29.9995 24.9939 29.905C25.9384 29.905 26.505 29.7162 27.0717 29.5273C28.205 29.055 29.1495 28.205 29.5273 27.0717C29.7162 26.505 29.905 25.9384 29.905 24.9939C29.905 24.6235 29.9196 24.3547 29.9372 24.0281V24.0281V24.028C29.9646 23.522 29.9995 22.877 29.9995 21.4995V18.0051ZM28.3939 24.8995C28.3939 25.6768 28.236 26.1381 28.1367 26.428L28.1367 26.4281C28.1274 26.4552 28.1187 26.4808 28.1106 26.505C27.8273 27.2606 27.2606 27.8273 26.505 28.1106C26.4808 28.1187 26.4552 28.1274 26.4281 28.1367L26.428 28.1367C26.1381 28.236 25.6768 28.3939 24.8995 28.3939C24.529 28.3939 24.2748 28.4085 23.9659 28.4261H23.9658H23.9658L23.9657 28.4261C23.4871 28.4535 22.8769 28.4884 21.4995 28.4884H21.4994C19.2328 28.4884 18.9495 28.4884 18.0995 28.3939C17.3222 28.3939 16.8609 28.236 16.571 28.1367L16.5308 28.123L16.494 28.1106C16.1162 28.0162 15.8328 27.7328 15.5495 27.4495C15.2662 27.1662 15.0773 26.8828 14.8884 26.505L14.8744 26.4636L14.8623 26.428C14.763 26.1381 14.6051 25.6767 14.6051 24.8995C14.6051 24.5767 14.5914 24.3356 14.5745 24.0365C14.5469 23.5482 14.5106 22.9053 14.5106 21.4995C14.5106 19.2328 14.5106 18.9495 14.6051 18.0995C14.6051 17.3223 14.763 16.8609 14.8623 16.571L14.8623 16.5708C14.8716 16.5437 14.8803 16.5181 14.8884 16.494C14.9828 16.1162 15.2662 15.8328 15.5495 15.5495C15.8328 15.2662 16.1162 15.0773 16.494 14.8884C16.5181 14.8803 16.5437 14.8716 16.5708 14.8623L16.571 14.8623C16.8609 14.763 17.3223 14.6051 18.0995 14.6051C18.4223 14.6051 18.6634 14.5914 18.9625 14.5745C19.4508 14.5469 20.0937 14.5106 21.4995 14.5106C23.7662 14.5106 24.0495 14.5106 24.8995 14.6051C25.6767 14.6051 26.1381 14.763 26.428 14.8623L26.4636 14.8744L26.505 14.8884C26.8828 14.9828 27.1662 15.2662 27.4495 15.5495C27.7328 15.8328 27.9217 16.1162 28.1106 16.494C28.1186 16.5179 28.1272 16.5431 28.1363 16.5698L28.1366 16.5704L28.1367 16.571C28.236 16.8609 28.3939 17.3222 28.3939 18.0995C28.3939 18.4223 28.4076 18.6634 28.4245 18.9625C28.452 19.4508 28.4884 20.0937 28.4884 21.4995V21.4996C28.4884 23.7662 28.4884 24.0495 28.3939 24.8995ZM17.3439 21.4995C17.3439 19.2329 19.2328 17.344 21.4995 17.344C23.7661 17.344 25.655 19.2329 25.655 21.4995C25.655 23.7662 23.7661 25.6551 21.4995 25.6551C19.2328 25.6551 17.3439 23.7662 17.3439 21.4995ZM18.855 21.4995C18.855 22.9162 19.9884 24.144 21.4995 24.144C23.0106 24.144 24.1439 22.9162 24.1439 21.4995C24.1439 20.0829 22.9161 18.8551 21.4995 18.8551C20.0828 18.8551 18.855 19.9884 18.855 21.4995ZM26.0328 17.8161C26.5544 17.8161 26.9773 17.3933 26.9773 16.8717C26.9773 16.3501 26.5544 15.9272 26.0328 15.9272C25.5112 15.9272 25.0884 16.3501 25.0884 16.8717C25.0884 17.3933 25.5112 17.8161 26.0328 17.8161Z" fill="#FDE722"/>
</svg>
