<svg width="125" height="58" viewBox="0 0 125 58" fill="none" xmlns="http://www.w3.org/2000/svg">
<path d="M17.0409 35.9919V40.1761H4.00011V19.4769H8.5738V35.9919H17.0409ZM19.0609 26.1382H23.4566V40.1751H19.0609V26.1382ZM21.2592 19.1654C21.9353 19.1655 22.5836 19.4318 23.0618 19.9057C23.5399 20.3795 23.8087 21.0222 23.8091 21.6925C23.8091 23.0895 22.6668 24.2187 21.2587 24.2187C19.8507 24.2187 18.7103 23.089 18.7103 21.6925C18.7107 21.0225 18.9793 20.38 19.4571 19.9062C19.9349 19.4323 20.5834 19.1659 21.2592 19.1654ZM51.2038 26.1368H56.5857L50.8159 32.6264L56.4655 40.1751H50.9468L46.2824 33.2408H46.2257V40.1751H41.8314V19.4755H46.2257V31.8467L51.2038 26.1368ZM25.8882 26.1449H30.1075V28.0678H30.1656C30.7513 26.9636 32.1875 25.8022 34.3257 25.8022C38.7806 25.8022 39.601 28.7072 39.601 32.4832V40.1747H35.2058V33.3504C35.2058 31.7227 35.1757 29.6321 32.9192 29.6321C30.634 29.6321 30.2835 31.4045 30.2835 33.2341V40.1708H25.8877V26.1449H25.8882ZM65.8441 31.5261C65.8732 30.0734 64.7299 28.8533 63.1464 28.8533C61.2132 28.8533 60.1577 30.1608 60.0418 31.5261H65.8441ZM69.565 37.7417C68.1589 39.5142 65.8446 40.5318 63.5527 40.5318C59.1579 40.5318 55.6412 37.6249 55.6412 33.1221C55.6412 28.6192 59.1579 25.719 63.5527 25.719C67.6585 25.719 70.2341 28.624 70.2341 33.1221V34.4873H60.0365C60.3856 36.1434 61.6477 37.2178 63.3481 37.2178C64.7842 37.2178 65.7506 36.4967 66.4837 35.503L69.565 37.7417ZM79.3931 29.5349C77.1967 29.5349 75.8788 30.9886 75.8788 33.1076C75.8788 35.2305 77.1976 36.6813 79.3931 36.6813C81.5924 36.6813 82.9117 35.2305 82.9117 33.1076C82.9113 30.9886 81.5929 29.5349 79.3931 29.5349ZM86.9569 40.1684H82.9122V38.308H82.855C82.1786 39.3247 80.4806 40.5164 78.4874 40.5164C74.2662 40.5164 71.4831 37.4961 71.4831 33.224C71.4831 29.3013 73.9442 25.6988 77.988 25.6988C79.8062 25.6988 81.5056 26.1925 82.4972 27.5578H82.5544V19.4755H86.9521L86.9569 40.1684Z" fill="black"/>
<path fill-rule="evenodd" clip-rule="evenodd" d="M93.5408 15.1299H118.805C120.015 15.1299 121 16.0788 121 17.2479V42.4024C121 43.5725 120.015 44.5224 118.805 44.5224H93.5408C92.3335 44.5224 91.3526 43.5729 91.3526 42.4024V17.2479C91.3526 16.0788 92.3287 15.1299 93.5408 15.1299ZM100.146 26.1493H95.7486V40.1766H100.146V26.1493ZM99.7497 19.9175C99.272 19.4436 98.6242 19.1772 97.9484 19.1765C97.2723 19.1765 96.6238 19.4427 96.1456 19.9166C95.6673 20.3905 95.3984 21.0333 95.3981 21.7036C95.3982 22.3742 95.6669 23.0172 96.1452 23.4913C96.6235 23.9654 97.2721 24.2317 97.9484 24.2317C98.6243 24.2311 99.2723 23.9645 99.7501 23.4905C100.228 23.0164 100.496 22.3738 100.496 21.7036C100.496 21.0337 100.227 20.3913 99.7497 19.9175ZM102.904 26.1493H102.904L102.904 26.1392V26.1493ZM102.904 26.1493V40.1665H107.297V33.2274C107.297 31.3978 107.648 29.6259 109.936 29.6259C112.191 29.6259 112.221 31.7184 112.221 33.3452V40.1713H116.615V32.4775C116.615 28.701 115.792 25.7955 111.339 25.7955C109.201 25.7955 107.761 26.9584 107.179 28.0611H107.121V26.1493H102.904Z" fill="black"/>
</svg>
