<svg width="41" height="41" viewBox="0 0 41 41" fill="none" xmlns="http://www.w3.org/2000/svg">
<path d="M9.44093 23.6919H0V41H9.44093V23.6919Z" fill="#7127D0"/>
<path d="M34.1457 19.4835C35.9638 19.4842 37.7072 20.2081 38.9926 21.496C40.2779 22.784 41 24.5306 41 26.3517C41.0012 28.2755 40.6239 30.1807 39.8896 31.9583C39.1553 33.7359 38.0784 35.3511 36.7204 36.7116C35.3625 38.072 33.7502 39.151 31.9757 39.8868C30.2011 40.6227 28.2992 41.0009 26.3786 41H16.0178V31.472H25.537C26.3469 31.4735 27.1492 31.3149 27.8978 31.0051C28.6464 30.6954 29.3266 30.2406 29.8993 29.6669C30.472 29.0932 30.926 28.4119 31.2353 27.6621C31.5445 26.9122 31.7029 26.1086 31.7013 25.2973H16.0178V18.3294C16.0184 17.7066 16.2657 17.1096 16.7053 16.6692C17.1449 16.2289 17.7409 15.9812 18.3626 15.9806H24.7641C25.6006 15.9815 26.4292 15.8173 27.2024 15.4973C27.9755 15.1772 28.6781 14.7077 29.27 14.1155C29.8619 13.5233 30.3314 12.82 30.6518 12.0459C30.9722 11.2718 31.137 10.442 31.137 9.60403H15.5294C14.7301 9.60341 13.9385 9.76057 13.1998 10.0665C12.4611 10.3725 11.7899 10.8213 11.2245 11.3872C10.6591 11.9532 10.2105 12.6252 9.90448 13.3648C9.59845 14.1045 9.44093 14.8973 9.44093 15.698V17.244H1.91931e-07V14.6815C-0.000311357 12.7532 0.378667 10.8438 1.11528 9.06224C1.8519 7.28069 2.93172 5.66199 4.29305 4.29859C5.65439 2.93519 7.27056 1.85382 9.04923 1.11625C10.8279 0.378684 12.7342 -0.000623199 14.6593 7.68577e-07H41V12.6178C41 13.5194 40.8227 14.4122 40.4782 15.2452C40.1338 16.0782 39.6289 16.8351 38.9924 17.4726C38.3559 18.1101 37.6003 18.6159 36.7687 18.9609C35.9371 19.306 35.0458 19.4835 34.1457 19.4835Z" fill="#7127D0"/>
</svg>
