<svg width="46" height="46" viewBox="0 0 46 46" fill="none" xmlns="http://www.w3.org/2000/svg">
<path d="M12.4409 25.6919H3V43H12.4409V25.6919Z" fill="#FDE722"/>
<path d="M37.1457 21.4835C38.9638 21.4842 40.7072 22.2081 41.9926 23.496C43.2779 24.784 44 26.5306 44 28.3517C44.0012 30.2755 43.6239 32.1807 42.8896 33.9583C42.1553 35.7359 41.0784 37.3511 39.7204 38.7116C38.3625 40.072 36.7502 41.151 34.9757 41.8868C33.2011 42.6227 31.2992 43.0009 29.3786 43H19.0178V33.472H28.537C29.3469 33.4735 30.1492 33.3149 30.8978 33.0051C31.6464 32.6954 32.3266 32.2406 32.8993 31.6669C33.472 31.0932 33.926 30.4119 34.2353 29.6621C34.5445 28.9122 34.7029 28.1086 34.7013 27.2973H19.0178V20.3294C19.0184 19.7066 19.2657 19.1096 19.7053 18.6692C20.1449 18.2289 20.7409 17.9812 21.3626 17.9806H27.7641C28.6006 17.9815 29.4292 17.8173 30.2024 17.4973C30.9755 17.1772 31.6781 16.7077 32.27 16.1155C32.8619 15.5233 33.3314 14.82 33.6518 14.0459C33.9722 13.2718 34.137 12.442 34.137 11.604H18.5294C17.7301 11.6034 16.9385 11.7606 16.1998 12.0665C15.4611 12.3725 14.7899 12.8213 14.2245 13.3872C13.6591 13.9532 13.2105 14.6252 12.9045 15.3648C12.5984 16.1045 12.4409 16.8973 12.4409 17.698V19.244H3V16.6815C2.99969 14.7532 3.37867 12.8438 4.11528 11.0622C4.8519 9.28069 5.93172 7.66199 7.29305 6.29859C8.65439 4.93519 10.2706 3.85382 12.0492 3.11625C13.8279 2.37868 15.7342 1.99938 17.6593 2H44V14.6178C44 15.5194 43.8227 16.4122 43.4782 17.2452C43.1338 18.0782 42.6289 18.8351 41.9924 19.4726C41.3559 20.1101 40.6003 20.6159 39.7687 20.9609C38.9371 21.306 38.0458 21.4835 37.1457 21.4835Z" fill="#FDE722"/>
</svg>
