<svg width="292" height="206" viewBox="0 0 292 206" fill="none" xmlns="http://www.w3.org/2000/svg">
<g clip-path="url(#clip0_16_291)">
<path d="M261.541 149.983C261.652 150.008 261.768 149.989 261.864 149.929C261.96 149.869 262.029 149.773 262.054 149.663C262.277 148.7 262.792 147.842 263.586 147.111C263.665 147.033 263.711 146.928 263.713 146.817C263.716 146.707 263.675 146.599 263.6 146.518C263.525 146.437 263.421 146.387 263.31 146.381C263.2 146.374 263.091 146.411 263.006 146.482C262.083 147.332 261.482 148.337 261.22 149.471C261.195 149.581 261.214 149.697 261.274 149.793C261.335 149.889 261.43 149.957 261.541 149.983Z" fill="black"/>
<path d="M254.36 155.194C254.244 154.034 254.639 153.171 255.603 152.478C255.69 152.41 255.748 152.311 255.763 152.201C255.779 152.091 255.751 151.98 255.686 151.89C255.621 151.801 255.524 151.739 255.415 151.72C255.305 151.7 255.193 151.724 255.101 151.786C253.882 152.662 253.361 153.805 253.507 155.277C253.565 155.844 254.414 155.759 254.36 155.194Z" fill="black"/>
<path d="M257.096 167.622C257.066 167.513 256.994 167.42 256.896 167.363C256.798 167.306 256.681 167.29 256.572 167.319C255.442 167.614 254.244 167.51 253.182 167.025C253.079 166.977 252.962 166.973 252.855 167.012C252.749 167.051 252.662 167.13 252.614 167.233C252.567 167.336 252.562 167.453 252.601 167.56C252.64 167.666 252.72 167.752 252.823 167.8C254.065 168.375 255.47 168.497 256.792 168.145C256.902 168.116 256.996 168.044 257.053 167.946C257.109 167.848 257.125 167.731 257.096 167.622Z" fill="black"/>
<path d="M267.937 154.46C267.843 154.395 267.728 154.371 267.616 154.391C267.505 154.411 267.406 154.475 267.341 154.568C267.277 154.661 267.252 154.776 267.273 154.888C267.293 154.999 267.357 155.098 267.45 155.162C268.963 156.206 270.173 156.314 271.664 156.005C271.719 155.994 271.771 155.972 271.818 155.94C271.864 155.909 271.904 155.868 271.935 155.821C271.966 155.775 271.987 155.722 271.997 155.667C272.008 155.612 272.007 155.555 271.996 155.5C271.985 155.445 271.962 155.393 271.931 155.347C271.899 155.301 271.859 155.261 271.812 155.23C271.765 155.199 271.712 155.178 271.657 155.168C271.602 155.157 271.545 155.158 271.49 155.169C270.508 155.372 269.424 155.485 267.937 154.46Z" fill="black"/>
<path d="M248.954 160.327C248.555 159.094 248.623 157.757 249.147 156.57C249.171 156.519 249.185 156.463 249.188 156.406C249.19 156.349 249.181 156.292 249.162 156.238C249.142 156.185 249.111 156.136 249.072 156.094C249.033 156.052 248.986 156.019 248.934 155.996C248.881 155.973 248.825 155.96 248.768 155.959C248.711 155.958 248.654 155.968 248.601 155.99C248.547 156.011 248.499 156.042 248.458 156.083C248.418 156.123 248.386 156.171 248.364 156.223C247.755 157.604 247.676 159.159 248.142 160.594C248.317 161.128 249.133 160.864 248.954 160.327Z" fill="black"/>
<path d="M291.947 175.734C291.87 175.599 286.595 166.301 276.688 161.661C280.781 148.963 288.164 146.101 288.265 146.066C288.339 146.038 288.404 145.99 288.452 145.927C288.501 145.864 288.53 145.789 288.538 145.71C288.546 145.631 288.532 145.551 288.498 145.48C288.463 145.409 288.409 145.349 288.342 145.306C288.102 145.152 265.445 131.347 246.289 146.144V110.5C246.28 110.377 246.225 110.261 246.135 110.176L231.563 97.8768V68.9149C231.563 68.8587 231.553 68.8029 231.531 68.7509C231.51 68.6989 231.479 68.6516 231.439 68.6118C231.399 68.5721 231.351 68.5406 231.299 68.5194C231.247 68.4981 231.191 68.4875 231.135 68.488H196.765L173.367 48.7304C173.289 48.6651 173.191 48.6292 173.09 48.6292C172.988 48.6292 172.89 48.6651 172.813 48.7304L149.412 68.488H127.281C126.895 60.8403 120.542 54.7396 112.792 54.7396C104.786 54.7396 98.2777 61.2333 98.2777 69.2232C98.2777 77.2132 104.786 83.6981 112.792 83.6981C113.397 83.7012 114 83.6611 114.599 83.5781V97.8761L100.027 110.176C99.9799 110.217 99.9421 110.267 99.9161 110.323C99.8901 110.38 99.8765 110.441 99.8762 110.503V196.987L99.8626 196.996C99.7701 197.084 99.7047 197.196 99.6744 197.32C99.644 197.444 99.65 197.573 99.6915 197.694H67.0568L60.6966 193.904V193.015H63.9188L61.5421 141.881L57.5518 145.884C57.5122 145.924 57.4651 145.955 57.4132 145.977C57.3613 145.999 57.3057 146.01 57.2495 146.01C57.1933 146.01 57.1376 145.999 57.0856 145.978C57.0336 145.957 56.9863 145.925 56.9464 145.886C56.9066 145.846 56.8749 145.799 56.8533 145.747C56.8316 145.696 56.8204 145.64 56.8202 145.584C56.8201 145.528 56.831 145.472 56.8523 145.421C56.8737 145.369 56.9051 145.321 56.9448 145.282L61.4884 140.724L60.3286 115.796L59.5442 115.911C55.9105 116.439 52.6476 113.564 52.7725 109.867L53.0442 101.45C53.0438 101.393 53.0553 101.337 53.0778 101.285C53.1003 101.233 53.1334 101.186 53.175 101.147C53.2166 101.108 53.2658 101.078 53.3195 101.059C53.3731 101.041 53.4302 101.033 53.4869 101.037C53.5431 101.039 53.5984 101.052 53.6496 101.075C53.7008 101.098 53.7469 101.131 53.7853 101.172C53.8237 101.213 53.8537 101.261 53.8734 101.314C53.8932 101.366 53.9024 101.422 53.9005 101.478L53.6289 109.895C53.6042 110.634 53.7423 111.369 54.0334 112.049C54.3246 112.728 54.7616 113.336 55.3138 113.829C55.8659 114.321 56.5197 114.687 57.2289 114.9C57.9382 115.113 58.6857 115.168 59.4186 115.061L60.245 114.942C60.259 114.941 60.2731 114.941 60.2871 114.942L59.53 98.6635C59.6133 98.6364 59.6889 98.59 59.7507 98.528C60.8059 97.3225 59.5884 83.0381 59.4342 81.4036C60.317 84.0098 61.4972 86.2317 62.9654 87.2909C65.3462 89.012 68.6926 87.1309 70.2314 84.6427C74.9849 77.0471 73.603 50.4556 72.6761 49.8539C72.8241 48.5569 72.9966 48.1198 73.0679 47.9931C74.9618 44.7351 74.7133 41.3442 73.5561 39.5681C73.5297 39.4577 74.0071 36.6733 71.3302 35.4163V31.976C71.3298 31.8627 71.2845 31.7541 71.2043 31.674C71.124 31.5939 71.0152 31.5488 70.9017 31.5484H59.7181C59.6617 31.5478 59.6058 31.5585 59.5536 31.5798C59.5014 31.6011 59.4539 31.6326 59.4141 31.6725C59.3743 31.7123 59.3428 31.7596 59.3215 31.8118C59.3003 31.8639 59.2896 31.9197 59.2903 31.976V41.2127C54.7405 36.9152 50.8807 35.0843 42.2327 34.6397V33.668C42.7121 33.7358 43.4313 33.7358 44.1083 33.397C45.6892 32.5675 46.0423 29.9356 46.0776 28.1535C46.8999 26.6125 48.1664 23.6012 45.9309 22.912C46.2638 22.6183 46.5165 22.2451 46.6652 21.8273C46.8139 21.4094 46.8538 20.9608 46.7811 20.5234C46.7722 20.4658 46.7486 20.4115 46.7126 20.3657C46.6766 20.3199 46.6293 20.2841 46.5754 20.2619C46.5215 20.2396 46.4627 20.2316 46.4048 20.2386C46.3468 20.2456 46.2917 20.2673 46.2446 20.3018C45.8474 20.5904 45.0868 20.8994 43.7362 20.6968C41.4423 20.3519 36.2664 19.3341 35.4889 24.3499C35.0285 27.3078 35.3177 28.9422 35.5907 29.7445C35.5527 29.8881 35.5327 30.0358 35.531 30.1843C35.531 31.1073 36.2243 31.8676 37.0976 31.9462C37.1146 32.5438 37.0976 33.6802 37.0636 34.5266C25.3694 34.391 15.0536 43.0708 13.4809 58.3493C13.3356 59.2465 9.92732 80.4976 16.5808 86.2914C18.1475 87.6581 20.1514 88.06 22.5322 87.4962L20.0631 98.1885C20.0476 98.2516 20.0465 98.3174 20.0599 98.3809C20.0733 98.4445 20.1008 98.5043 20.1405 98.5558C20.2193 98.6427 20.3289 98.6957 20.4461 98.7035L18.8062 143.17C18.8869 143.093 18.9944 143.051 19.1056 143.053C19.2168 143.054 19.323 143.099 19.4017 143.178L24.033 147.823C24.113 147.904 24.1578 148.013 24.1575 148.126C24.1572 148.239 24.1118 148.348 24.0313 148.428C23.9508 148.507 23.8417 148.552 23.7282 148.552C23.6147 148.552 23.5059 148.506 23.4259 148.426L18.7946 143.78C18.7905 143.775 18.7892 143.769 18.7844 143.764L16.9686 193.015H19.4689C19.4689 193.103 19.4085 198.008 19.4126 197.694H0.42849C0.314902 197.694 0.206017 197.74 0.125698 197.82C0.0453789 197.9 0.000176548 198.009 -3.03813e-06 198.122C-0.000548858 198.178 0.0101668 198.234 0.0315158 198.286C0.0528648 198.338 0.0844177 198.385 0.124325 198.425C0.164233 198.465 0.211692 198.496 0.263922 198.518C0.316151 198.539 0.3721 198.549 0.42849 198.549H19.3949L19.2856 203.907C19.2795 204.18 19.3282 204.451 19.4287 204.705C19.5292 204.958 19.6795 205.19 19.8708 205.385C20.0621 205.579 20.2906 205.734 20.5427 205.84C20.7949 205.945 21.0656 206 21.3391 205.999H44.2448C44.7908 205.997 45.3137 205.779 45.699 205.393C46.0843 205.007 46.3005 204.485 46.3003 203.94C46.3029 202.704 45.8451 201.512 45.0158 200.595C44.1864 199.677 43.0449 199.1 41.813 198.976L38.1141 198.583L38.0537 198.548H49.8281L49.7167 203.906C49.7117 204.179 49.7611 204.45 49.862 204.703C49.963 204.957 50.1134 205.188 50.3047 205.382C50.496 205.577 50.7242 205.732 50.976 205.838C51.2278 205.944 51.4983 205.999 51.7716 205.999H74.678C78.182 205.999 77.0547 199.474 72.2551 198.976L68.5467 198.583L68.4869 198.548H281.834C281.948 198.548 282.056 198.503 282.137 198.423C282.217 198.343 282.262 198.234 282.263 198.121C282.261 198.008 282.215 197.901 282.135 197.821C282.055 197.741 281.947 197.696 281.834 197.694H264.111C266.164 196.325 267.903 194.537 269.213 192.447C280.422 174.853 291.392 176.349 291.502 176.366C291.582 176.378 291.663 176.368 291.737 176.336C291.811 176.305 291.875 176.253 291.921 176.188C291.967 176.122 291.994 176.045 291.999 175.965C292.003 175.885 291.985 175.805 291.947 175.734ZM173.088 49.6167L195.436 68.4866H150.74L173.088 49.6167ZM59.8403 193.915L56.5074 196.156L50.7632 194.412V193.017H59.8403V193.915ZM43.0225 103.195V110.318C43.0214 111.193 42.6725 112.032 42.0524 112.651C41.4323 113.269 40.5916 113.617 39.7147 113.618C39.6041 113.614 39.4995 113.567 39.4228 113.487C39.3461 113.407 39.3033 113.301 39.3033 113.191C39.3033 113.08 39.3461 112.974 39.4228 112.895C39.4995 112.815 39.6041 112.768 39.7147 112.764C40.3645 112.763 40.9875 112.505 41.4471 112.047C41.9067 111.588 42.1653 110.967 42.1662 110.318V103.195C42.1706 103.084 42.2176 102.98 42.2974 102.904C42.3772 102.827 42.4836 102.784 42.5943 102.784C42.705 102.784 42.8114 102.827 42.8912 102.904C42.971 102.98 43.0181 103.084 43.0225 103.195ZM57.2347 150.366L59.5503 148.042C59.59 148.003 59.6371 147.971 59.689 147.949C59.7408 147.928 59.7965 147.917 59.8527 147.916C59.9089 147.916 59.9646 147.927 60.0166 147.948C60.0686 147.97 60.1159 148.001 60.1557 148.041C60.1956 148.08 60.2273 148.127 60.2489 148.179C60.2706 148.231 60.2818 148.286 60.282 148.342C60.2821 148.398 60.2712 148.454 60.2498 148.506C60.2285 148.558 60.1971 148.605 60.1574 148.645L57.8418 150.968C57.7617 151.049 57.653 151.094 57.5395 151.094C57.4259 151.095 57.3169 151.05 57.2364 150.97C57.1559 150.89 57.1105 150.782 57.1102 150.668C57.1099 150.555 57.1547 150.446 57.2347 150.366ZM72.3318 47.5696C72.2462 47.7051 72.0065 48.1252 71.8266 49.7143H67.7589C67.2157 47.3568 69.0159 45.3659 67.8105 45.2453C66.3886 45.2826 63.9745 44.9892 63.9745 43.5709C64.714 44.1686 66.7933 44.3298 66.5264 44.2722C66.638 44.2721 66.7451 44.2286 66.825 44.1509C66.9049 44.0732 66.9512 43.9675 66.9542 43.8562C66.9733 43.104 66.0382 43.7125 64.4899 42.8736C64.2237 42.5951 64.1184 42.3315 64.094 42.1607C64.9931 42.6087 66.1312 42.8736 67.1668 42.8079C67.7331 42.7699 67.6707 41.9195 67.1084 41.9547C65.9377 42.0347 63.9745 41.5028 63.9745 40.4856C65.645 41.4506 70.3184 41.6044 70.4739 40.2383C70.4854 40.182 70.4854 40.1239 70.4739 40.0675C70.3876 39.5458 69.6427 39.3154 68.3687 38.9156C67.4859 38.6445 65.6708 38.0699 65.6525 37.54C66.3037 37.023 69.9625 38.0557 70.8759 38.3606C70.9614 38.4446 73.0244 39.1643 73.4618 41.6586C73.9161 44.1611 73.1025 46.2543 72.3318 47.5696ZM72.6917 38.5375C72.2886 38.1651 71.8305 37.8568 71.3335 37.6233V36.3887C71.7026 36.6273 72.0152 36.9431 72.2497 37.3142C72.4842 37.6854 72.635 38.103 72.6917 38.5381V38.5375ZM60.1466 32.4029H70.4739V37.3421C68.9235 36.8718 66.0552 36.1461 65.1303 36.8637C65.0087 36.9533 64.9124 37.0728 64.8509 37.2106C64.7894 37.3483 64.7646 37.4996 64.7792 37.6498C64.8559 38.7096 66.5088 39.2307 68.1066 39.726C68.5181 39.8616 69.0403 40.0249 69.3656 40.1617C67.651 40.7323 64.9639 40.1373 64.3649 39.726C64.0825 39.5383 63.7823 39.5038 63.5256 39.6406C63.2689 39.7775 63.1059 40.0933 63.1182 40.4613C63.1281 40.8103 63.2468 41.1476 63.4577 41.4262C63.4516 41.4394 63.4428 41.4511 63.4319 41.4608C63.1752 41.7684 63.1494 42.3241 63.4496 42.8878C62.5749 43.6427 63.2261 45.9819 67.2523 46.1005C66.8327 47.6387 66.7213 48.8517 66.9013 49.7834H60.1466V32.4029ZM37.2918 29.2736C37.4609 29.2736 37.6055 29.2607 37.7196 29.0703C38.2547 29.4769 38.381 30.5502 38.381 30.5502V27.2976C38.381 27.2976 39.6842 27.4447 38.9467 26.1368C38.9467 26.1368 41.1917 23.6188 42.503 25.5805C43.5406 27.1343 44.6271 26.536 45.0359 26.2195C45.4433 27.8662 45.2254 31.8438 43.7144 32.6272C43.1033 32.9477 40.3985 33.0744 39.9116 32.329C39.8975 32.306 39.8762 32.2883 39.8511 32.2784C39.8259 32.2686 39.7982 32.2672 39.7722 32.2744C39.7461 32.2817 39.7232 32.2973 39.7068 32.3187C39.6904 32.3402 39.6815 32.3664 39.6814 32.3934C39.6814 32.4402 39.7337 33.4058 41.3791 33.8679V34.7122L39.9972 36.2742L37.9172 34.6675C37.9919 31.957 38.0999 30.95 37.4032 31.0761C36.1625 31.2848 35.9907 29.2736 37.2918 29.2736ZM23.4775 87.1845C28.4578 85.5358 42.9152 77.8332 47.8282 73.2253C47.8935 73.1637 47.9377 73.0832 47.9545 72.9951C47.9713 72.9071 47.9599 72.8159 47.922 72.7347L47.3991 71.6064C48.7572 71.1382 49.2828 69.8121 49.4791 68.8817C49.6991 69.2456 49.8565 69.6437 49.9449 70.0594C50.2165 71.267 50.3523 72.0564 51.2806 72.0564C51.6037 72.051 51.9143 71.9309 52.1566 71.7176C52.89 71.8097 53.9222 71.2134 53.9901 70.2532C54.0046 70.0657 54.0139 69.8789 54.018 69.6928C56.4144 69.8168 55.5533 64.864 54.0146 62.6631L53.9731 62.6041C59.4485 64.4791 61.4008 65.667 62.1261 64.2162C62.471 63.5257 62.2619 62.6523 61.6222 62.1393C60.3394 61.1046 56.9291 58.6339 52.9858 58.0369C48.6098 57.3837 44.6556 61.6358 43.436 63.1015L42.8989 61.9496C42.8748 61.8987 42.841 61.8531 42.7993 61.8153C42.7575 61.7776 42.7087 61.7484 42.6556 61.7295C42.6026 61.7106 42.5463 61.7024 42.49 61.7053C42.4338 61.7081 42.3786 61.7221 42.3278 61.7463L28.8605 68.1018L29.9721 61.2469C29.9893 61.1354 29.9617 61.0217 29.8952 60.9305C29.8287 60.8394 29.7288 60.7782 29.6172 60.7603C29.5056 60.7424 29.3915 60.7692 29.2997 60.835C29.208 60.9008 29.146 61.0001 29.1273 61.1113L27.8982 68.6899L26.3146 71.4147C26.2842 71.4633 26.2639 71.5175 26.2549 71.5741C26.2459 71.6307 26.2484 71.6886 26.2622 71.7442C26.2761 71.7998 26.301 71.8521 26.3355 71.8979C26.37 71.9438 26.4134 71.9822 26.4631 72.011C26.5127 72.0397 26.5677 72.0583 26.6247 72.0654C26.6817 72.0725 26.7395 72.0682 26.7948 72.0526C26.8501 72.0369 26.9016 72.0104 26.9464 71.9745C26.9912 71.9386 27.0283 71.8941 27.0555 71.8436L28.6112 69.1663L42.306 62.6977L47.014 72.8099C46.1992 73.518 43.1841 76.0124 37.4616 79.3423C38.3342 77.6157 37.8595 75.9223 37.852 75.8972C37.8373 75.8419 37.8116 75.7902 37.7764 75.745C37.7413 75.6998 37.6974 75.6621 37.6474 75.6341C37.5973 75.6062 37.5422 75.5885 37.4852 75.5822C37.4283 75.5759 37.3706 75.5811 37.3157 75.5974C37.2607 75.6137 37.2096 75.6409 37.1654 75.6773C37.1212 75.7136 37.0847 75.7585 37.0581 75.8092C37.0316 75.8599 37.0155 75.9154 37.0109 75.9724C37.0062 76.0295 37.0131 76.0868 37.031 76.1411C37.0677 76.2624 37.8513 79.0672 34.8628 80.8012C29.5932 83.6784 21.1999 89.1632 17.1451 85.6463C12.6918 81.7716 13.106 69.9314 13.7457 63.2228C14.7358 56.536 20.5758 53.5022 20.6383 53.4704C20.7354 53.4169 20.808 53.328 20.8408 53.2222C20.8735 53.1165 20.8639 53.0022 20.814 52.9034C20.764 52.8045 20.6776 52.7289 20.5729 52.6923C20.4682 52.6558 20.3534 52.6612 20.2526 52.7074C20.2003 52.7345 16.4382 54.6915 14.2598 58.8982C14.2978 58.6373 14.3229 58.4753 14.3277 58.4564C16.3405 38.8803 31.591 35.9591 31.7363 35.932C35.7272 35.2828 37.1743 35.3682 37.465 35.3939L39.803 37.1971C39.8901 37.2615 39.9982 37.291 40.1061 37.2799C40.2139 37.2687 40.3136 37.2177 40.3856 37.1368L41.8579 35.4624C49.1239 35.8012 52.4398 37.2364 54.4261 38.4839C53.8002 38.3715 53.1665 38.3081 52.5308 38.2942C52.4731 38.2919 52.4156 38.3013 52.3617 38.3217C52.3077 38.3421 52.2585 38.3732 52.2168 38.4131C52.1752 38.453 52.1421 38.5009 52.1195 38.5539C52.0969 38.6069 52.0853 38.6639 52.0853 38.7214C52.0853 38.779 52.0969 38.836 52.1195 38.889C52.1421 38.942 52.1752 38.9898 52.2168 39.0297C52.2585 39.0696 52.3077 39.1007 52.3617 39.1212C52.4156 39.1416 52.4731 39.151 52.5308 39.1487C52.5661 39.1487 55.4596 39.1663 57.0765 40.4253C57.8527 41.0432 58.5921 41.7057 59.2909 42.4094V50.2123C59.2913 50.3255 59.3365 50.4338 59.4166 50.5138C59.4968 50.5938 59.6054 50.6389 59.7188 50.6392H61.5658C61.3702 51.9112 60.8603 55.487 60.5581 59.9018C60.5514 60.0151 60.5901 60.1264 60.6656 60.2112C60.7411 60.2961 60.8472 60.3476 60.9608 60.3544C61.0165 60.3587 61.0725 60.3518 61.1255 60.3343C61.1786 60.3168 61.2276 60.289 61.2698 60.2524C61.312 60.2159 61.3465 60.1713 61.3713 60.1214C61.3961 60.0714 61.4108 60.017 61.4144 59.9614C61.7227 55.407 62.2537 51.7587 62.433 50.6392H72.0574C72.253 52.5014 73.0679 60.9189 72.6605 69.1982C71.9223 65.415 70.3822 62.615 70.2756 62.4253C70.2481 62.3763 70.2112 62.3332 70.1671 62.2985C70.123 62.2638 70.0724 62.2381 70.0183 62.2228C69.9642 62.2076 69.9076 62.2032 69.8518 62.2098C69.7959 62.2164 69.742 62.2339 69.6929 62.2613C69.6439 62.2887 69.6007 62.3255 69.5659 62.3695C69.5311 62.4136 69.5054 62.464 69.4901 62.518C69.4748 62.572 69.4704 62.6285 69.477 62.6842C69.4836 62.7399 69.5011 62.7937 69.5286 62.8427C73.6376 70.1414 71.6887 77.615 71.6921 77.6197C70.1452 85.2315 66.2181 88.5865 63.4706 86.6031C60.4494 84.4184 58.931 76.7598 58.4632 73.0396V67.4356C58.4587 67.3253 58.4117 67.2209 58.3319 67.1444C58.2521 67.0678 58.1457 67.0251 58.035 67.0251C57.9243 67.0251 57.8179 67.0678 57.7381 67.1444C57.6583 67.2209 57.6112 67.3253 57.6068 67.4356V73.0803C57.6068 73.0932 57.613 73.104 57.6136 73.1169C57.6143 73.1298 57.6136 73.1243 57.6136 73.1277C57.6333 73.3249 58.9989 82.5861 59.2726 92.0858H35.2437C35.1331 92.0902 35.0285 92.1371 34.9518 92.2167C34.8751 92.2964 34.8323 92.4025 34.8323 92.513C34.8323 92.6235 34.8751 92.7296 34.9518 92.8093C35.0285 92.8889 35.1331 92.9359 35.2437 92.9403H59.293C59.3466 95.5457 59.278 97.294 59.1361 97.8565H21.0138L23.4775 87.1845ZM52.0038 61.3986C51.6168 62.1915 53.7837 62.2003 54.4695 65.9726C55.0644 69.1799 54.018 68.7367 53.9901 68.8187C53.8074 66.1393 51.9013 63.01 51.1496 63.8307C51.0734 63.9147 51.0337 64.0254 51.0392 64.1386C51.0447 64.2517 51.0949 64.3581 51.1788 64.4344C52.8045 65.9056 53.4537 68.7035 53.1148 70.2905C53.0469 70.6171 52.6557 70.8014 52.4357 70.8475C52.6394 67.5203 50.5968 64.4243 49.8553 65.2333C49.1293 66.0343 52.0113 66.4212 51.5692 71.0833C51.5138 71.1274 51.4492 71.1588 51.3802 71.1751C51.3111 71.1913 51.2393 71.1922 51.1699 71.1775C50.8107 70.4701 50.6871 68.3443 49.3881 67.5508C49.3237 67.5123 49.2503 67.4913 49.1752 67.4899C49.1001 67.4885 49.026 67.5068 48.9602 67.5429C48.8944 67.5791 48.8393 67.6318 48.8004 67.6959C48.7614 67.7599 48.74 67.833 48.7382 67.908C48.7382 67.9323 48.6703 70.197 47.1818 70.7838L43.8917 63.895C44.7188 62.8671 48.6954 58.2524 52.8554 58.8806C56.5903 59.4464 59.8498 61.812 61.081 62.802C61.4083 63.0656 61.5244 63.4993 61.3573 63.8327C61.2419 64.0651 61.0008 64.1878 59.0601 63.5054C52.8255 61.4427 52.3162 60.7705 52.0038 61.3986ZM20.383 115.233C20.2701 115.216 20.1685 115.156 20.1004 115.064C20.0324 114.973 20.0034 114.859 20.02 114.746C20.0366 114.633 20.0973 114.532 20.1888 114.464C20.2803 114.396 20.3951 114.367 20.5079 114.384L25.1432 115.061C25.8765 115.168 26.6243 115.113 27.3339 114.9C28.0436 114.687 28.6977 114.322 29.2502 113.829C29.8026 113.336 30.24 112.728 30.5313 112.048C30.8227 111.368 30.961 110.633 30.9364 109.894L30.658 101.477C30.6561 101.421 30.6653 101.365 30.6851 101.312C30.7049 101.26 30.7349 101.212 30.7733 101.171C30.8118 101.13 30.858 101.097 30.9093 101.074C30.9606 101.05 31.0159 101.038 31.0722 101.036C31.1292 101.03 31.1868 101.037 31.2411 101.055C31.2953 101.074 31.345 101.103 31.3869 101.142C31.4287 101.181 31.4617 101.229 31.4837 101.282C31.5057 101.335 31.5161 101.391 31.5143 101.449L31.7927 109.866C31.8212 110.73 31.6595 111.59 31.3188 112.385C30.9781 113.179 30.4667 113.89 29.8208 114.466C29.1749 115.042 28.4102 115.47 27.5807 115.719C26.7511 115.968 25.8768 116.032 25.0196 115.907L20.383 115.233ZM20.821 150.582C20.9013 150.502 21.0102 150.457 21.1238 150.457C21.2374 150.457 21.3463 150.502 21.4267 150.582L23.7423 152.904C23.782 152.944 23.8134 152.991 23.8347 153.043C23.8561 153.095 23.867 153.151 23.8668 153.207C23.8667 153.263 23.8555 153.318 23.8338 153.37C23.8121 153.422 23.7805 153.469 23.7406 153.508C23.7008 153.548 23.6535 153.579 23.6015 153.601C23.5495 153.622 23.4938 153.633 23.4376 153.633C23.3814 153.633 23.3257 153.621 23.2738 153.6C23.222 153.578 23.1749 153.547 23.1352 153.507L20.8196 151.185C20.74 151.104 20.6954 150.996 20.6956 150.883C20.6959 150.77 20.7409 150.662 20.821 150.582ZM29.4037 193.015V193.918L26.0688 196.154L20.3252 194.412V193.016L29.4037 193.015ZM37.9254 199.426C40.2682 199.951 43.5066 199.076 45.0047 202.117H20.1745C20.1745 202.03 20.277 197.004 20.3103 195.3L26.0145 197.034C26.1388 197.061 26.2686 197.04 26.3785 196.976H26.3819L29.8417 194.652C36.589 198.681 37.8242 199.415 37.9254 199.426ZM36.6243 197.692L30.2587 193.904V193.013H33.9189L40.2519 142.966H40.2267C40.1155 142.944 40.0173 142.88 39.9536 142.786C39.89 142.693 39.8661 142.578 39.8872 142.467L43.4184 123.511C43.4393 123.4 43.5036 123.302 43.5973 123.238C43.6909 123.174 43.8062 123.149 43.9178 123.17C44.0294 123.191 44.1281 123.255 44.1922 123.349C44.2563 123.442 44.2806 123.557 44.2597 123.669L40.7286 142.624C40.7111 142.712 40.6658 142.793 40.5994 142.854C40.533 142.915 40.4488 142.953 40.3592 142.963L46.4545 193.013H49.9096C49.9096 193.101 49.8417 198.006 49.8478 197.692L36.6243 197.692ZM72.1607 199.819C72.8586 199.893 73.5264 200.142 74.1012 200.544C74.6759 200.946 75.1387 201.487 75.446 202.117H50.6104C50.8467 190.643 50.5343 205.771 50.753 195.302L56.4572 197.034C56.6202 197.081 56.7288 197.012 56.8178 196.976L60.2851 194.65C60.3707 194.701 67.2456 198.807 66.8103 198.546C68.9256 199.78 67.2761 199.262 72.1607 199.822V199.819ZM287.179 145.623C285.063 146.707 279.309 150.535 275.858 161.293C268.122 157.957 260.336 158.607 252.464 161.883C257.259 156.326 263.622 152.396 271.234 150.348C271.344 150.318 271.438 150.246 271.495 150.148C271.552 150.049 271.567 149.932 271.538 149.822C271.508 149.712 271.436 149.619 271.338 149.562C271.239 149.505 271.121 149.489 271.011 149.519C262.619 151.783 255.726 156.269 250.717 162.678C249.171 163.422 247.69 164.294 246.29 165.284V147.229C263.218 133.643 283.196 143.426 287.179 145.623ZM245.433 196.332L185.237 150.138L197.683 142.105L245.433 111.287V196.332ZM245.144 110.454L231.563 119.222V99.0016L245.144 110.454ZM112.793 82.8436C105.256 82.8436 99.1354 76.7341 99.1354 69.2232C99.1354 61.7124 105.256 55.5941 112.793 55.5941C120.072 55.5941 126.04 61.3106 126.426 68.488C126.434 68.7272 126.443 68.9752 126.443 69.2232V69.3425C126.383 75.8877 121.673 81.348 115.456 82.5868C115.174 82.6383 114.891 82.6898 114.6 82.7223C114.001 82.802 113.398 82.8425 112.793 82.8436ZM127.299 69.3425H230.704V119.774L184.512 149.583L173.529 141.155C173.407 141.048 173.25 140.989 173.087 140.989C172.925 140.989 172.768 141.048 172.646 141.155L161.657 149.586L115.454 119.77V83.4494C122.151 82.2113 127.238 76.3688 127.298 69.3425H127.299ZM114.6 119.22L101.024 110.457L114.6 98.9976V119.22ZM100.735 111.292L160.935 150.145L100.735 196.334V111.292ZM268.493 191.987C266.931 194.439 264.914 196.353 262.482 197.694H246.472C246.615 197.276 246.336 197.075 246.289 196.989V182.459C260.957 167.437 277.187 172.556 277.382 172.615C277.434 172.634 277.491 172.643 277.547 172.639C277.603 172.636 277.657 172.622 277.708 172.597C277.758 172.573 277.803 172.538 277.84 172.495C277.876 172.453 277.904 172.404 277.921 172.35C277.939 172.297 277.947 172.241 277.944 172.184C277.941 172.128 277.926 172.073 277.902 172.022C277.877 171.971 277.843 171.926 277.8 171.889C277.758 171.851 277.709 171.822 277.655 171.804C277.458 171.744 261.172 166.586 246.289 181.246V166.29C253.114 161.226 264.851 157.44 275.6 162.112C275.872 162.231 276.148 162.36 276.423 162.488C284.462 166.29 289.361 173.248 290.778 175.461C287.914 175.427 278.332 176.537 268.493 191.987Z" fill="black"/>
<path d="M273.009 166.376C271.983 166.624 271.129 167.121 270.471 167.847C270.09 168.269 270.733 168.833 271.107 168.42C271.65 167.822 272.356 167.414 273.212 167.207C273.323 167.18 273.418 167.11 273.477 167.013C273.536 166.916 273.554 166.8 273.527 166.69C273.5 166.579 273.43 166.484 273.333 166.426C273.236 166.367 273.119 166.349 273.008 166.376H273.009Z" fill="black"/>
<path d="M265.144 167.045C263.878 167.194 263.019 167.828 262.52 168.981C262.496 169.033 262.482 169.089 262.48 169.146C262.477 169.204 262.487 169.261 262.507 169.315C262.527 169.368 262.558 169.417 262.598 169.459C262.638 169.5 262.685 169.533 262.738 169.556C262.791 169.579 262.848 169.59 262.905 169.591C262.962 169.591 263.019 169.58 263.072 169.558C263.125 169.536 263.173 169.504 263.214 169.463C263.254 169.422 263.286 169.373 263.307 169.32C263.679 168.459 264.295 168.005 265.245 167.893C265.3 167.886 265.355 167.869 265.404 167.842C265.453 167.814 265.496 167.777 265.531 167.733C265.566 167.689 265.591 167.639 265.607 167.585C265.622 167.531 265.626 167.474 265.619 167.418C265.614 167.362 265.597 167.308 265.57 167.259C265.542 167.209 265.506 167.166 265.461 167.131C265.417 167.096 265.366 167.071 265.311 167.056C265.257 167.041 265.2 167.037 265.144 167.045Z" fill="black"/>
<path d="M259.97 178.905C259.048 178.669 258.236 178.122 257.671 177.358C257.604 177.266 257.503 177.205 257.391 177.187C257.279 177.17 257.164 177.198 257.072 177.264C256.98 177.331 256.919 177.432 256.901 177.544C256.884 177.656 256.911 177.77 256.978 177.862C257.659 178.791 258.644 179.454 259.762 179.734C259.873 179.762 259.989 179.745 260.087 179.687C260.185 179.629 260.255 179.534 260.283 179.424C260.31 179.314 260.293 179.198 260.235 179.1C260.177 179.003 260.082 178.933 259.972 178.905H259.97Z" fill="black"/>
<path d="M268.535 176.773C267.585 176.619 266.712 176.159 266.047 175.463C266.008 175.423 265.962 175.39 265.911 175.368C265.859 175.345 265.804 175.333 265.748 175.332C265.691 175.33 265.636 175.34 265.583 175.36C265.531 175.381 265.483 175.411 265.442 175.45C265.402 175.489 265.369 175.535 265.346 175.586C265.324 175.638 265.311 175.693 265.31 175.749C265.309 175.805 265.319 175.861 265.339 175.913C265.359 175.965 265.39 176.013 265.429 176.054C266.185 176.842 268.709 178.278 268.883 177.267C268.893 177.212 268.892 177.155 268.88 177.101C268.867 177.046 268.845 176.994 268.812 176.948C268.78 176.902 268.739 176.863 268.691 176.833C268.644 176.803 268.591 176.783 268.535 176.773Z" fill="black"/>
<path d="M275.697 176.087C274.917 175.844 274.101 175.497 273.45 174.182C273.399 174.08 273.311 174.003 273.203 173.967C273.096 173.93 272.978 173.938 272.876 173.988C272.775 174.039 272.697 174.127 272.661 174.235C272.624 174.342 272.632 174.459 272.682 174.561C273.483 176.179 274.527 176.618 275.443 176.903C275.498 176.925 275.556 176.934 275.615 176.932C275.673 176.93 275.731 176.916 275.784 176.89C275.837 176.865 275.884 176.829 275.922 176.785C275.961 176.74 275.989 176.689 276.007 176.633C276.024 176.577 276.03 176.518 276.024 176.46C276.017 176.401 275.999 176.345 275.97 176.294C275.941 176.243 275.902 176.199 275.855 176.164C275.808 176.129 275.754 176.104 275.697 176.09V176.087Z" fill="black"/>
<path d="M258.433 167.568C257.42 168.336 256.724 169.448 256.479 170.694C256.372 171.249 257.213 171.41 257.32 170.854C257.525 169.816 258.105 168.89 258.95 168.251C258.995 168.217 259.032 168.175 259.061 168.126C259.089 168.078 259.108 168.025 259.116 167.969C259.124 167.914 259.121 167.857 259.107 167.803C259.093 167.748 259.068 167.697 259.034 167.653C259 167.608 258.958 167.57 258.91 167.542C258.861 167.513 258.808 167.494 258.752 167.487C258.696 167.479 258.64 167.482 258.585 167.496C258.531 167.51 258.48 167.535 258.435 167.568H258.433Z" fill="black"/>
<path d="M136.96 94.982H209.198C209.252 94.9828 209.306 94.9727 209.357 94.9522C209.407 94.9318 209.453 94.9014 209.492 94.8629C209.53 94.8244 209.561 94.7786 209.581 94.7282C209.602 94.6777 209.612 94.6237 209.611 94.5693V78.4803C209.611 78.371 209.567 78.2662 209.49 78.1889C209.412 78.1116 209.307 78.068 209.198 78.0677H136.96C136.85 78.0694 136.746 78.1134 136.669 78.1905C136.592 78.2675 136.548 78.3714 136.546 78.4803V94.5693C136.546 94.6786 136.59 94.7834 136.668 94.8607C136.745 94.938 136.85 94.9816 136.96 94.982Z" fill="black"/>
<path d="M130.929 103.847H215.234C215.292 103.85 215.349 103.84 215.403 103.82C215.457 103.799 215.506 103.768 215.548 103.728C215.589 103.689 215.623 103.641 215.645 103.588C215.668 103.535 215.679 103.478 215.679 103.42C215.679 103.363 215.668 103.306 215.645 103.253C215.623 103.2 215.589 103.152 215.548 103.112C215.506 103.072 215.457 103.041 215.403 103.02C215.349 103 215.292 102.991 215.234 102.993H130.929C130.871 102.991 130.814 103 130.76 103.02C130.706 103.041 130.656 103.072 130.615 103.112C130.573 103.152 130.54 103.2 130.517 103.253C130.495 103.306 130.483 103.363 130.483 103.42C130.483 103.478 130.495 103.535 130.517 103.588C130.54 103.641 130.573 103.689 130.615 103.728C130.656 103.768 130.706 103.799 130.76 103.82C130.814 103.84 130.871 103.85 130.929 103.847Z" fill="black"/>
<path d="M130.929 112.457H215.234C215.292 112.46 215.349 112.45 215.403 112.43C215.457 112.409 215.506 112.378 215.548 112.338C215.589 112.299 215.623 112.251 215.645 112.198C215.668 112.145 215.679 112.088 215.679 112.03C215.679 111.973 215.668 111.916 215.645 111.863C215.623 111.81 215.589 111.762 215.548 111.722C215.506 111.682 215.457 111.651 215.403 111.63C215.349 111.61 215.292 111.601 215.234 111.603H130.929C130.871 111.601 130.814 111.61 130.76 111.63C130.706 111.651 130.656 111.682 130.615 111.722C130.573 111.762 130.54 111.81 130.517 111.863C130.495 111.916 130.483 111.973 130.483 112.03C130.483 112.088 130.495 112.145 130.517 112.198C130.54 112.251 130.573 112.299 130.615 112.338C130.656 112.378 130.706 112.409 130.76 112.43C130.814 112.45 130.871 112.46 130.929 112.457Z" fill="black"/>
<path d="M130.929 121.067H215.234C215.292 121.069 215.349 121.06 215.403 121.039C215.457 121.019 215.506 120.988 215.548 120.948C215.589 120.908 215.623 120.86 215.645 120.807C215.668 120.754 215.679 120.697 215.679 120.639C215.679 120.582 215.668 120.525 215.645 120.472C215.623 120.419 215.589 120.371 215.548 120.331C215.506 120.291 215.457 120.26 215.403 120.24C215.349 120.219 215.292 120.21 215.234 120.212H130.929C130.871 120.21 130.814 120.219 130.76 120.24C130.706 120.26 130.656 120.291 130.615 120.331C130.573 120.371 130.54 120.419 130.517 120.472C130.495 120.525 130.483 120.582 130.483 120.639C130.483 120.697 130.495 120.754 130.517 120.807C130.54 120.86 130.573 120.908 130.615 120.948C130.656 120.988 130.706 121.019 130.76 121.039C130.814 121.06 130.871 121.069 130.929 121.067Z" fill="black"/>
<path d="M202.169 128.821H143.993C143.882 128.825 143.777 128.872 143.701 128.952C143.624 129.031 143.581 129.138 143.581 129.248C143.581 129.358 143.624 129.465 143.701 129.544C143.777 129.624 143.882 129.671 143.993 129.675H202.169C202.227 129.678 202.284 129.668 202.338 129.648C202.392 129.627 202.442 129.596 202.483 129.556C202.525 129.516 202.558 129.469 202.581 129.416C202.603 129.363 202.615 129.306 202.615 129.248C202.615 129.19 202.603 129.133 202.581 129.08C202.558 129.027 202.525 128.98 202.483 128.94C202.442 128.9 202.392 128.869 202.338 128.848C202.284 128.828 202.227 128.818 202.169 128.821Z" fill="black"/>
<path d="M84.278 33.4749C84.2635 33.5426 84.2661 33.6129 84.2857 33.6793C84.3052 33.7458 84.341 33.8063 84.3899 33.8555C84.4387 33.9046 84.4991 33.9409 84.5655 33.9609C84.632 33.981 84.7023 33.9842 84.7703 33.9702H87.9497C88.0042 33.9722 88.0583 33.9608 88.1073 33.937L92.3474 32.1786C95.7264 33.6118 97.9422 33.5 101.311 33.5C110.546 33.5 118.063 26.0006 118.063 16.7835C118.063 6.14475 108.253 -0.82399 101.03 0.075224C99.0905 0.0535398 98.7714 0.0365991 98.3028 0.0826779C89.3337 0.393032 82.1281 7.7548 82.1281 16.7835C82.1147 20.4542 83.3227 24.0255 85.5628 26.9371L84.278 33.4749ZM82.9823 16.7862C82.9823 8.03263 90.1126 0.910063 98.8841 0.910063C107.656 0.910063 114.794 8.03263 114.794 16.7862C114.794 28.9585 101.577 36.5473 91.0945 30.6194C91.0377 30.5875 90.9744 30.5689 90.9093 30.565C90.8443 30.5611 90.7792 30.5721 90.719 30.597L85.2762 32.8583L86.4449 26.9121C86.4571 26.8519 86.456 26.7898 86.4417 26.7301C86.4274 26.6705 86.4002 26.6146 86.3621 26.5665C84.1631 23.7796 82.9721 20.3332 82.9823 16.7862Z" fill="black"/>
<path d="M90.5696 19.1396C91.0797 19.1376 91.5779 18.9848 92.001 18.7003C92.4242 18.4159 92.7533 18.0127 92.9469 17.5416C93.1405 17.0706 93.1898 16.5528 93.0885 16.0539C92.9873 15.5549 92.7402 15.097 92.3783 14.7381C92.0164 14.3793 91.556 14.1355 91.0553 14.0377C90.5546 13.9398 90.0361 13.9923 89.5653 14.1884C89.0945 14.3845 88.6925 14.7155 88.4101 15.1396C88.1278 15.5636 87.9777 16.0616 87.9789 16.5708C87.9797 16.9093 88.0474 17.2443 88.1781 17.5566C88.3087 17.869 88.4999 18.1526 88.7405 18.3912C88.9811 18.6298 89.2665 18.8187 89.5803 18.9471C89.8942 19.0756 90.2303 19.141 90.5696 19.1396Z" fill="black"/>
<path d="M98.8875 19.1396C99.3981 19.1396 99.8973 18.9885 100.322 18.7052C100.746 18.422 101.077 18.0195 101.272 17.5486C101.467 17.0778 101.518 16.5597 101.418 16.06C101.318 15.5604 101.071 15.1016 100.71 14.7417C100.348 14.3818 99.8881 14.1371 99.3871 14.0384C98.8862 13.9397 98.3672 13.9916 97.8957 14.1874C97.4243 14.3833 97.0217 14.7142 96.7389 15.1385C96.4561 15.5628 96.3058 16.0612 96.307 16.5707C96.3095 17.2523 96.5824 17.9052 97.066 18.3866C97.5495 18.868 98.2044 19.1387 98.8875 19.1396Z" fill="black"/>
<path d="M107.214 19.1396C107.724 19.1396 108.223 18.9885 108.648 18.7052C109.072 18.422 109.403 18.0195 109.598 17.5486C109.793 17.0778 109.844 16.5597 109.744 16.06C109.644 15.5604 109.398 15.1016 109.036 14.7417C108.675 14.3818 108.214 14.1371 107.713 14.0384C107.212 13.9397 106.693 13.9916 106.222 14.1874C105.75 14.3833 105.348 14.7142 105.065 15.1385C104.782 15.5628 104.632 16.0612 104.633 16.5707C104.636 17.2523 104.908 17.9052 105.392 18.3866C105.876 18.868 106.531 19.1387 107.214 19.1396Z" fill="black"/>
<path d="M213.948 27.7991C225.247 32.4578 221.35 30.8484 222.193 31.1981L224.636 39.4956C224.658 39.581 224.786 40.0499 225.383 39.7179L231.155 34.8911L234.718 36.3589C234.944 36.4341 235.129 36.3629 235.24 36.1963L247.331 17.8935C247.486 17.6868 247.372 17.3372 247.094 17.2524C247.087 17.2524 247.082 17.2457 247.074 17.2436C247.046 17.2375 246.852 17.2477 246.849 17.2484L213.989 26.994C213.573 27.1208 213.621 27.6642 213.948 27.7991ZM234.719 35.4353L225.519 31.6453L225.562 30.9616L225.639 30.9189V30.9107C252.541 14.2011 221.8 33.3041 245.586 18.5203L245.973 18.4051C243.696 21.8441 238.493 29.7235 234.719 35.4353ZM242.728 19.3639L222.192 29.9682C222.101 30.0151 222.031 30.0941 221.995 30.1897L215.395 27.4718L242.728 19.3639Z" fill="black"/>
<path d="M201.667 55.5378C201.687 55.4856 201.697 55.4299 201.696 55.3738C201.695 55.3178 201.682 55.2625 201.66 55.2112C201.637 55.1599 201.604 55.1136 201.564 55.0749C201.523 55.0361 201.475 55.0058 201.423 54.9856C200.65 54.6886 199.91 54.313 199.215 53.8648C199.12 53.8077 199.006 53.7897 198.898 53.8146C198.79 53.8394 198.695 53.9052 198.635 53.998C198.574 54.0908 198.552 54.2035 198.573 54.3122C198.594 54.4209 198.657 54.5173 198.747 54.581C199.493 55.0611 200.286 55.4635 201.113 55.7818C201.166 55.8021 201.222 55.8119 201.278 55.8107C201.334 55.8094 201.389 55.7971 201.441 55.7744C201.492 55.7518 201.539 55.7192 201.577 55.6786C201.616 55.638 201.647 55.5902 201.667 55.5378Z" fill="black"/>
<path d="M200.455 61.4834C201.322 61.3128 202.172 61.0605 202.991 60.7298C203.096 60.6871 203.18 60.6044 203.224 60.5C203.268 60.3956 203.268 60.278 203.226 60.1732C203.183 60.0683 203.1 59.9847 202.995 59.9408C202.891 59.8969 202.773 59.8963 202.668 59.939C201.899 60.2484 201.104 60.485 200.291 60.6458C200.18 60.6679 200.082 60.7332 200.019 60.8274C199.956 60.9216 199.933 61.0369 199.955 61.1479C199.977 61.259 200.042 61.3567 200.137 61.4196C200.231 61.4825 200.347 61.5055 200.458 61.4834H200.455Z" fill="black"/>
<path d="M201.738 41.7522C201.734 41.8654 201.775 41.9757 201.852 42.0589C201.929 42.1421 202.036 42.1914 202.15 42.196C202.957 42.2314 203.752 42.408 204.498 42.7178C204.551 42.739 204.606 42.7499 204.663 42.7496C204.719 42.7494 204.775 42.7381 204.826 42.7164C204.878 42.6947 204.925 42.663 204.965 42.6231C205.005 42.5832 205.036 42.536 205.057 42.484C205.079 42.432 205.09 42.3764 205.089 42.3202C205.089 42.2641 205.078 42.2085 205.056 42.1567C205.034 42.1049 205.002 42.0579 204.962 42.0184C204.923 41.9789 204.875 41.9476 204.823 41.9263C203.984 41.5796 203.09 41.3817 202.183 41.3415C202.07 41.3404 201.961 41.3823 201.879 41.4586C201.796 41.535 201.746 41.64 201.738 41.7522Z" fill="black"/>
<path d="M194.829 61.2326C194.818 61.3454 194.853 61.4578 194.925 61.545C194.998 61.6323 195.102 61.6873 195.215 61.6982C196.086 61.7817 196.962 61.8094 197.836 61.7808C197.95 61.7768 198.057 61.7279 198.134 61.6449C198.212 61.5619 198.253 61.4516 198.249 61.3383C198.243 61.226 198.193 61.1205 198.11 61.0437C198.028 60.967 197.919 60.9249 197.806 60.9263C196.968 60.9541 196.129 60.9276 195.294 60.8471C195.182 60.841 195.072 60.8773 194.985 60.9488C194.899 61.0203 194.843 61.1217 194.829 61.2326Z" fill="black"/>
<path d="M203.317 55.9952C203.296 56.1067 203.321 56.2218 203.386 56.3151C203.45 56.4085 203.549 56.4725 203.66 56.4933C204.523 56.6515 205.396 56.7482 206.273 56.7826H206.29C206.401 56.7809 206.507 56.7362 206.586 56.6579C206.664 56.5797 206.709 56.474 206.711 56.3632C206.714 56.2524 206.672 56.1452 206.597 56.064C206.521 55.9828 206.417 55.9341 206.306 55.9281C205.471 55.8957 204.638 55.8038 203.816 55.653C203.761 55.6422 203.704 55.6425 203.648 55.6539C203.593 55.6653 203.541 55.6876 203.494 55.7194C203.448 55.7513 203.408 55.7921 203.378 55.8395C203.347 55.8868 203.327 55.9398 203.317 55.9952Z" fill="black"/>
<path d="M199.797 42.57C199.9 42.5284 199.983 42.448 200.029 42.346C200.074 42.244 200.077 42.1284 200.038 42.0239C199.999 41.9194 199.921 41.8343 199.82 41.7867C199.718 41.7391 199.603 41.7328 199.497 41.7691C198.645 42.0915 197.858 42.5643 197.174 43.165C197.089 43.2399 197.037 43.3454 197.03 43.4584C197.022 43.5715 197.06 43.6828 197.135 43.7681C197.623 44.317 197.899 43.2782 199.797 42.57Z" fill="black"/>
<path d="M206.652 57.095C206.104 57.7119 205.489 58.2664 204.818 58.7484C204.731 58.8164 204.673 58.9154 204.657 59.0249C204.642 59.1343 204.669 59.2455 204.734 59.3353C204.798 59.4251 204.895 59.4864 205.004 59.5063C205.113 59.5263 205.226 59.5033 205.318 59.4423C206.038 58.9232 206.698 58.3264 207.287 57.6629C207.327 57.6212 207.357 57.5722 207.377 57.5186C207.397 57.465 207.406 57.408 207.403 57.3509C207.4 57.2939 207.386 57.2379 207.362 57.1864C207.337 57.1348 207.302 57.0887 207.259 57.0507C207.217 57.0128 207.167 56.9838 207.113 56.9654C207.058 56.9471 207.001 56.9398 206.944 56.9439C206.887 56.948 206.831 56.9635 206.78 56.9895C206.729 57.0154 206.684 57.0513 206.647 57.095H206.652Z" fill="black"/>
<path d="M208.855 56.7054C208.868 56.7054 208.884 56.7054 208.898 56.7054C209.77 56.6184 210.634 56.4721 211.486 56.2676C211.541 56.2543 211.592 56.2303 211.638 56.1971C211.683 56.1639 211.721 56.1221 211.751 56.0741C211.78 56.0261 211.799 55.9728 211.808 55.9173C211.816 55.8618 211.814 55.8052 211.801 55.7506C211.787 55.6961 211.763 55.6447 211.73 55.5994C211.697 55.5541 211.655 55.5158 211.607 55.4867C211.558 55.4575 211.505 55.4381 211.449 55.4296C211.394 55.421 211.337 55.4235 211.282 55.4369C210.469 55.6324 209.643 55.7723 208.81 55.8556C208.274 55.9044 208.318 56.7054 208.855 56.7054Z" fill="black"/>
<path d="M197.338 52.292C196.788 51.7017 196.347 51.0187 196.037 50.2747C196.016 50.2224 195.985 50.1747 195.945 50.1344C195.906 50.0941 195.859 50.062 195.807 50.0399C195.755 50.0179 195.699 50.0063 195.643 50.0058C195.586 50.0054 195.53 50.0161 195.478 50.0373C195.426 50.0585 195.378 50.0899 195.338 50.1296C195.298 50.1692 195.266 50.2164 195.244 50.2684C195.223 50.3204 195.211 50.3761 195.211 50.4325C195.211 50.4888 195.222 50.5446 195.244 50.5966C195.593 51.4336 196.087 52.2026 196.704 52.868C197.077 53.2807 197.721 52.7155 197.338 52.292Z" fill="black"/>
<path d="M209.452 50.4095C209.45 50.5229 209.492 50.6327 209.57 50.7149C209.649 50.7971 209.756 50.845 209.87 50.848H209.881C209.992 50.8478 210.1 50.8042 210.18 50.7264C210.259 50.6485 210.306 50.5426 210.309 50.4312C210.337 49.5347 210.235 48.6387 210.005 47.7715C209.976 47.662 209.904 47.5686 209.805 47.512C209.707 47.4554 209.59 47.4402 209.48 47.4696C209.37 47.4991 209.276 47.5709 209.22 47.6692C209.163 47.7675 209.148 47.8843 209.177 47.9938C209.387 48.7813 209.479 49.5952 209.452 50.4095Z" fill="black"/>
<path d="M213.991 55.4795C214.808 55.16 215.6 54.783 216.363 54.3513C216.462 54.2955 216.535 54.2027 216.566 54.0934C216.596 53.984 216.582 53.867 216.526 53.7682C216.47 53.6693 216.377 53.5967 216.267 53.5663C216.158 53.5359 216.041 53.5501 215.941 53.6059C215.214 54.0183 214.458 54.3788 213.679 54.6847C213.575 54.7273 213.492 54.809 213.447 54.9121C213.403 55.0153 213.401 55.1317 213.442 55.2361C213.483 55.3406 213.564 55.4248 213.667 55.4706C213.769 55.5164 213.886 55.5201 213.991 55.4809V55.4795Z" fill="black"/>
<path d="M208.193 45.7827C208.254 45.8777 208.352 45.9442 208.463 45.9677C208.574 45.9912 208.69 45.9698 208.785 45.908C208.88 45.8463 208.947 45.7494 208.97 45.6386C208.994 45.5277 208.972 45.4121 208.91 45.3171C208.419 44.5641 207.817 43.889 207.124 43.3141C207.037 43.2415 206.925 43.2064 206.812 43.2166C206.699 43.2267 206.594 43.2813 206.521 43.3683C206.449 43.4553 206.414 43.5675 206.424 43.6804C206.434 43.7932 206.489 43.8974 206.576 43.97C207.203 44.49 207.748 45.1011 208.193 45.7827Z" fill="black"/>
<path d="M208.835 55.5053C209.273 54.7336 209.622 53.9154 209.876 53.0658C209.892 53.0121 209.897 52.9557 209.891 52.8999C209.885 52.8441 209.868 52.79 209.841 52.7408C209.815 52.6915 209.778 52.648 209.735 52.6127C209.691 52.5775 209.641 52.5511 209.587 52.5353C209.533 52.5194 209.476 52.5142 209.42 52.5202C209.365 52.5261 209.31 52.5429 209.261 52.5697C209.212 52.5965 209.168 52.6328 209.133 52.6764C209.097 52.72 209.071 52.7701 209.055 52.8239C208.819 53.6128 208.495 54.3726 208.089 55.0892C207.809 55.5819 208.559 55.9959 208.835 55.5053Z" fill="black"/>
<path d="M225.083 41.5082C224.972 41.4861 224.857 41.5082 224.762 41.5697C224.667 41.6312 224.6 41.7273 224.575 41.8375C224.399 42.6529 224.165 43.4547 223.875 44.237C223.678 44.7703 224.482 45.063 224.678 44.5345C224.982 43.7124 225.228 42.8698 225.412 42.013C225.435 41.9026 225.413 41.7876 225.352 41.6931C225.29 41.5985 225.194 41.5321 225.083 41.5082Z" fill="black"/>
<path d="M192.799 60.4784C192.426 60.4039 192.055 60.3226 191.686 60.2345C191.631 60.2204 191.574 60.2175 191.518 60.2259C191.462 60.2343 191.409 60.2539 191.36 60.2834C191.312 60.3129 191.271 60.3518 191.238 60.3978C191.205 60.4438 191.182 60.4958 191.17 60.5509C191.157 60.6055 191.155 60.6621 191.163 60.7174C191.172 60.7728 191.192 60.8259 191.221 60.8737C191.251 60.9214 191.29 60.9629 191.335 60.9958C191.381 61.0287 191.432 61.0523 191.487 61.0653C192.152 61.2238 193.017 61.5809 193.135 60.9805C193.146 60.9256 193.146 60.8689 193.135 60.8139C193.124 60.7589 193.102 60.7066 193.071 60.66C193.04 60.6134 193 60.5733 192.953 60.5422C192.906 60.511 192.854 60.4894 192.799 60.4784Z" fill="black"/>
<path d="M219.888 50.5511C219.306 51.1513 218.683 51.7101 218.023 52.2235C217.575 52.5718 218.106 53.24 218.55 52.9012C219.241 52.3633 219.894 51.7778 220.503 51.1488C220.582 51.0674 220.625 50.958 220.623 50.8447C220.621 50.7314 220.575 50.6235 220.493 50.5447C220.411 50.4659 220.302 50.4227 220.188 50.4245C220.075 50.4264 219.967 50.4731 219.888 50.5545V50.5511Z" fill="black"/>
<path d="M222.84 46.5166C222.443 47.2518 221.996 47.9593 221.502 48.6341C221.17 49.0909 221.857 49.5943 222.195 49.1376C222.711 48.4312 223.178 47.6912 223.595 46.9225C223.649 46.8226 223.661 46.7055 223.628 46.5967C223.596 46.488 223.521 46.3967 223.421 46.3427C223.321 46.2888 223.204 46.2768 223.095 46.3092C222.986 46.3417 222.894 46.416 222.84 46.5159V46.5166Z" fill="black"/>
<path d="M195.174 48.359C195.181 48.3597 195.187 48.3597 195.194 48.359C195.304 48.359 195.409 48.3167 195.489 48.241C195.568 48.1653 195.616 48.062 195.621 47.9525C195.661 47.1584 195.876 46.3829 196.252 45.6817C196.304 45.5812 196.315 45.4639 196.281 45.3557C196.247 45.2475 196.171 45.1572 196.07 45.1047C195.969 45.0522 195.852 45.0418 195.743 45.0758C195.635 45.1098 195.545 45.1854 195.492 45.286C195.059 46.0982 194.812 46.9957 194.767 47.9145C194.764 47.9704 194.772 48.0263 194.792 48.079C194.811 48.1316 194.84 48.18 194.878 48.2213C194.916 48.2626 194.961 48.296 195.012 48.3197C195.063 48.3433 195.118 48.3567 195.174 48.359Z" fill="black"/>
<path d="M123.042 69.2232C123.042 63.5745 118.443 58.9863 112.792 58.9863C107.141 58.9863 102.533 63.5745 102.533 69.2232C102.533 74.872 107.132 79.4514 112.792 79.4514C118.452 79.4514 123.042 74.8625 123.042 69.2232ZM115.207 73.6407H110.463C110.377 73.6442 110.292 73.6299 110.213 73.5989C110.133 73.5679 110.061 73.5208 110.001 73.4606C109.94 73.4004 109.893 73.3283 109.862 73.249C109.831 73.1697 109.817 73.0848 109.82 72.9997C109.82 72.6338 110.076 72.3417 110.463 72.3417H112.287V66.4199L110.719 67.1809C109.756 67.601 109.331 66.386 110.108 65.9842L112.198 64.9C112.796 64.6011 113.679 64.8051 113.679 65.5322V72.3424H115.203C115.29 72.3416 115.376 72.3582 115.456 72.391C115.537 72.4238 115.61 72.4722 115.671 72.5335C115.732 72.5947 115.781 72.6675 115.814 72.7477C115.847 72.8279 115.863 72.9137 115.863 73.0004C115.863 73.0857 115.846 73.1702 115.813 73.249C115.78 73.3277 115.731 73.399 115.67 73.4587C115.609 73.5184 115.536 73.5652 115.457 73.5965C115.377 73.6278 115.292 73.6428 115.207 73.6407Z" fill="black"/>
<path d="M26.2121 68.467C26.1635 68.4386 26.1098 68.4201 26.054 68.4125C25.9982 68.4049 25.9414 68.4085 25.887 68.4229C25.8326 68.4373 25.7816 68.4624 25.7369 68.4966C25.6922 68.5308 25.6548 68.5735 25.6267 68.6222L24.6631 70.277C24.6327 70.3256 24.6124 70.3798 24.6034 70.4364C24.5944 70.493 24.5969 70.5509 24.6107 70.6065C24.6246 70.6621 24.6495 70.7144 24.684 70.7602C24.7185 70.8061 24.7619 70.8445 24.8116 70.8733C24.8612 70.902 24.9162 70.9205 24.9732 70.9277C25.0302 70.9348 25.088 70.9304 25.1433 70.9148C25.1986 70.8992 25.2501 70.8727 25.2949 70.8368C25.3397 70.8009 25.3768 70.7564 25.404 70.7059L26.3696 69.0504C26.4262 68.9522 26.4414 68.8356 26.4118 68.7262C26.3823 68.6168 26.3104 68.5236 26.2121 68.467Z" fill="black"/>
<path d="M108.413 131.325C108.299 131.325 108.191 131.37 108.11 131.45C108.03 131.53 107.985 131.638 107.985 131.751V174.374C107.989 174.485 108.036 174.589 108.116 174.666C108.196 174.742 108.302 174.785 108.413 174.785C108.524 174.785 108.63 174.742 108.71 174.666C108.79 174.589 108.837 174.485 108.841 174.374V131.751C108.841 131.695 108.83 131.64 108.809 131.588C108.787 131.536 108.756 131.489 108.716 131.449C108.676 131.41 108.629 131.378 108.577 131.357C108.525 131.335 108.469 131.324 108.413 131.325Z" fill="black"/>
<path d="M236.758 130.86C236.701 130.86 236.646 130.871 236.594 130.892C236.542 130.914 236.495 130.945 236.455 130.985C236.415 131.024 236.384 131.071 236.362 131.123C236.341 131.175 236.33 131.231 236.33 131.287V173.91C236.334 174.02 236.381 174.124 236.461 174.201C236.541 174.277 236.647 174.32 236.758 174.32C236.869 174.32 236.975 174.277 237.055 174.201C237.135 174.124 237.182 174.02 237.186 173.91V131.287C237.186 131.231 237.175 131.175 237.154 131.123C237.132 131.071 237.1 131.024 237.061 130.985C237.021 130.945 236.974 130.913 236.922 130.892C236.87 130.871 236.814 130.86 236.758 130.86Z" fill="black"/>
<path d="M156.958 26.576C157.004 26.6088 157.055 26.6323 157.11 26.6453C157.165 26.6582 157.221 26.6603 157.277 26.6513C157.332 26.6424 157.386 26.6227 157.433 26.5932C157.481 26.5638 157.523 26.5252 157.556 26.4797C157.589 26.4343 157.612 26.3828 157.625 26.3282C157.638 26.2736 157.64 26.217 157.631 26.1616C157.622 26.1063 157.603 26.0532 157.573 26.0055C157.544 25.9577 157.505 25.9163 157.459 25.8834L154.38 23.6642C154.288 23.6025 154.176 23.579 154.066 23.5985C153.957 23.6181 153.86 23.6791 153.795 23.7689C153.73 23.8586 153.702 23.97 153.718 24.0797C153.733 24.1893 153.791 24.2887 153.879 24.3567L156.958 26.576Z" fill="black"/>
<path d="M141.409 45.082C141.714 45.159 142.034 45.1556 142.337 45.0722C142.64 44.9888 142.916 44.8282 143.138 44.6062C143.361 44.3842 143.521 44.1085 143.604 43.8059C143.688 43.5034 143.691 43.1844 143.613 42.8804C143.534 42.5661 143.371 42.2791 143.141 42.0499C142.912 41.8208 142.624 41.6582 142.309 41.5793C141.844 41.4603 141.35 41.5306 140.936 41.7748C140.732 41.8958 140.553 42.0558 140.41 42.2457C140.267 42.4356 140.163 42.6518 140.104 42.8817C140.045 43.1117 140.032 43.3511 140.066 43.5861C140.099 43.8212 140.179 44.0473 140.3 44.2516C140.545 44.6642 140.944 44.9629 141.409 45.082Z" fill="black"/>
<path d="M201.344 6.61706C201.39 6.65236 201.442 6.67817 201.497 6.69295C201.553 6.70773 201.611 6.71117 201.668 6.70307C201.725 6.69497 201.78 6.6755 201.829 6.64582C201.878 6.61613 201.921 6.57685 201.955 6.5303C201.988 6.48376 202.012 6.43091 202.025 6.37491C202.038 6.31891 202.039 6.26091 202.029 6.20437C202.019 6.14783 201.998 6.09391 201.966 6.04583C201.935 5.99775 201.894 5.95649 201.846 5.92452L198.768 3.70664C198.722 3.67134 198.67 3.64553 198.615 3.63076C198.559 3.61598 198.501 3.61254 198.444 3.62063C198.387 3.62873 198.332 3.6482 198.283 3.67789C198.234 3.70757 198.191 3.74686 198.157 3.7934C198.123 3.83995 198.099 3.8928 198.087 3.9488C198.074 4.0048 198.072 4.0628 198.083 4.11933C198.093 4.17587 198.114 4.22979 198.146 4.27787C198.177 4.32595 198.218 4.36721 198.266 4.39918L201.344 6.61706Z" fill="black"/>
<path d="M188.788 27.3653C190.09 26.2883 191.508 25.3586 193.016 24.5932C193.117 24.5419 193.194 24.4525 193.229 24.3446C193.265 24.2368 193.255 24.1194 193.204 24.0182C193.153 23.917 193.063 23.8404 192.955 23.8051C192.847 23.7698 192.729 23.7788 192.628 23.8302C191.064 24.6244 189.593 25.5889 188.242 26.706C188.195 26.7403 188.155 26.7838 188.125 26.834C188.096 26.8841 188.076 26.9399 188.069 26.9978C188.061 27.0556 188.066 27.1144 188.082 27.1705C188.098 27.2265 188.126 27.2787 188.163 27.3238C188.2 27.3689 188.246 27.4059 188.298 27.4325C188.35 27.4592 188.407 27.475 188.465 27.4789C188.524 27.4828 188.582 27.4747 188.637 27.4552C188.692 27.4356 188.743 27.4051 188.786 27.3653H188.788Z" fill="black"/>
<path d="M224.967 16.9496C225.325 16.9493 225.674 16.8432 225.972 16.6447C226.269 16.4461 226.501 16.1641 226.638 15.8341C226.775 15.5042 226.81 15.1412 226.74 14.791C226.671 14.4409 226.498 14.1192 226.245 13.8667C225.992 13.6143 225.67 13.4423 225.319 13.3726C224.968 13.3028 224.604 13.3385 224.274 13.475C223.943 13.6115 223.66 13.8428 223.461 14.1395C223.262 14.4363 223.156 14.7853 223.156 15.1423C223.156 15.3797 223.202 15.6148 223.293 15.8341C223.384 16.0535 223.518 16.2528 223.686 16.4206C223.854 16.5885 224.054 16.7216 224.274 16.8124C224.493 16.9031 224.729 16.9497 224.967 16.9496Z" fill="black"/>
<path d="M257.3 103.565C257.657 103.565 258.007 103.459 258.305 103.26C258.602 103.062 258.834 102.78 258.971 102.45C259.108 102.12 259.144 101.757 259.074 101.406C259.004 101.056 258.832 100.734 258.579 100.482C258.325 100.229 258.003 100.057 257.652 99.9878C257.301 99.9181 256.937 99.9538 256.607 100.09C256.276 100.227 255.993 100.458 255.794 100.755C255.595 101.052 255.489 101.401 255.489 101.758C255.489 101.996 255.536 102.231 255.627 102.45C255.717 102.669 255.851 102.868 256.019 103.036C256.187 103.204 256.387 103.337 256.607 103.428C256.826 103.518 257.062 103.565 257.3 103.565Z" fill="black"/>
<path d="M83.8427 113.407C83.8881 113.442 83.9402 113.468 83.9958 113.483C84.0514 113.497 84.1095 113.501 84.1664 113.493C84.2234 113.485 84.2782 113.465 84.3275 113.435C84.3768 113.406 84.4195 113.366 84.4533 113.32C84.487 113.273 84.511 113.221 84.5238 113.165C84.5366 113.109 84.538 113.051 84.5278 112.994C84.5177 112.937 84.4962 112.884 84.4647 112.835C84.4332 112.787 84.3924 112.746 84.3445 112.714L81.2656 110.496C81.2202 110.461 81.1681 110.435 81.1125 110.42C81.0569 110.406 80.9989 110.402 80.9419 110.41C80.8849 110.418 80.8301 110.438 80.7808 110.468C80.7316 110.497 80.6888 110.536 80.6551 110.583C80.6213 110.63 80.5973 110.682 80.5845 110.738C80.5717 110.794 80.5704 110.852 80.5805 110.909C80.5907 110.966 80.6121 111.019 80.6436 111.068C80.6751 111.116 80.716 111.157 80.7638 111.189L83.8427 113.407Z" fill="black"/>
<path d="M71.0042 132.172C70.6195 132.073 70.2129 132.103 69.8471 132.258C69.4813 132.412 69.1765 132.682 68.9796 133.027C68.7828 133.371 68.7048 133.77 68.7576 134.163C68.8105 134.556 68.9913 134.921 69.2722 135.201C69.5531 135.481 69.9185 135.662 70.3122 135.714C70.7059 135.767 71.1061 135.689 71.4511 135.493C71.7961 135.297 72.0669 134.992 72.2217 134.627C72.3766 134.262 72.4069 133.857 72.308 133.473C72.2289 133.158 72.0659 132.871 71.8363 132.642C71.6067 132.413 71.3191 132.251 71.0042 132.172Z" fill="black"/>
<path d="M101.596 97.1646C101.595 96.8074 101.489 96.4584 101.29 96.1615C101.091 95.8647 100.808 95.6335 100.477 95.497C100.146 95.3606 99.7825 95.3251 99.4315 95.395C99.0805 95.465 98.7582 95.6372 98.5053 95.89C98.2524 96.1427 98.0803 96.4646 98.0107 96.815C97.9411 97.1653 97.9772 97.5284 98.1145 97.8583C98.2517 98.1882 98.4838 98.47 98.7816 98.6683C99.0794 98.8665 99.4293 98.9721 99.7873 98.9718C100.025 98.972 100.26 98.9254 100.48 98.8346C100.7 98.7438 100.899 98.6106 101.067 98.4427C101.235 98.2749 101.368 98.0755 101.459 97.8562C101.55 97.6369 101.596 97.4019 101.596 97.1646Z" fill="black"/>
<path d="M271.825 132.232C272.183 132.232 272.533 132.126 272.83 131.927C273.128 131.729 273.359 131.447 273.496 131.117C273.633 130.787 273.669 130.424 273.599 130.074C273.529 129.723 273.357 129.402 273.104 129.149C272.851 128.897 272.528 128.725 272.177 128.655C271.826 128.585 271.463 128.621 271.132 128.757C270.801 128.894 270.519 129.125 270.32 129.422C270.121 129.719 270.015 130.068 270.014 130.425C270.014 130.663 270.061 130.898 270.152 131.117C270.243 131.336 270.376 131.535 270.544 131.703C270.712 131.871 270.912 132.004 271.132 132.095C271.352 132.185 271.587 132.232 271.825 132.232Z" fill="black"/>
<path d="M15.1249 42.1404C15.5098 42.2387 15.9163 42.2081 16.282 42.0533C16.6477 41.8985 16.9523 41.6282 17.1489 41.2838C17.3456 40.9394 17.4235 40.54 17.3705 40.1472C17.3175 39.7543 17.1367 39.3897 16.8558 39.1094C16.575 38.8291 16.2096 38.6487 15.8159 38.5959C15.4222 38.543 15.022 38.6207 14.6769 38.8169C14.3318 39.0132 14.0608 39.3172 13.9057 39.6821C13.7506 40.047 13.7199 40.4527 13.8184 40.8367C13.8992 41.1508 14.0631 41.4375 14.293 41.6669C14.5228 41.8962 14.8101 42.0598 15.1249 42.1404Z" fill="black"/>
<path d="M62.0738 5.33769C62.4316 5.33755 62.7814 5.23154 63.0789 5.03306C63.3764 4.83457 63.6083 4.55253 63.7452 4.22257C63.8821 3.89262 63.9179 3.52957 63.848 3.17933C63.7782 2.82908 63.6058 2.50737 63.3528 2.25485C63.0997 2.00234 62.7773 1.83036 62.4263 1.76066C62.0753 1.69095 61.7115 1.72666 61.3809 1.86326C61.0502 1.99986 60.7675 2.23122 60.5686 2.52809C60.3697 2.82496 60.2635 3.17401 60.2634 3.53113C60.2633 3.76839 60.31 4.00335 60.401 4.22257C60.4919 4.44179 60.6253 4.64098 60.7934 4.80876C60.9616 4.97653 61.1612 5.1096 61.3809 5.20035C61.6005 5.29111 61.836 5.33778 62.0738 5.33769Z" fill="black"/>
<path d="M61.2419 71.1165C62.544 70.0396 63.9615 69.1097 65.4684 68.3437C65.5696 68.2923 65.6461 68.2029 65.6812 68.0952C65.7163 67.9875 65.707 67.8703 65.6555 67.7694C65.604 67.6685 65.5144 67.5921 65.4065 67.5571C65.2986 67.5221 65.1811 67.5313 65.08 67.5827C63.5164 68.3768 62.0458 69.3416 60.6953 70.4592C60.652 70.495 60.6162 70.539 60.59 70.5886C60.5638 70.6382 60.5476 70.6925 60.5424 70.7483C60.5372 70.8042 60.5431 70.8605 60.5597 70.9141C60.5763 70.9677 60.6033 71.0175 60.6392 71.0606C60.6751 71.1038 60.7192 71.1395 60.7689 71.1656C60.8186 71.1918 60.873 71.2079 60.929 71.2131C60.9849 71.2183 61.0414 71.2125 61.0951 71.1959C61.1488 71.1793 61.1987 71.1523 61.2419 71.1165Z" fill="black"/>
<path d="M273.905 85.3135C274.641 84.706 275.413 84.1443 276.218 83.6317C276.309 83.5688 276.372 83.4731 276.394 83.3647C276.416 83.2563 276.395 83.1435 276.336 83.0502C276.276 82.9568 276.183 82.8902 276.075 82.8641C275.967 82.8381 275.854 82.8548 275.758 82.9107C274.924 83.4426 274.123 84.0249 273.36 84.6542C273.28 84.7284 273.232 84.8301 273.224 84.9388C273.217 85.0474 273.252 85.1548 273.321 85.2389C273.39 85.323 273.489 85.3775 273.597 85.3914C273.706 85.4053 273.815 85.3774 273.903 85.3135H273.905Z" fill="black"/>
<path d="M265.319 56.7467C265.411 56.809 265.524 56.8329 265.634 56.8135C265.743 56.7941 265.841 56.7328 265.906 56.6427C265.971 56.5525 265.999 56.4406 265.983 56.3306C265.967 56.2206 265.908 56.1212 265.82 56.0535L262.741 53.8349C262.649 53.7733 262.536 53.7498 262.427 53.7693C262.318 53.7888 262.22 53.8499 262.155 53.9396C262.09 54.0294 262.063 54.1408 262.078 54.2505C262.094 54.3601 262.152 54.4594 262.239 54.5275L265.319 56.7467Z" fill="black"/>
<path d="M247.488 77.4361C247.56 77.5233 247.664 77.5784 247.777 77.5892C247.89 77.6 248.003 77.5656 248.091 77.4937C249.393 76.4165 250.811 75.4868 252.319 74.7215C252.42 74.6701 252.497 74.5806 252.532 74.4727C252.567 74.3649 252.558 74.2474 252.507 74.1462C252.455 74.045 252.366 73.9684 252.257 73.9332C252.149 73.898 252.032 73.9071 251.93 73.9585C250.367 74.7527 248.896 75.7172 247.545 76.8344C247.502 76.8701 247.466 76.914 247.44 76.9635C247.413 77.0131 247.397 77.0674 247.391 77.1233C247.386 77.1792 247.392 77.2356 247.408 77.2893C247.425 77.3429 247.452 77.3928 247.488 77.4361Z" fill="black"/>
<path d="M133.272 18.7534C133.731 19.0854 134.233 18.3909 133.774 18.0609L130.695 15.8423C130.603 15.7807 130.49 15.7571 130.381 15.7767C130.272 15.7962 130.174 15.8573 130.109 15.947C130.044 16.0367 130.017 16.1482 130.032 16.2578C130.048 16.3675 130.106 16.4668 130.193 16.5348L133.272 18.7534Z" fill="black"/>
<path d="M35.8549 13.7918C35.9471 13.8534 36.0597 13.877 36.1689 13.8575C36.2782 13.8379 36.3756 13.7769 36.4406 13.6871C36.5056 13.5974 36.5332 13.4859 36.5176 13.3763C36.5019 13.2666 36.4443 13.1673 36.3567 13.0993L33.2744 10.8807C33.2289 10.8479 33.1772 10.8243 33.1226 10.8114C33.0679 10.7984 33.0112 10.7964 32.9557 10.8053C32.9002 10.8143 32.847 10.834 32.7991 10.8635C32.7513 10.8929 32.7097 10.9315 32.6768 10.9769C32.6439 11.0224 32.6203 11.0739 32.6074 11.1285C32.5944 11.1831 32.5923 11.2396 32.6013 11.295C32.6102 11.3504 32.63 11.4035 32.6595 11.4512C32.6891 11.4989 32.7277 11.5404 32.7733 11.5732L35.8549 13.7918Z" fill="black"/>
</g>
<defs>
<clipPath id="clip0_16_291">
<rect width="292" height="206" fill="white"/>
</clipPath>
</defs>
</svg>
