<svg width="161" height="34" viewBox="0 0 161 34" fill="none" xmlns="http://www.w3.org/2000/svg">
<g clip-path="url(#clip0_16_239)">
<path d="M56.8405 19.5829L55.8808 22.2713H55.8008C55.6409 21.6651 55.3476 20.7426 54.8678 19.6357L49.7226 6.85271H44.6842V27.2264H48.0165V14.6543C48.0165 13.8636 48.0165 12.9674 47.9898 11.8605C47.9632 11.307 47.9099 10.8853 47.8832 10.569H47.9632C48.1231 11.3597 48.3097 11.9395 48.443 12.3085L54.6278 27.1736H56.9738L63.1053 12.1767C63.2386 11.8341 63.3719 11.1488 63.5051 10.569H63.5851C63.5051 12.0713 63.4518 13.4155 63.4252 14.2326V27.1473H66.9708V6.79999H62.1189L56.8405 19.5829ZM70.3297 12.5457H73.7954V27.1473H70.3297V12.5457ZM72.0892 6.37829C71.5027 6.37829 71.0229 6.58914 70.623 6.95813C70.2231 7.32713 70.0098 7.80154 70.0098 8.38139C70.0098 8.93488 70.2231 9.4093 70.623 9.77829C71.0229 10.1473 71.5027 10.3318 72.0892 10.3318C72.6757 10.3318 73.1822 10.1209 73.5554 9.77829C73.9553 9.4093 74.1686 8.93488 74.1686 8.38139C74.1686 7.8279 73.9553 7.35348 73.5554 6.95813C73.2089 6.58914 72.7024 6.37829 72.0892 6.37829ZM86.085 12.4139C85.4452 12.2822 84.7787 12.2031 84.1389 12.2031C82.5661 12.2031 81.1265 12.5457 79.9268 13.231C78.7272 13.9163 77.7675 14.8651 77.1544 16.0512C76.5145 17.2636 76.1946 18.6605 76.1946 20.2682C76.1946 21.6651 76.5145 22.9039 77.1277 24.0372C77.7408 25.1442 78.5939 26.0403 79.7402 26.6465C80.8332 27.2527 82.1129 27.569 83.5524 27.569C85.2053 27.569 86.6182 27.2263 87.7378 26.5938L87.7645 26.5674V23.4046L87.6312 23.5101C87.1247 23.8791 86.5382 24.1953 85.9517 24.3798C85.3385 24.5907 84.7787 24.6961 84.2989 24.6961C82.9126 24.6961 81.8196 24.3008 81.0465 23.431C80.2468 22.5876 79.8469 21.4279 79.8469 19.9783C79.8469 18.476 80.2468 17.2899 81.0732 16.4201C81.8996 15.5504 82.9926 15.1023 84.3255 15.1023C85.4452 15.1023 86.5915 15.4713 87.6312 16.2093L87.7645 16.3147V12.9674L87.7378 12.9411C87.2846 12.7566 86.7781 12.5457 86.085 12.4139ZM97.5215 12.3085C96.6685 12.3085 95.8687 12.5721 95.1756 13.1256C94.5891 13.6 94.1892 14.2853 93.8426 15.1023H93.816V12.5457H90.3504V27.1473H93.816V19.6884C93.816 18.4232 94.0826 17.369 94.6691 16.6046C95.2556 15.8139 96.002 15.4186 96.9084 15.4186C97.2283 15.4186 97.5482 15.4977 97.9481 15.5504C98.3213 15.6558 98.5879 15.7612 98.7745 15.893L98.9078 15.9984V12.5721L98.8278 12.5457C98.5879 12.3876 98.108 12.3085 97.5215 12.3085ZM106.959 12.2295C104.533 12.2295 102.587 12.9411 101.227 14.338C99.8408 15.7349 99.1744 17.6589 99.1744 20.0837C99.1744 22.3504 99.8675 24.1953 101.2 25.5395C102.533 26.8574 104.346 27.5426 106.612 27.5426C108.985 27.5426 110.877 26.831 112.237 25.4077C113.623 23.9845 114.29 22.0868 114.29 19.7411C114.29 17.4217 113.65 15.5767 112.344 14.2326C111.091 12.8884 109.251 12.2295 106.959 12.2295ZM109.731 23.4574C109.091 24.2744 108.078 24.6698 106.825 24.6698C105.572 24.6698 104.559 24.2744 103.84 23.4046C103.12 22.5876 102.773 21.4015 102.773 19.8992C102.773 18.3442 103.146 17.1581 103.84 16.3147C104.559 15.4713 105.546 15.0496 106.799 15.0496C108.025 15.0496 108.985 15.445 109.678 16.262C110.371 17.0791 110.744 18.2651 110.744 19.8201C110.691 21.4015 110.398 22.6403 109.731 23.4574ZM122.021 18.6077C120.928 18.1597 120.235 17.817 119.915 17.5271C119.648 17.2636 119.515 16.8946 119.515 16.4201C119.515 16.0248 119.675 15.6294 120.075 15.3659C120.475 15.1023 120.928 14.9705 121.594 14.9705C122.181 14.9705 122.794 15.076 123.38 15.2341C123.967 15.3922 124.5 15.6295 124.927 15.9457L125.06 16.0512V12.8357L124.98 12.8093C124.58 12.6512 124.047 12.493 123.407 12.3612C122.767 12.2558 122.181 12.2031 121.701 12.2031C120.048 12.2031 118.688 12.5984 117.622 13.4682C116.556 14.2853 116.049 15.3922 116.049 16.6837C116.049 17.369 116.156 17.9752 116.396 18.476C116.636 18.9767 116.982 19.4512 117.462 19.8465C117.942 20.2155 118.635 20.6372 119.595 21.0326C120.395 21.3752 121.008 21.6388 121.381 21.8496C121.754 22.0605 121.994 22.2977 122.181 22.4822C122.314 22.693 122.394 22.9566 122.394 23.2992C122.394 24.2744 121.648 24.7488 120.128 24.7488C119.542 24.7488 118.928 24.6434 118.209 24.4062C117.489 24.169 116.822 23.8263 116.263 23.431L116.129 23.3256V26.6729L116.209 26.6992C116.716 26.9364 117.329 27.0946 118.075 27.2791C118.822 27.4108 119.488 27.5163 120.075 27.5163C121.861 27.5163 123.327 27.1209 124.367 26.2512C125.433 25.4077 125.993 24.3271 125.993 22.9302C125.993 21.955 125.726 21.0853 125.14 20.4263C124.367 19.7938 123.407 19.1349 122.021 18.6077ZM135.137 12.2295C132.711 12.2295 130.765 12.9411 129.405 14.338C128.046 15.7349 127.353 17.6589 127.353 20.0837C127.353 22.3504 128.046 24.1953 129.379 25.5395C130.711 26.8574 132.524 27.5426 134.79 27.5426C137.163 27.5426 139.056 26.831 140.415 25.4077C141.801 23.9845 142.468 22.0868 142.468 19.7411C142.468 17.4217 141.828 15.5767 140.522 14.2326C139.269 12.8884 137.429 12.2295 135.137 12.2295ZM137.883 23.4574C137.243 24.2744 136.23 24.6698 134.977 24.6698C133.697 24.6698 132.711 24.2744 131.991 23.4046C131.271 22.5876 130.925 21.4015 130.925 19.8992C130.925 18.3442 131.298 17.1581 131.991 16.3147C132.711 15.4713 133.697 15.0496 134.95 15.0496C136.15 15.0496 137.136 15.445 137.829 16.262C138.522 17.0791 138.896 18.2651 138.896 19.8201C138.896 21.4015 138.549 22.6403 137.883 23.4574ZM160.996 15.3659V12.5457H157.503V8.22325L157.397 8.24961L154.091 9.2248L154.011 9.25116V12.5457H148.786V10.7008C148.786 9.85736 148.999 9.19844 149.373 8.77674C149.746 8.35503 150.306 8.14418 150.999 8.14418C151.479 8.14418 151.985 8.24961 152.545 8.48682L152.678 8.56589V5.58759L152.598 5.56123C152.118 5.40309 151.479 5.29767 150.652 5.29767C149.612 5.29767 148.706 5.53488 147.88 5.93023C147.053 6.37829 146.44 6.98449 145.987 7.80154C145.534 8.59224 145.294 9.48837 145.294 10.5163V12.5457H142.868V15.3395H145.294V27.1473H148.786V15.3659H154.011V22.8775C154.011 25.9612 155.477 27.5163 158.41 27.5163C158.89 27.5163 159.396 27.4372 159.876 27.3581C160.383 27.2527 160.756 27.1209 160.969 27.0155L160.996 26.9891V24.169L160.862 24.2744C160.649 24.4062 160.463 24.5116 160.143 24.5907C159.876 24.6698 159.636 24.6961 159.449 24.6961C158.756 24.6961 158.277 24.538 157.93 24.1426C157.61 23.7736 157.45 23.1674 157.45 22.2713V15.3659H160.996Z" fill="black"/>
<path d="M0.00450134 0H16.3462V16.1566H0.00450134V0Z" fill="black"/>
<path d="M18.0522 0H34.3939V16.1566H18.0522V0Z" fill="black"/>
<path d="M0.00439453 17.8434H16.3461V34H0.00439453V17.8434Z" fill="black"/>
<path d="M18.0522 17.8434H34.3939V34H18.0522V17.8434Z" fill="black"/>
</g>
<defs>
<clipPath id="clip0_16_239">
<rect width="161" height="34" fill="white"/>
</clipPath>
</defs>
</svg>
