<svg width="91" height="42" viewBox="0 0 91 42" fill="none" xmlns="http://www.w3.org/2000/svg">
<path d="M79.507 19.8744C79.6924 16.9176 80.5013 15.54 82.018 15.54C83.5178 15.54 84.293 16.9512 84.3941 19.8744H79.507ZM90.6124 21.6384C90.6124 18.3456 89.8878 15.7248 88.4722 13.8936C87.023 12.0288 84.8659 11.0712 82.1191 11.0712C76.4906 11.0712 72.9854 15.2208 72.9854 21.8736C72.9854 25.6032 73.9122 28.392 75.7659 30.1728C77.4174 31.7688 79.7935 32.5752 82.8606 32.5752C85.6917 32.5752 88.3037 31.9032 89.9552 30.8112L89.2306 26.292C87.5959 27.1656 85.7085 27.6528 83.5683 27.6528C82.2876 27.6528 81.4113 27.384 80.7709 26.8296C80.08 26.2416 79.6756 25.284 79.5407 23.9232H90.5113C90.5619 23.604 90.6124 22.1088 90.6124 21.6384ZM64.1213 26.1072C63.582 27.1152 62.7563 27.6528 61.7957 27.6528C61.1217 27.6528 60.5487 27.5184 60.0094 27.2496V17.4048C61.1385 16.2288 62.1496 16.0944 62.5204 16.0944C64.2056 16.0944 65.0313 17.9088 65.0313 21.4368C65.0313 23.4696 64.7448 25.0488 64.1213 26.1072ZM69.6319 13.3392C68.4522 11.8272 66.8344 11.0712 64.7448 11.0712C62.8237 11.0712 61.1385 11.8776 59.5713 13.5408L59.2174 11.4576H53.4035V39.8328L60.0263 38.7408V32.088C61.0374 32.4072 62.0822 32.5752 63.0091 32.5752C64.6606 32.5752 67.0704 32.1552 68.9409 30.1224C70.7272 28.1736 71.6372 25.1664 71.6372 21.2016C71.6204 17.6904 70.9632 15.036 69.6319 13.3392ZM44.135 11.4744H50.7746V32.1888H44.135V11.4744ZM47.4717 9.42477C49.3928 9.42477 50.9431 7.86237 50.9431 5.93037C50.9431 3.98157 49.3928 2.43597 47.4717 2.43597C45.5169 2.43597 43.9665 3.98157 43.9665 5.93037C43.9833 7.84557 45.5337 9.42477 47.4717 9.42477ZM41.287 11.1888C39.4165 11.1888 37.9167 12.1632 37.3437 13.9272L36.9393 11.4744H31.1422V32.1888H37.765V18.7488C38.5907 17.7408 39.7704 17.3712 41.3713 17.3712C41.7252 17.3712 42.0959 17.3712 42.5509 17.4552V11.34C42.0791 11.2392 41.6746 11.1888 41.287 11.1888ZM28.5807 16.3632L29.3896 11.4576H25.1598V5.52717L19.4807 6.46797L18.655 11.4744L16.6496 11.7936L15.9081 16.3632H18.655V25.9728C18.655 28.476 19.2954 30.2064 20.6098 31.2648C21.7052 32.1384 23.2724 32.5752 25.4969 32.5752C27.1989 32.5752 28.2437 32.2896 28.9683 32.088V26.8968C28.5639 26.9976 27.6539 27.1824 27.0472 27.1824C25.7328 27.1824 25.1767 26.5104 25.1767 24.9984V16.3632H28.5807ZM9.62241 19.2696C7.66759 18.5472 6.60593 17.9928 6.60593 17.1192C6.60593 16.38 7.21259 15.9432 8.30796 15.9432C10.3133 15.9432 12.3693 16.716 13.7848 17.4048L14.5937 12.4824C13.4646 11.9448 11.1728 11.0712 8.00463 11.0712C5.76333 11.0712 3.89278 11.6592 2.56148 12.7512C1.16278 13.8936 0.438148 15.54 0.438148 17.5392C0.438148 21.1512 2.64574 22.6968 6.25204 24.0072C8.57759 24.8304 9.35278 25.4184 9.35278 26.3256C9.35278 27.1992 8.6113 27.7032 7.2463 27.7032C5.56111 27.7032 2.78056 26.88 0.977407 25.8216L0.168518 30.7944C1.71889 31.668 4.60056 32.5752 7.58333 32.5752C9.95944 32.5752 11.9311 32.0208 13.2624 30.9456C14.7622 29.7696 15.5374 28.0392 15.5374 25.8048C15.5374 22.1088 13.2793 20.5632 9.62241 19.2696Z" fill="black"/>
</svg>
