<svg width="1800" height="819" viewBox="0 0 1800 819" fill="none" xmlns="http://www.w3.org/2000/svg">
<g clip-path="url(#clip0_223_338)">
<path d="M1606.4 772.036L1598.59 779.845L1606.4 787.655L1614.21 779.845L1606.4 772.036Z" fill="black"/>
<path d="M1617.77 735.466L1612.45 740.786L1617.77 746.107L1623.09 740.786L1617.77 735.466Z" fill="black"/>
<path d="M1656.2 785.421L1667.34 774.282L1656.2 763.144L1645.06 774.282L1656.2 785.421Z" fill="black"/>
<path d="M1696.53 758.57L1680.96 743.002L1665.39 758.57L1680.96 774.139L1696.53 758.57Z" fill="black"/>
<path d="M1680.96 766.355L1688.74 758.57L1680.96 750.786L1673.17 758.57L1680.96 766.355Z" fill="#FDE722"/>
</g>
<g clip-path="url(#clip1_223_338)">
<path d="M1788.51 696.017H1799.52V684.976H1788.51V696.017Z" fill="black"/>
<path d="M1754.74 713.833H1762.23V706.311H1754.74V713.833Z" fill="black"/>
<path d="M1762.86 651.352H1747.16V667.099H1762.86V651.352Z" fill="black"/>
<path d="M1715.52 641.824V663.836H1737.46V641.824H1715.52Z" fill="black"/>
<path d="M1731.98 647.331H1721.01V658.337H1731.98V647.331Z" fill="#FDE722"/>
</g>
<g clip-path="url(#clip2_223_338)">
<path d="M84 23.327C84 26.366 81.5364 28.8475 78.4973 28.8475C75.4583 28.8475 72.9947 26.366 72.9947 23.327C72.9947 20.2879 75.4583 17.8065 78.4973 17.8065C81.5364 17.8065 84 20.2879 84 23.327Z" fill="black"/>
<path d="M46.7134 3.75221C46.7134 5.82262 45.035 7.5132 42.9646 7.5132C40.8941 7.5132 39.2157 5.82262 39.2157 3.75221C39.2157 1.68179 40.8941 -0.00878906 42.9646 -0.00878906C45.035 -0.00878906 46.7134 1.68179 46.7134 3.75221Z" fill="black"/>
<path d="M31.6392 54.5983C31.6392 50.2637 35.153 46.7244 39.4876 46.7244C43.8221 46.7244 47.336 50.2637 47.336 54.5983C47.336 58.9328 43.8221 62.4722 39.4876 62.4722C35.153 62.4722 31.6392 58.9328 31.6392 54.5983Z" fill="black"/>
<path d="M10.9702 49.9883C17.0289 49.9883 21.9405 54.9354 21.9405 60.9941C21.9405 67.0528 17.0289 72 10.9702 72C4.91155 72 0 67.0528 0 60.9941C0 54.9354 4.91155 49.9883 10.9702 49.9883Z" fill="black"/>
<path d="M16.46 66.4927H5.48975V55.4868H16.46V66.4927Z" fill="#FDE722"/>
</g>
<defs>
<clipPath id="clip0_223_338">
<rect width="84.2952" height="72.0192" fill="white" transform="translate(1696.53 758.57) rotate(135)"/>
</clipPath>
<clipPath id="clip1_223_338">
<rect width="84" height="72" fill="white" transform="translate(1715.52 641.824)"/>
</clipPath>
<clipPath id="clip2_223_338">
<rect width="84" height="72" fill="white" transform="matrix(1 0 0 -1 0 72)"/>
</clipPath>
</defs>
</svg>
