<svg width="42" height="42" viewBox="0 0 42 42" fill="none" xmlns="http://www.w3.org/2000/svg">
<rect x="1" y="1" width="40" height="40" rx="20" stroke="#FDE722"/>
<path d="M30.5 15.6935C29.8226 16.0323 29.1452 16.1452 28.3548 16.2581C29.1452 15.8065 29.7097 15.129 29.9355 14.2258C29.2581 14.6774 28.4677 14.9032 27.6774 15.129C27 14.4516 26.0968 14 25.0806 14C23.0484 14 21.4677 15.5806 21.4677 17.6129C21.4677 17.9516 21.4677 18.1774 21.5806 18.4032C18.5323 18.2903 15.9355 16.8226 14.129 14.5645C13.7903 15.129 13.6774 15.6935 13.6774 16.371C13.6774 17.6129 14.3548 18.7419 15.2581 19.4194C14.6935 19.4194 14.129 19.1935 13.6774 18.9677C13.6774 20.7742 14.9194 22.2419 16.6129 22.5806C16.2742 22.6935 16.0484 22.6935 15.7097 22.6935C15.4839 22.6935 15.2581 22.6935 15.0323 22.5806C15.4839 24.0484 16.8387 25.0645 18.4194 25.0645C17.1774 26.0806 15.5968 26.6452 13.9032 26.6452C13.5645 26.6452 13.3387 26.6452 13 26.6452C14.5806 27.6613 16.5 28.2258 18.5323 28.2258C25.1935 28.2258 28.8065 22.6935 28.8065 17.9516C28.8065 17.8387 28.8065 17.6129 28.8065 17.5C29.4839 17.0484 30.0484 16.4839 30.5 15.6935Z" fill="#FDE722"/>
</svg>
