<svg width="168" height="108" viewBox="0 0 168 108" fill="none" xmlns="http://www.w3.org/2000/svg">
<g clip-path="url(#clip0_59_386)">
<path d="M168 48.6728C168 45.6338 165.536 43.1523 162.497 43.1523C159.458 43.1523 156.995 45.6338 156.995 48.6728C156.995 51.7119 159.458 54.1934 162.497 54.1934C165.536 54.1934 168 51.7119 168 48.6728Z" fill="black"/>
<path d="M130.713 68.2488C130.713 66.1784 129.035 64.4878 126.965 64.4878C124.894 64.4878 123.216 66.1784 123.216 68.2488C123.216 70.3192 124.894 72.0098 126.965 72.0098C129.035 72.0098 130.713 70.3192 130.713 68.2488Z" fill="black"/>
<path d="M115.639 17.4012C115.639 21.7358 119.153 25.2751 123.488 25.2751C127.822 25.2751 131.336 21.7358 131.336 17.4012C131.336 13.0667 127.822 9.52734 123.488 9.52734C119.153 9.52734 115.639 13.0667 115.639 17.4012Z" fill="black"/>
<path d="M94.9702 22.0117C101.029 22.0117 105.94 17.0646 105.94 11.0059C105.94 4.94715 101.029 -1.33514e-05 94.9702 -1.33514e-05C88.9115 -1.33514e-05 84 4.94715 84 11.0059C84 17.0646 88.9115 22.0117 94.9702 22.0117Z" fill="black"/>
<path d="M100.46 5.50781H89.4897V16.5137H100.46V5.50781Z" fill="#FDE722"/>
</g>
<g clip-path="url(#clip1_59_386)">
<path d="M84 59.3272C84 62.3662 81.5364 64.8477 78.4973 64.8477C75.4583 64.8477 72.9947 62.3662 72.9947 59.3272C72.9947 56.2881 75.4583 53.8066 78.4973 53.8066C81.5364 53.8066 84 56.2881 84 59.3272Z" fill="black"/>
<path d="M46.7134 39.7512C46.7134 41.8216 45.035 43.5122 42.9646 43.5122C40.8941 43.5122 39.2157 41.8216 39.2157 39.7512C39.2157 37.6808 40.8941 35.9902 42.9646 35.9902C45.035 35.9902 46.7134 37.6808 46.7134 39.7512Z" fill="black"/>
<path d="M31.6392 90.5988C31.6392 86.2642 35.153 82.7249 39.4876 82.7249C43.8221 82.7249 47.336 86.2642 47.336 90.5988C47.336 94.9333 43.8221 98.4727 39.4876 98.4727C35.153 98.4727 31.6392 94.9333 31.6392 90.5988Z" fill="black"/>
<path d="M10.9702 85.9883C17.0289 85.9883 21.9405 90.9354 21.9405 96.9941C21.9405 103.053 17.0289 108 10.9702 108C4.91155 108 0 103.053 0 96.9941C0 90.9354 4.91155 85.9883 10.9702 85.9883Z" fill="black"/>
<path d="M16.4595 102.492H5.48926V91.4863H16.4595V102.492Z" fill="#FDE722"/>
</g>
<defs>
<clipPath id="clip0_59_386">
<rect width="84" height="72" fill="white" transform="translate(84)"/>
</clipPath>
<clipPath id="clip1_59_386">
<rect width="84" height="72" fill="white" transform="matrix(1 0 0 -1 0 108)"/>
</clipPath>
</defs>
</svg>
