<svg width="144" height="108" viewBox="0 0 144 108" fill="none" xmlns="http://www.w3.org/2000/svg">
<g clip-path="url(#clip0_59_309)">
<path d="M144 59.3272C144 62.3662 141.536 64.8477 138.497 64.8477C135.458 64.8477 132.995 62.3662 132.995 59.3272C132.995 56.2881 135.458 53.8066 138.497 53.8066C141.536 53.8066 144 56.2881 144 59.3272Z" fill="#FDE722"/>
<path d="M106.713 39.7512C106.713 41.8216 105.035 43.5122 102.965 43.5122C100.894 43.5122 99.2157 41.8216 99.2157 39.7512C99.2157 37.6808 100.894 35.9902 102.965 35.9902C105.035 35.9902 106.713 37.6808 106.713 39.7512Z" fill="#FDE722"/>
<path d="M91.6392 90.5988C91.6392 86.2642 95.153 82.7249 99.4876 82.7249C103.822 82.7249 107.336 86.2642 107.336 90.5988C107.336 94.9333 103.822 98.4727 99.4876 98.4727C95.153 98.4727 91.6392 94.9333 91.6392 90.5988Z" fill="#FDE722"/>
<path d="M70.9702 85.9883C77.0289 85.9883 81.9405 90.9354 81.9405 96.9941C81.9405 103.053 77.0289 108 70.9702 108C64.9115 108 60 103.053 60 96.9941C60 90.9354 64.9115 85.9883 70.9702 85.9883Z" fill="#FDE722"/>
<path d="M76.4597 102.492H65.4895V91.4863H76.4597V102.492Z" fill="#7127D0"/>
</g>
<g clip-path="url(#clip1_59_309)">
<path d="M84 48.6728C84 45.6338 81.5364 43.1523 78.4973 43.1523C75.4583 43.1523 72.9947 45.6338 72.9947 48.6728C72.9947 51.7119 75.4583 54.1934 78.4973 54.1934C81.5364 54.1934 84 51.7119 84 48.6728Z" fill="#FDE722"/>
<path d="M46.7134 68.2488C46.7134 66.1784 45.035 64.4878 42.9646 64.4878C40.8941 64.4878 39.2157 66.1784 39.2157 68.2488C39.2157 70.3192 40.8941 72.0098 42.9646 72.0098C45.035 72.0098 46.7134 70.3192 46.7134 68.2488Z" fill="#FDE722"/>
<path d="M31.6392 17.4012C31.6392 21.7358 35.153 25.2751 39.4876 25.2751C43.8221 25.2751 47.336 21.7358 47.336 17.4012C47.336 13.0667 43.8221 9.52734 39.4876 9.52734C35.153 9.52734 31.6392 13.0667 31.6392 17.4012Z" fill="#FDE722"/>
<path d="M10.9702 22.0117C17.0289 22.0117 21.9405 17.0646 21.9405 11.0059C21.9405 4.94715 17.0289 -1.33514e-05 10.9702 -1.33514e-05C4.91155 -1.33514e-05 0 4.94715 0 11.0059C0 17.0646 4.91155 22.0117 10.9702 22.0117Z" fill="#FDE722"/>
<path d="M16.4597 5.50781H5.4895V16.5137H16.4597V5.50781Z" fill="#7127D0"/>
</g>
<defs>
<clipPath id="clip0_59_309">
<rect width="84" height="72" fill="white" transform="matrix(1 0 0 -1 60 108)"/>
</clipPath>
<clipPath id="clip1_59_309">
<rect width="84" height="72" fill="white"/>
</clipPath>
</defs>
</svg>
