<svg width="1297" height="230" viewBox="0 0 1297 230" fill="none" xmlns="http://www.w3.org/2000/svg">
<line opacity="0.5" y1="0.5" x2="1296" y2="0.5" stroke="white"/>
<mask id="mask0_59_222" style="mask-type:luminance" maskUnits="userSpaceOnUse" x="0" y="2" width="649" height="228">
<path d="M648.033 2H0V229.565H648.033V2Z" fill="white"/>
</mask>
<g mask="url(#mask0_59_222)">
<path d="M648.033 -388.742H0V254.482H648.033V-388.742Z" fill="#7127D0"/>
<path d="M508.223 114.348C492.834 129.623 492.125 153.711 506.651 168.129C521.177 182.547 545.445 181.866 560.835 166.591L508.223 114.348Z" fill="white"/>
<path d="M344.366 47.3789L-9.69849 250.702L107.083 318.155L110.759 316.067C111.822 216.79 188.679 136.656 283.34 136.656C316.149 136.675 348.206 146.409 375.41 164.612L461.612 115.271L344.366 47.3789Z" fill="white"/>
<path d="M462.808 115.269L375.388 165.314L375.078 165.094C347.966 146.971 316.028 137.277 283.34 137.247C237.748 137.247 194.769 155.819 162.396 189.534C129.804 223.742 111.555 268.983 111.357 316.065V316.394L107.083 318.834L-10.894 250.701L-10.0083 250.173L344.278 46.6738L462.808 115.269ZM375.433 163.907L460.417 115.269L344.366 48.0585L-8.50261 250.701L107.083 317.471L110.161 315.713C110.436 268.447 128.799 223.051 161.533 188.721C194.149 154.764 237.416 135.973 283.318 135.973C316.133 136.021 348.194 145.744 375.433 163.907Z" fill="white"/>
<path d="M456.564 318.154V318.748H110.139V318.154C110.139 317.693 110.139 317.253 110.139 316.813V315.714L110.449 315.539L375.41 163.887L375.72 164.085C426.339 197.734 456.564 255.23 456.564 318.154ZM111.334 317.561H455.368C455.169 255.471 425.32 198.635 375.388 165.315L111.357 316.396V316.769C111.357 317.077 111.334 317.319 111.334 317.561Z" fill="white"/>
<path d="M110.759 316.067L375.411 164.613C348.206 146.409 316.149 136.675 283.341 136.656C188.68 136.656 111.822 216.79 110.759 316.067Z" fill="#FDE722"/>
<path d="M376.606 164.655L375.787 165.116L110.139 317.098V316.043C110.325 268.662 128.695 223.132 161.51 188.721C194.127 154.764 237.394 135.973 283.296 135.973C316.219 136.003 348.388 145.766 375.698 164.017L376.606 164.655ZM111.379 315.01L374.392 164.567C347.443 146.785 315.811 137.282 283.451 137.247C237.859 137.247 194.879 155.819 162.507 189.534C130.113 223.451 111.848 268.277 111.379 315.01Z" fill="white"/>
<path d="M652.993 4.67383V323.67L374.635 164.15L652.993 4.67383ZM650.602 319.582V8.73987L379.44 164.15L650.602 319.582Z" fill="white"/>
<path d="M608.995 31.2683L651.797 55.7963V6.74023L608.995 31.2683Z" fill="white"/>
<path d="M651.204 135.435L335.127 317.152L336.326 319.206L652.403 137.489L651.204 135.435Z" fill="white"/>
<path d="M493.258 97.6575L491.567 99.3359L574.457 181.611L576.148 179.932L493.258 97.6575Z" fill="white"/>
<path d="M515.548 84.4661L513.857 86.1445L596.293 167.969L597.984 166.29L515.548 84.4661Z" fill="white"/>
<path d="M537.859 72.3079L536.167 73.9863L619.058 156.261L620.749 154.583L537.859 72.3079Z" fill="white"/>
<path d="M12.1787 85.8626L12.1787 112.215H38.728V85.8626H12.1787Z" fill="white"/>
<path d="M107.592 165.316V191.668H134.142V165.316H107.592Z" fill="white"/>
<path d="M77.3892 247.361H118.066V206.987H77.3892V247.361Z" fill="white"/>
<path d="M36.7127 247.361H77.3892V206.987H36.7127L36.7127 247.361Z" fill="white"/>
<path d="M-3.96331 247.361H36.7131L36.7131 206.987H-3.96331L-3.96331 247.361Z" fill="white"/>
<path d="M36.7127 206.986H77.3892V166.612H36.7127L36.7127 206.986Z" fill="white"/>
<path d="M-3.96331 206.986H36.7131L36.7131 166.612H-3.96331L-3.96331 206.986Z" fill="white"/>
<path d="M-3.96331 166.633H36.7131L36.7131 126.258H-3.96331L-3.96331 166.633Z" fill="white"/>
<path d="M204.312 92.5004V105.6H217.509V92.5004H204.312Z" fill="white"/>
<path d="M81.0874 102.984V139.139H117.512V102.984H81.0874Z" fill="white"/>
<path d="M147.449 117.158V132.785H163.193V117.158H147.449Z" fill="white"/>
</g>
<mask id="mask1_59_222" style="mask-type:luminance" maskUnits="userSpaceOnUse" x="648" y="2" width="649" height="228">
<path d="M648.033 2H1296.07V229.565H648.033V2Z" fill="white"/>
</mask>
<g mask="url(#mask1_59_222)">
<path d="M648.033 -388.742H1296.07V254.482H648.033V-388.742Z" fill="#7127D0"/>
<path d="M787.844 114.348C803.233 129.623 803.941 153.711 789.416 168.129C774.89 182.547 750.621 181.866 735.232 166.591L787.844 114.348Z" fill="white"/>
<path d="M951.7 47.3789L1305.76 250.702L1188.98 318.155L1185.31 316.067C1184.24 216.79 1107.39 136.656 1012.73 136.656C979.917 136.675 947.86 146.409 920.656 164.612L834.454 115.271L951.7 47.3789Z" fill="white"/>
<path d="M833.258 115.269L920.678 165.314L920.988 165.094C948.101 146.971 980.038 137.277 1012.73 137.247C1058.32 137.247 1101.3 155.819 1133.67 189.534C1166.26 223.742 1184.51 268.983 1184.71 316.065V316.394L1188.98 318.834L1306.96 250.701L1306.07 250.173L951.789 46.6738L833.258 115.269ZM920.634 163.907L835.649 115.269L951.7 48.0585L1304.57 250.701L1188.98 317.471L1185.91 315.713C1185.63 268.447 1167.27 223.051 1134.53 188.721C1101.92 154.764 1058.65 135.973 1012.75 135.973C979.933 136.021 947.873 145.744 920.634 163.907Z" fill="white"/>
<path d="M839.503 318.154V318.748H1185.93V318.154C1185.93 317.693 1185.93 317.253 1185.93 316.813V315.714L1185.62 315.539L920.656 163.887L920.346 164.085C869.728 197.734 839.503 255.23 839.503 318.154ZM1184.73 317.561H840.698C840.898 255.471 870.746 198.635 920.678 165.315L1184.71 316.396V316.769C1184.71 317.077 1184.73 317.319 1184.73 317.561Z" fill="white"/>
<path d="M1185.31 316.067L920.656 164.613C947.86 146.409 979.917 136.675 1012.73 136.656C1107.39 136.656 1184.24 216.79 1185.31 316.067Z" fill="#FDE722"/>
<path d="M919.46 164.655L920.28 165.116L1185.93 317.098V316.043C1185.74 268.662 1167.37 223.132 1134.56 188.721C1101.94 154.764 1058.67 135.973 1012.77 135.973C979.847 136.003 947.678 145.766 920.368 164.017L919.46 164.655ZM1184.69 315.01L921.675 164.567C948.623 146.785 980.255 137.282 1012.62 137.247C1058.21 137.247 1101.19 155.819 1133.56 189.534C1165.95 223.451 1184.22 268.277 1184.69 315.01Z" fill="white"/>
<path d="M643.073 4.67383V323.67L921.431 164.15L643.073 4.67383ZM645.465 319.582V8.73987L916.626 164.15L645.465 319.582Z" fill="white"/>
<path d="M687.071 31.2683L644.269 55.7963V6.74023L687.071 31.2683Z" fill="white"/>
<path d="M644.862 135.435L960.939 317.152L959.74 319.206L643.664 137.489L644.862 135.435Z" fill="white"/>
<path d="M802.809 97.6575L804.5 99.3359L721.61 181.611L719.919 179.932L802.809 97.6575Z" fill="white"/>
<path d="M780.518 84.4661L782.209 86.1445L699.773 167.969L698.082 166.29L780.518 84.4661Z" fill="white"/>
<path d="M758.208 72.3079L759.899 73.9863L677.009 156.261L675.318 154.583L758.208 72.3079Z" fill="white"/>
<path d="M1283.89 85.8626V112.215H1257.34V85.8626H1283.89Z" fill="white"/>
<path d="M1188.47 165.316V191.668H1161.92V165.316H1188.47Z" fill="white"/>
<path d="M1218.68 247.361H1178V206.987H1218.68V247.361Z" fill="white"/>
<path d="M1259.35 247.361H1218.68V206.987H1259.35V247.361Z" fill="white"/>
<path d="M1300.03 247.361H1259.35V206.987H1300.03V247.361Z" fill="white"/>
<path d="M1259.35 206.986H1218.68V166.612H1259.35V206.986Z" fill="white"/>
<path d="M1300.03 206.986H1259.35V166.612H1300.03V206.986Z" fill="white"/>
<path d="M1300.03 166.633H1259.35V126.258H1300.03V166.633Z" fill="white"/>
<path d="M1091.75 92.5004V105.6H1078.56V92.5004H1091.75Z" fill="white"/>
<path d="M1214.98 102.984V139.139H1178.55V102.984H1214.98Z" fill="white"/>
<path d="M1148.62 117.158V132.785H1132.87V117.158H1148.62Z" fill="white"/>
</g>
</svg>
