<svg width="29" height="27" viewBox="0 0 29 27" fill="none" xmlns="http://www.w3.org/2000/svg">
<path d="M28.9994 12.1807V14.817C28.9994 15.181 28.7043 15.476 28.3403 15.476H27.6813V22.1855C28.7108 22.5495 29.2504 23.6792 28.8864 24.7086C28.5224 25.7381 27.3927 26.2777 26.3632 25.9137C25.3338 25.5498 24.7942 24.42 25.1581 23.3906C25.3573 22.8274 25.8001 22.3846 26.3632 22.1855V19.5888C23.7269 23.8002 17.9667 24.7031 17.8876 24.7031C17.5276 24.757 17.1922 24.509 17.138 24.1492C17.1373 24.145 17.1368 24.1407 17.1362 24.1363V24.0441C17.1329 23.7133 17.3754 23.4314 17.703 23.3851C17.7952 23.3851 25.8361 22.1525 26.3632 15.476H25.7042C25.3402 15.476 25.0452 15.181 25.0452 14.817V12.1807C25.0452 11.8167 25.3402 11.5216 25.7042 11.5216H26.3632C25.8162 5.4251 17.7952 3.6126 17.6898 3.6126C17.3676 3.56027 17.132 3.27997 17.1362 2.95357V2.81526C17.203 2.45751 17.5474 2.2217 17.9051 2.28855C17.9146 2.29039 17.924 2.29224 17.9335 2.29454C18.0061 2.29454 23.7267 3.6126 26.363 7.68571V4.81217C25.3336 4.4482 24.7939 3.31847 25.1579 2.28901C25.5219 1.25955 26.6516 0.719927 27.6811 1.0839C28.7105 1.44788 29.2501 2.57761 28.8862 3.60707C28.687 4.1702 28.2442 4.61301 27.6811 4.81217V11.5216H28.3401C28.7043 11.5216 28.9994 11.8167 28.9994 12.1807Z" fill="white"/>
<path d="M10.5452 13.4992C10.5452 13.1352 10.8403 12.8401 11.2043 12.8401C11.5682 12.8401 11.8633 13.1352 11.8633 13.4992C11.8633 13.8631 11.5682 14.1582 11.2043 14.1582C10.8403 14.1582 10.5452 13.8631 10.5452 13.4992Z" fill="white"/>
<path d="M10.7362 19.2398C9.40473 17.9847 7.73423 17.1481 5.93141 16.8342V10.1644C7.734 9.85043 9.40473 9.01391 10.7362 7.75878C10.9268 7.56907 11.2138 7.51421 11.4611 7.62047L23.8584 12.8401H13.0627C12.6987 11.8107 11.569 11.2711 10.5395 11.635C9.51007 11.999 8.97045 13.1287 9.33443 14.1582C9.6984 15.1877 10.8281 15.7273 11.8576 15.3633C12.4207 15.1641 12.8635 14.7213 13.0627 14.1582H23.8584L11.4611 19.3781C11.2138 19.4844 10.9268 19.4295 10.7362 19.2398Z" fill="white"/>
<path d="M0.658883 18.1133C0.294907 18.1133 -0.000145912 17.8182 -0.000145912 17.4543L-0.000145912 9.54523C-0.000145912 9.18125 0.294907 8.8862 0.658883 8.8862H4.61328L4.61328 18.1133H0.658883Z" fill="white"/>
</svg>
