<svg xmlns="http://www.w3.org/2000/svg" xmlns:xlink="http://www.w3.org/1999/xlink" version="1.1" width="1000" height="1000" viewBox="0 0 1000 1000" xml:space="preserve">
<desc>Created with Fabric.js 3.5.0</desc>
<defs>
</defs>
<!-- <rect x="100" y="0" width="100%" height="100%" fill="#ffffff"/> -->
<g transform="matrix(1.3024 0 0 1.3024 267 468)" id="432299">
<path style="stroke: rgb(113,39,208); stroke-width: 2; stroke-dasharray: none; stroke-linecap: butt; stroke-dashoffset: 0; stroke-linejoin: miter; stroke-miterlimit: 4; is-custom-font: none; font-file-url: none; fill: none; fill-rule: nonzero; opacity: 1;" vector-effect="non-scaling-stroke" transform=" translate(-202.3682, -349.503)" d="M 0.868383 0.503054 L 403.868 698.503" stroke-linecap="round"/>
</g>
<g transform="matrix(3.7939 0 0 3.7939 27.2209 33.9043)" id="817964">
<circle style="stroke: none; stroke-width: 0; stroke-dasharray: none; stroke-linecap: butt; stroke-dashoffset: 0; stroke-linejoin: miter; stroke-miterlimit: 4; is-custom-font: none; font-file-url: none; fill: rgb(113,39,208); fill-rule: nonzero; opacity: 1;" vector-effect="non-scaling-stroke" cx="0" cy="0" r="8"/>
</g>
<g transform="matrix(3.7939 0 0 3.7939 538.6343 924.9993)" id="883380">
<circle style="stroke: none; stroke-width: 0; stroke-dasharray: none; stroke-linecap: butt; stroke-dashoffset: 0; stroke-linejoin: miter; stroke-miterlimit: 4; is-custom-font: none; font-file-url: none; fill: rgb(113,39,208); fill-rule: nonzero; opacity: 1;" vector-effect="non-scaling-stroke" cx="0" cy="0" r="8"/>
</g>
<g transform="matrix(3.7939 0 0 3.7939 363.1036 620.977)" id="410494">
<circle style="stroke: none; stroke-width: 0; stroke-dasharray: none; stroke-linecap: butt; stroke-dashoffset: 0; stroke-linejoin: miter; stroke-miterlimit: 4; is-custom-font: none; font-file-url: none; fill: rgb(113,39,208); fill-rule: nonzero; opacity: 1;" vector-effect="non-scaling-stroke" cx="0" cy="0" r="8"/>
</g>
<g transform="matrix(0.3299 0 0 0.3299 205.9432 334.3874)" id="822649">
<path style="stroke: none; stroke-width: 1; stroke-dasharray: none; stroke-linecap: butt; stroke-dashoffset: 0; stroke-linejoin: miter; stroke-miterlimit: 4; is-custom-font: none; font-file-url: none; fill: rgb(113,39,208); fill-rule: nonzero; opacity: 1;" vector-effect="non-scaling-stroke" transform=" translate(-256, -256)" d="M 256 0 C 114.6 0 0 114.6 0 256 c 0 141.4 114.6 256 256 256 s 256 -114.6 256 -256 C 512 114.6 397.4 0 256 0 z M 406.6 278.6 l -103.1 103.1 c -12.5 12.5 -32.75 12.5 -45.25 0 s -12.5 -32.75 0 -45.25 L 306.8 288 H 128 C 110.3 288 96 273.7 96 256 s 14.31 -32 32 -32 h 178.8 l -49.38 -49.38 c -12.5 -12.5 -12.5 -32.75 0 -45.25 s 32.75 -12.5 45.25 0 l 103.1 103.1 C 414.6 241.3 416 251.1 416 256 C 416 260.9 414.6 270.7 406.6 278.6 z" stroke-linecap="round"/>
</g>
</svg>