<svg width="36" height="39" viewBox="0 0 36 39" fill="none" xmlns="http://www.w3.org/2000/svg">
<path d="M27.2304 29.45H22.7084C22.4172 29.45 22.1811 29.7057 22.1811 30.0213C22.1811 30.3369 22.4172 30.5926 22.7084 30.5926H23.7213V31.9119H12.5762L12.2389 31.2717L12.5967 30.5926H20.2475C20.5387 30.5926 20.7748 30.3369 20.7748 30.0213C20.7748 29.7057 20.5387 29.45 20.2475 29.45H12.5901C12.3829 29.4488 12.1833 29.4938 11.994 29.5828L7.63228 31.6324C7.32234 31.778 7.1202 32.1087 7.11724 32.4747C7.11429 32.8417 7.31166 33.1771 7.62019 33.3291L11.8219 35.3994C12.0147 35.4943 12.2218 35.5426 12.433 35.5436H27.0963C28.0505 35.5436 28.8508 34.7703 28.8818 33.8164C28.882 33.8096 28.8821 33.8029 28.8821 33.7962V31.2911C28.9131 30.2941 28.1457 29.445 27.2304 29.45ZM11.2369 33.2914C11.153 33.4506 11.1235 33.6346 11.1471 33.8116L8.46127 32.4883L11.1412 31.229C11.1338 31.3825 11.1647 31.5377 11.2369 31.6748L11.6627 32.483L11.2369 33.2914ZM23.7213 34.401H12.6111L12.2389 33.6944L12.576 33.0546H23.7213V34.401ZM27.8274 31.2821V33.7844C27.8101 34.1489 27.4305 34.401 27.0939 34.401H24.776V30.5927H27.2304C27.5626 30.5905 27.8391 30.9016 27.8277 31.2625C27.8276 31.2689 27.8274 31.2756 27.8274 31.2821ZM8.4375 4.0752C8.4375 3.75969 8.20139 3.50391 7.91016 3.50391C7.61892 3.50391 7.38281 3.75969 7.38281 4.0752C7.38281 4.3907 7.61892 4.64648 7.91016 4.64648C8.20139 4.64648 8.4375 4.3907 8.4375 4.0752ZM3.69141 3.50391C3.40017 3.50391 3.16406 3.75969 3.16406 4.0752C3.16406 4.3907 3.40017 4.64648 3.69141 4.64648C3.98264 4.64648 4.21875 4.3907 4.21875 4.0752C4.21875 3.75969 3.98264 3.50391 3.69141 3.50391ZM5.80078 3.50391C5.50955 3.50391 5.27344 3.75969 5.27344 4.0752C5.27344 4.3907 5.50955 4.64648 5.80078 4.64648C6.09202 4.64648 6.32812 4.3907 6.32812 4.0752C6.32812 3.75969 6.09202 3.50391 5.80078 3.50391ZM29.0678 16.1023C29.0728 16.1295 29.0796 16.1564 29.0882 16.1826C29.1727 16.4403 29.3982 16.6126 29.6503 16.6126H29.6543C29.908 16.6108 30.1334 16.4347 30.2151 16.1745C30.2167 16.1695 30.2181 16.1645 30.2196 16.1595L30.648 14.6601L31.0745 16.1597C31.0766 16.1675 31.079 16.175 31.0815 16.1826C31.1659 16.4403 31.3915 16.6127 31.6436 16.6127H31.6476C31.9013 16.6109 32.1267 16.4348 32.2084 16.1746C32.2158 16.1509 32.2218 16.1267 32.2263 16.1021L32.8259 12.8385C32.8827 12.5291 32.6972 12.2283 32.4116 12.1667C32.1258 12.1049 31.8483 12.306 31.7914 12.6155L31.5476 13.9429L31.1522 12.5527C31.0665 12.2511 30.7714 12.082 30.4931 12.1749C30.3081 12.2367 30.1776 12.3988 30.1357 12.589L29.7487 13.9434L29.5053 12.6101C29.4488 12.3006 29.1714 12.0991 28.8856 12.1605C28.6 12.2218 28.4141 12.5223 28.4707 12.8318L29.0678 16.1023ZM29.1445 23.6514H19.2809C18.9896 23.6514 18.7535 23.9071 18.7535 24.2227C18.7535 24.5382 18.9896 24.7939 19.2809 24.7939H29.1445C29.4358 24.7939 29.6719 24.5382 29.6719 24.2227C29.6719 23.9071 29.4358 23.6514 29.1445 23.6514ZM3.16406 18.4717C3.16406 22.8737 6.5397 26.5078 10.582 26.5078C14.643 26.5078 18 22.8633 18 18.4717C18 14.0781 14.6835 10.4355 10.582 10.4355C6.50545 10.4355 3.16406 14.0943 3.16406 18.4717ZM12.8392 24.9167C13.008 24.641 13.1663 24.3318 13.3122 23.9897C13.4644 23.6329 13.5996 23.248 13.718 22.8412C14.2135 22.9747 14.6727 23.1412 15.0862 23.3363C14.4545 24.0229 13.6902 24.5658 12.8392 24.9167ZM15.7889 22.4297C15.2551 22.1504 14.6471 21.9179 13.9856 21.7388C14.1531 20.8948 14.2542 19.9845 14.2835 19.043H16.9232C16.828 20.2961 16.4219 21.4553 15.7889 22.4297ZM15.7889 14.5136C16.4219 15.488 16.828 16.6471 16.9233 17.9004H14.2836C14.2542 16.9588 14.1532 16.0486 13.9856 15.2046C14.6471 15.0254 15.2551 14.793 15.7889 14.5136ZM15.0863 13.607C14.6728 13.8022 14.2135 13.9686 13.7181 14.1021C13.5997 13.6952 13.4644 13.3104 13.3123 12.9536C13.1664 12.6115 13.0081 12.3023 12.8393 12.0265C13.6902 12.3775 14.4545 12.9206 15.0863 13.607ZM11.1094 11.7362C11.5575 11.9995 11.9933 12.5853 12.3548 13.4328C12.4736 13.7115 12.5806 14.0108 12.6766 14.3258C12.1745 14.4089 11.6489 14.4617 11.1093 14.4827V11.7362H11.1094ZM11.1094 15.626C11.7435 15.6026 12.363 15.5385 12.9538 15.4343C13.1068 16.2019 13.1998 17.0348 13.2285 17.9004H11.1094V15.626ZM11.1094 19.043H13.2284C13.1989 19.9387 13.1013 20.767 12.9529 21.5089C12.3624 21.4049 11.7432 21.3408 11.1094 21.3174V19.043ZM11.1094 22.4606C11.6485 22.4816 12.1738 22.5344 12.6756 22.6173C12.2723 23.9372 11.6987 24.8527 11.1094 25.204V22.4606ZM5.37518 14.5136C5.90892 14.7929 6.51698 15.0254 7.17841 15.2046C7.01086 16.0486 6.90982 16.9588 6.8805 17.9004H4.24076C4.3361 16.6471 4.74216 15.488 5.37518 14.5136ZM5.37518 22.4297C4.74216 21.4553 4.3361 20.2961 4.24076 19.043H6.8805C6.90982 19.9846 7.01086 20.8948 7.17841 21.7388C6.51698 21.918 5.90892 22.1504 5.37518 22.4297ZM6.07788 23.3364C6.49139 23.1412 6.95053 22.9747 7.44602 22.8413C7.56443 23.2481 7.69971 23.633 7.85187 23.9898C7.99777 24.3318 8.15604 24.6411 8.32486 24.9168C7.47387 24.5658 6.70957 24.0229 6.07788 23.3364ZM10.0547 25.2072C9.60652 24.9439 9.17079 24.3581 8.80931 23.5105C8.69048 23.2319 8.58347 22.9326 8.48742 22.6176C8.98952 22.5345 9.51518 22.4817 10.0548 22.4606V25.2072H10.0547ZM10.0547 21.3174C9.42054 21.3408 8.80102 21.405 8.21025 21.509C8.05725 20.7414 7.9643 19.9086 7.93561 19.043H10.0547V21.3174ZM10.0547 17.9004H7.93568C7.96521 17.0047 8.06273 16.1764 8.21116 15.4346C8.80165 15.5385 9.42089 15.6027 10.0547 15.626V17.9004ZM10.0547 11.7393V14.4828C9.51546 14.4618 8.99023 14.409 8.48848 14.326C8.89172 13.0062 9.46533 12.0907 10.0547 11.7393ZM8.32486 12.0266C8.15604 12.3024 7.99777 12.6115 7.85187 12.9536C7.69971 13.3104 7.56443 13.6953 7.44602 14.1022C6.95053 13.9687 6.49132 13.8023 6.07788 13.607C6.70957 12.9206 7.47387 12.3775 8.32486 12.0266ZM33.3633 0H2.63672C1.1828 0 0 1.28136 0 2.85645V36.1436C0 37.7186 1.1828 39 2.63672 39H33.3633C34.8172 39 36 37.7186 36 36.1436V2.85645C36 1.28136 34.8172 0 33.3633 0ZM34.9453 7.00781H10.213C9.9218 7.00781 9.68569 7.26352 9.68569 7.5791C9.68569 7.89468 9.9218 8.15039 10.213 8.15039H34.9453V36.1436C34.9453 37.0885 34.2356 37.8574 33.3633 37.8574H2.63672C1.76435 37.8574 1.05469 37.0885 1.05469 36.1436V8.15039H7.75209C8.04333 8.15039 8.27944 7.89468 8.27944 7.5791C8.27944 7.26352 8.04333 7.00781 7.75209 7.00781H1.05469V2.85645C1.05469 1.91146 1.76435 1.14258 2.63672 1.14258H33.3633C34.2356 1.14258 34.9453 1.91146 34.9453 2.85645V7.00781ZM19.3608 16.1023C19.3657 16.1296 19.3726 16.1566 19.3812 16.1829C19.4657 16.4404 19.6912 16.6126 19.9432 16.6126H19.9475C20.2012 16.6106 20.4265 16.4345 20.5081 16.1743C20.5097 16.1694 20.5111 16.1644 20.5125 16.1595L20.941 14.6601L21.3674 16.1597C21.3696 16.1676 21.372 16.1753 21.3745 16.1829C21.459 16.4405 21.6845 16.6127 21.9365 16.6127H21.9407C22.1944 16.6108 22.4196 16.4348 22.5013 16.1746C22.5088 16.1509 22.5148 16.1267 22.5193 16.1021L23.1188 12.8385C23.1756 12.5291 22.9901 12.2283 22.7045 12.1667C22.4189 12.1049 22.1413 12.306 22.0844 12.6155L21.8405 13.9429L21.4452 12.5527C21.3595 12.2511 21.0641 12.082 20.786 12.1749C20.601 12.2367 20.4706 12.3988 20.4287 12.589L20.0417 13.9434L19.7983 12.6101C19.7418 12.3007 19.4643 12.0987 19.1787 12.1605C18.893 12.2218 18.7072 12.5223 18.7637 12.8318L19.3608 16.1023ZM32.3086 21.3662H19.2809C18.9896 21.3662 18.7535 21.6219 18.7535 21.9375C18.7535 22.2531 18.9896 22.5088 19.2809 22.5088H32.3086C32.5998 22.5088 32.8359 22.2531 32.8359 21.9375C32.8359 21.6219 32.5998 21.3662 32.3086 21.3662ZM24.2143 16.1023C24.2193 16.1295 24.226 16.1564 24.2347 16.1826C24.3191 16.4403 24.5447 16.6126 24.7968 16.6126H24.8008C25.0545 16.6108 25.2799 16.4347 25.3616 16.1745C25.3631 16.1695 25.3646 16.1645 25.3661 16.1595L25.7945 14.6601L26.2209 16.1597C26.2231 16.1675 26.2254 16.175 26.228 16.1826C26.3124 16.4403 26.538 16.6127 26.7901 16.6127H26.7939C27.0476 16.611 27.273 16.435 27.3548 16.1749C27.3622 16.1511 27.3683 16.1267 27.3729 16.1021L27.9724 12.8385C28.0292 12.5291 27.8438 12.2283 27.5581 12.1667C27.2725 12.1049 26.9949 12.306 26.938 12.6155L26.6941 13.9429L26.2988 12.5527C26.2131 12.2511 25.9178 12.082 25.6396 12.1749C25.4546 12.2367 25.3242 12.3988 25.2823 12.589L24.8953 13.9434L24.6518 12.6101C24.5953 12.3006 24.3179 12.0991 24.0322 12.1605C23.7465 12.2218 23.5607 12.5223 23.6172 12.8318L24.2143 16.1023Z" fill="black"/>
</svg>
