<svg width="38" height="41" viewBox="0 0 38 41" fill="none" xmlns="http://www.w3.org/2000/svg">
<path d="M34.2116 12.0993C34.5029 12.0993 34.739 11.8436 34.739 11.5281V7.03962H35.6117C36.3772 7.03962 36.9999 6.36615 36.9999 5.53832V2.5013C36.9999 1.67347 36.3772 1 35.6117 1H32.8095C32.044 1 31.4213 1.67347 31.4213 2.5013V3.44868H21.7883V2.5013C21.7883 1.67347 21.1665 1 20.402 1H17.5979C16.8335 1 16.2117 1.67347 16.2117 2.5013V3.44868H6.57663V2.5013C6.57663 1.67347 5.95484 1 5.19045 1H2.38618C1.62186 1 1 1.67347 1 2.5013V5.5384C1 6.36622 1.62186 7.0397 2.38618 7.0397H3.26096V17.4746H2.38618C1.62186 17.4746 1 18.1481 1 18.9759V22.013C1 22.8409 1.62186 23.5143 2.38618 23.5143H3.26096V33.9471H2.38618C1.62186 33.9471 1 34.6216 1 35.4506V38.4854C1 39.3144 1.62186 39.9889 2.38618 39.9889H5.19045C5.95484 39.9889 6.5767 39.3144 6.5767 38.4854V37.5402H16.2117V38.4854C16.2117 39.3144 16.8335 39.9889 17.5979 39.9889H20.4021C21.1665 39.9889 21.7884 39.3144 21.7884 38.4854V37.5402H31.4213V38.4854C31.4213 39.3144 32.044 39.9889 32.8096 39.9889H35.6118C36.3773 39.9889 37 39.3144 37 38.4854V35.4506C37 34.6216 36.3773 33.9471 35.6118 33.9471H34.739V23.5142H35.6118C36.3773 23.5142 37 22.8408 37 22.0129V18.9759C37 18.148 36.3773 17.4746 35.6118 17.4746H34.739V14.2277C34.739 13.9123 34.503 13.6566 34.2117 13.6566C33.9204 13.6566 33.6843 13.9123 33.6843 14.2277V17.4746H32.8096C32.0441 17.4746 31.4214 18.148 31.4214 18.9759V22.0129C31.4214 22.8408 32.0441 23.5142 32.8096 23.5142H33.6843V33.947H32.8096C32.8013 33.947 32.7932 33.9483 32.7849 33.9484C31.8109 27.2947 29.7912 21.6644 26.7757 17.1959C26.8877 17.0039 26.9535 16.7772 26.9535 16.5336V14.3467C26.9535 13.662 26.4392 13.105 25.807 13.105H23.7877C23.6771 13.105 23.5705 13.123 23.4693 13.1547C19.0804 8.72993 13.4017 6.09536 6.57663 5.31825V4.59094H16.2116V5.53832C16.2116 6.36615 16.8334 7.03962 17.5978 7.03962H20.402C21.1664 7.03962 21.7883 6.36615 21.7883 5.53832V4.59094H31.4213V5.53832C31.4213 6.36615 32.044 7.03962 32.8095 7.03962H33.6842V11.5281C33.6843 11.8436 33.9203 12.0993 34.2116 12.0993ZM32.476 22.0129V18.9759C32.476 18.7779 32.6256 18.6168 32.8095 18.6168H35.6117C35.7956 18.6168 35.9452 18.7779 35.9452 18.9759V22.0129C35.9452 22.2076 35.7925 22.372 35.6117 22.372H32.8095C32.6287 22.372 32.476 22.2076 32.476 22.0129ZM2.05471 5.5384V2.5013C2.05471 2.30666 2.20652 2.14225 2.38618 2.14225H5.19045C5.37017 2.14225 5.52198 2.30666 5.52198 2.5013V5.5384C5.52198 5.73639 5.37327 5.89744 5.19045 5.89744H2.38618C2.20652 5.89737 2.05471 5.73296 2.05471 5.5384ZM2.05471 22.0129V18.9759C2.05471 18.7812 2.20652 18.6168 2.38618 18.6168H5.19045C5.37327 18.6168 5.52198 18.7779 5.52198 18.9759V22.0129C5.52198 22.2076 5.37017 22.372 5.19045 22.372H2.38618C2.20652 22.372 2.05471 22.2076 2.05471 22.0129ZM5.52191 38.4854C5.52191 38.6846 5.3732 38.8466 5.19038 38.8466H2.38618C2.20652 38.8466 2.05471 38.6812 2.05471 38.4854V35.4506C2.05471 35.2548 2.20652 35.0894 2.38618 35.0894H5.19045C5.37327 35.0894 5.52198 35.2514 5.52198 35.4506L5.52191 38.4854ZM5.19045 33.947H4.31574V31.8059L6.386 29.5568L10.908 34.4413L9.10604 36.3979H6.57663V35.4505C6.57663 34.6215 5.95484 33.947 5.19045 33.947ZM13.0008 32.9754C13.0503 33.0291 13.0511 33.1187 13.0022 33.1717L12.2042 34.038C12.1734 34.0717 12.1358 34.0768 12.1162 34.0768C12.0966 34.0768 12.0591 34.0718 12.0262 34.0359L6.75776 28.3451C6.70748 28.2908 6.70727 28.2021 6.7567 28.1481L7.54921 27.2855C7.5746 27.2582 7.60842 27.2443 7.64203 27.2443C7.67486 27.2443 7.70756 27.2576 7.73217 27.2844L13.0008 32.9754ZM20.7336 38.4854C20.7336 38.6812 20.5818 38.8466 20.402 38.8466H17.5979C17.4151 38.8466 17.2664 38.6846 17.2664 38.4854V35.4506C17.2664 35.2514 17.4151 35.0894 17.5979 35.0894H20.4021C20.5818 35.0894 20.7336 35.2548 20.7336 35.4506V38.4854H20.7336ZM21.7883 36.3979V35.4506C21.7883 34.6216 21.1664 33.9471 20.402 33.9471H17.5979C16.8335 33.9471 16.2117 34.6216 16.2117 35.4506V36.3979H10.5957L11.7423 35.153C11.8612 35.1958 11.9868 35.2191 12.1161 35.2191C12.4333 35.2191 12.7304 35.0854 12.9519 34.8436L13.7484 33.9789C14.209 33.4801 14.208 32.6675 13.7464 32.1675C13.7462 32.1673 13.7461 32.1671 13.7459 32.167L13.4468 31.8439L19.1187 28.9521C19.2727 28.8736 19.3823 28.7193 19.4129 28.538L20.9718 19.2837C21.0377 18.8908 20.7161 18.5394 20.352 18.6146L11.8154 20.3288C11.6481 20.3624 11.5061 20.4813 11.4339 20.6482L10.4912 22.8287C10.3676 23.1143 10.4813 23.4543 10.7451 23.5881C11.0088 23.722 11.3229 23.5988 11.4463 23.3131L12.2741 21.3985L18.8854 20.071L16.4646 22.702C16.1825 22.5318 15.8637 22.4409 15.5317 22.4409C15.5308 22.4409 15.5299 22.4409 15.529 22.4409C15.0153 22.4417 14.5323 22.6588 14.1684 23.0529C13.4205 23.8659 13.4217 25.1876 14.1725 26.0007C14.5477 26.4041 15.0393 26.6056 15.5304 26.6056C16.0243 26.6056 16.5177 26.4019 16.8922 25.9949C17.5124 25.3232 17.6179 24.3023 17.2104 23.5097L19.631 20.8788L18.424 28.044L12.6528 30.9864L9.57138 27.658L10.4317 25.6665C10.5551 25.3808 10.4413 25.0408 10.1775 24.9071C9.91374 24.7736 9.59979 24.8967 9.47639 25.1824L8.77739 26.8004L8.47884 26.4779C8.0206 25.9777 7.27021 25.9762 6.80388 26.4774L6.00849 27.3432C5.68377 27.6976 5.59117 28.2084 5.72814 28.6535L4.31553 30.1881V23.5144H5.19024C5.95463 23.5144 6.57649 22.8409 6.57649 22.0131V18.976C6.57649 18.1482 5.95463 17.4747 5.19024 17.4747H4.31553V7.03962H5.19024C5.64363 7.03962 6.04568 6.80158 6.29874 6.43598C12.9412 7.16009 18.4569 9.68409 22.7041 13.9437C22.6638 14.0703 22.6408 14.2055 22.6408 14.3467V16.5336C22.6408 17.2195 23.1551 17.7775 23.7874 17.7775H25.8067C25.8242 17.7775 25.8413 17.7755 25.8586 17.7747C28.8568 22.1786 30.85 27.781 31.7866 34.4373C31.5604 34.7049 31.4211 35.0599 31.4211 35.4505V36.3979H21.7883V36.3979ZM16.1444 23.8575C16.4833 24.2246 16.4843 24.8211 16.1458 25.1877C15.8079 25.5548 15.256 25.5558 14.9169 25.1913C14.578 24.8243 14.5773 24.2266 14.9149 23.8597C15.0793 23.6815 15.2979 23.5833 15.5304 23.5829H15.5317C15.7633 23.5829 15.9808 23.6804 16.1444 23.8575ZM35.9452 35.4505V38.4854C35.9452 38.6812 35.7925 38.8465 35.6117 38.8465H32.8095C32.6287 38.8465 32.476 38.6812 32.476 38.4854V35.4505C32.476 35.3286 32.5353 35.2185 32.6236 35.1527C32.625 35.1518 32.6264 35.1509 32.6278 35.15C32.6805 35.1119 32.743 35.0892 32.8096 35.0892H35.6118C35.7925 35.0893 35.9452 35.2547 35.9452 35.4505ZM25.8986 14.3468V16.5337C25.8986 16.572 25.8781 16.6058 25.8489 16.623C25.8464 16.6243 25.844 16.626 25.8415 16.6274C25.8307 16.6324 25.819 16.6353 25.8068 16.6353H23.7875C23.7377 16.6353 23.6957 16.5888 23.6957 16.5337V14.3468C23.6957 14.2938 23.7386 14.2473 23.7875 14.2473H25.8068C25.8557 14.2473 25.8986 14.2938 25.8986 14.3468ZM20.7336 5.5384C20.7336 5.73304 20.5818 5.89744 20.402 5.89744H17.5979C17.4151 5.89744 17.2664 5.73639 17.2664 5.5384V2.5013C17.2664 2.30666 17.4182 2.14225 17.5979 2.14225H20.4021C20.5818 2.14225 20.7336 2.30666 20.7336 2.5013V5.5384H20.7336ZM32.476 5.5384V2.5013C32.476 2.30666 32.6287 2.14225 32.8095 2.14225H35.6117C35.7925 2.14225 35.9452 2.30666 35.9452 2.5013V5.5384C35.9452 5.73639 35.7956 5.89744 35.6117 5.89744H32.8095C32.6256 5.89737 32.476 5.73631 32.476 5.5384Z" fill="black" stroke="black" stroke-width="0.5"/>
</svg>
