<svg width="46" height="606" viewBox="0 0 46 606" fill="none" xmlns="http://www.w3.org/2000/svg">
<line x1="23.5" y1="7" x2="23.5" y2="518" stroke="#D7C51D"/>
<line x1="23.5" y1="7" x2="23.5" y2="254" stroke="black"/>
<circle cx="23.5" cy="254.5" r="3.5" fill="black"/>
<circle cx="23.5" cy="3.5" r="3.5" fill="black"/>
<circle cx="23.5" cy="521.5" r="3" stroke="#D7C51D"/>
<g clip-path="url(#clip0_80_642)">
<path d="M24.8181 255.999H22.1818C21.8178 255.999 21.5228 255.704 21.5228 255.34V254.681H14.8133C14.4493 255.711 13.3196 256.25 12.2901 255.886C11.2607 255.522 10.7211 254.393 11.085 253.363C11.449 252.334 12.5787 251.794 13.6082 252.158C14.1713 252.357 14.6141 252.8 14.8133 253.363H17.41C13.1986 250.727 12.2957 244.967 12.2957 244.888C12.2417 244.528 12.4898 244.192 12.8496 244.138C12.8537 244.137 12.8581 244.137 12.8625 244.136H12.9547C13.2855 244.133 13.5674 244.375 13.6137 244.703C13.6137 244.795 14.8463 252.836 21.5228 253.363V252.704C21.5228 252.34 21.8178 252.045 22.1818 252.045H24.8181C25.1821 252.045 25.4772 252.34 25.4772 252.704V253.363C31.5737 252.816 33.3862 244.795 33.3862 244.69C33.4385 244.368 33.7188 244.132 34.0452 244.136H34.1835C34.5413 244.203 34.7771 244.547 34.7102 244.905C34.7084 244.915 34.7065 244.924 34.7042 244.933C34.7042 245.006 33.3862 250.727 29.3131 253.363H32.1866C32.5506 252.334 33.6803 251.794 34.7098 252.158C35.7392 252.522 36.2789 253.652 35.9149 254.681C35.5509 255.711 34.4212 256.25 33.3917 255.886C32.8286 255.687 32.3858 255.244 32.1866 254.681H25.4772V255.34C25.4772 255.704 25.1821 255.999 24.8181 255.999Z" fill="black"/>
<path d="M23.5001 237.545C23.8641 237.545 24.1591 237.84 24.1591 238.204C24.1591 238.568 23.8641 238.863 23.5001 238.863C23.1361 238.863 22.8411 238.568 22.8411 238.204C22.8411 237.84 23.1361 237.545 23.5001 237.545Z" fill="black"/>
<path d="M17.7595 237.737C19.0146 236.406 19.8511 234.735 20.1651 232.932H26.8349C27.1488 234.735 27.9854 236.406 29.2405 237.737C29.4302 237.928 29.4851 238.215 29.3788 238.462L24.1591 250.859V240.064C25.1886 239.7 25.7282 238.57 25.3642 237.541C25.0003 236.511 23.8705 235.971 22.8411 236.335C21.8116 236.699 21.272 237.829 21.636 238.859C21.8351 239.422 22.2779 239.865 22.8411 240.064V250.859L17.6212 238.462C17.5149 238.215 17.5698 237.928 17.7595 237.737Z" fill="black"/>
<path d="M18.8865 227.659C18.8865 227.295 19.1815 227 19.5455 227H27.4545C27.8185 227 28.1136 227.295 28.1136 227.659V231.613H18.8865V227.659Z" fill="black"/>
</g>
<rect x="16.5" y="560.5" width="14" height="21" rx="7" stroke="black"/>
<path d="M3.732 602.144C3.208 602.144 2.732 602.052 2.304 601.868C1.876 601.684 1.508 601.424 1.2 601.088C0.896 600.748 0.668 600.348 0.516 599.888L1.926 599.366C2.106 599.75 2.356 600.066 2.676 600.314C3 600.558 3.364 600.68 3.768 600.68C4.196 600.68 4.536 600.59 4.788 600.41C5.044 600.23 5.172 599.968 5.172 599.624C5.172 599.388 5.096 599.192 4.944 599.036C4.796 598.876 4.594 598.74 4.338 598.628C4.086 598.512 3.8 598.4 3.48 598.292C3.172 598.188 2.862 598.072 2.55 597.944C2.238 597.816 1.952 597.66 1.692 597.476C1.432 597.288 1.222 597.052 1.062 596.768C0.906 596.484 0.828 596.136 0.828 595.724C0.828 595.312 0.938 594.934 1.158 594.59C1.378 594.246 1.696 593.972 2.112 593.768C2.532 593.56 3.04 593.456 3.636 593.456C4.124 593.456 4.556 593.54 4.932 593.708C5.312 593.872 5.626 594.096 5.874 594.38C6.122 594.664 6.294 594.986 6.39 595.346L4.998 595.808C4.886 595.556 4.714 595.346 4.482 595.178C4.254 595.006 3.944 594.92 3.552 594.92C3.184 594.92 2.898 594.992 2.694 595.136C2.49 595.28 2.388 595.484 2.388 595.748C2.388 595.928 2.456 596.082 2.592 596.21C2.732 596.334 2.918 596.446 3.15 596.546C3.386 596.646 3.652 596.748 3.948 596.852C4.28 596.964 4.61 597.092 4.938 597.236C5.27 597.376 5.57 597.548 5.838 597.752C6.11 597.956 6.328 598.21 6.492 598.514C6.656 598.814 6.738 599.182 6.738 599.618C6.738 600.154 6.604 600.61 6.336 600.986C6.072 601.362 5.714 601.65 5.262 601.85C4.81 602.046 4.3 602.144 3.732 602.144ZM11.5534 602.132C10.9014 602.132 10.3494 602.006 9.89738 601.754C9.44938 601.502 9.08738 601.168 8.81138 600.752C8.53938 600.332 8.34138 599.866 8.21738 599.354C8.09338 598.842 8.03138 598.324 8.03138 597.8C8.03138 597.304 8.09338 596.802 8.21738 596.294C8.34538 595.782 8.54738 595.312 8.82338 594.884C9.10338 594.452 9.46738 594.106 9.91538 593.846C10.3634 593.586 10.9094 593.456 11.5534 593.456C12.0854 593.456 12.5474 593.546 12.9394 593.726C13.3314 593.902 13.6554 594.132 13.9114 594.416C14.1714 594.696 14.3694 594.99 14.5054 595.298L13.1134 595.946C12.9774 595.738 12.8374 595.56 12.6934 595.412C12.5494 595.26 12.3854 595.144 12.2014 595.064C12.0214 594.98 11.8054 594.938 11.5534 594.938C11.1934 594.938 10.8914 595.026 10.6474 595.202C10.4034 595.374 10.2074 595.602 10.0594 595.886C9.91138 596.17 9.80538 596.48 9.74138 596.816C9.67738 597.152 9.64538 597.48 9.64538 597.8C9.64538 598.14 9.68138 598.478 9.75338 598.814C9.82538 599.15 9.93938 599.456 10.0954 599.732C10.2514 600.008 10.4494 600.23 10.6894 600.398C10.9294 600.562 11.2174 600.644 11.5534 600.644C11.9134 600.644 12.2154 600.544 12.4594 600.344C12.7074 600.14 12.9274 599.88 13.1194 599.564L14.5414 600.098C14.3614 600.486 14.1354 600.834 13.8634 601.142C13.5914 601.45 13.2654 601.692 12.8854 601.868C12.5054 602.044 12.0614 602.132 11.5534 602.132ZM15.914 602V593.6H19.736C20.436 593.6 20.988 593.722 21.392 593.966C21.8 594.206 22.09 594.524 22.262 594.92C22.438 595.316 22.526 595.742 22.526 596.198C22.526 596.514 22.464 596.834 22.34 597.158C22.22 597.482 22.036 597.774 21.788 598.034C21.54 598.294 21.228 598.486 20.852 598.61L22.508 602H20.762L19.172 598.82H17.468V602H15.914ZM17.468 597.356H19.76C20.052 597.356 20.282 597.302 20.45 597.194C20.622 597.082 20.744 596.938 20.816 596.762C20.888 596.586 20.924 596.4 20.924 596.204C20.924 596.028 20.89 595.852 20.822 595.676C20.754 595.5 20.636 595.354 20.468 595.238C20.3 595.122 20.064 595.064 19.76 595.064H17.468V597.356ZM27.5294 602.144C26.8574 602.144 26.2874 602.018 25.8194 601.766C25.3514 601.51 24.9734 601.172 24.6854 600.752C24.4014 600.328 24.1934 599.86 24.0614 599.348C23.9294 598.836 23.8634 598.32 23.8634 597.8C23.8634 597.28 23.9294 596.764 24.0614 596.252C24.1934 595.74 24.4014 595.274 24.6854 594.854C24.9734 594.43 25.3514 594.092 25.8194 593.84C26.2874 593.584 26.8574 593.456 27.5294 593.456C28.2014 593.456 28.7694 593.584 29.2334 593.84C29.7014 594.092 30.0774 594.43 30.3614 594.854C30.6494 595.274 30.8574 595.74 30.9854 596.252C31.1174 596.764 31.1834 597.28 31.1834 597.8C31.1834 598.32 31.1174 598.836 30.9854 599.348C30.8574 599.86 30.6494 600.328 30.3614 600.752C30.0774 601.172 29.7014 601.51 29.2334 601.766C28.7694 602.018 28.2014 602.144 27.5294 602.144ZM27.5294 600.65C27.9054 600.65 28.2234 600.562 28.4834 600.386C28.7474 600.21 28.9594 599.98 29.1194 599.696C29.2794 599.412 29.3954 599.104 29.4674 598.772C29.5394 598.436 29.5754 598.112 29.5754 597.8C29.5754 597.464 29.5394 597.128 29.4674 596.792C29.3994 596.452 29.2854 596.144 29.1254 595.868C28.9694 595.588 28.7594 595.364 28.4954 595.196C28.2354 595.024 27.9134 594.938 27.5294 594.938C27.1414 594.938 26.8154 595.026 26.5514 595.202C26.2914 595.378 26.0814 595.61 25.9214 595.898C25.7654 596.182 25.6514 596.492 25.5794 596.828C25.5114 597.16 25.4774 597.484 25.4774 597.8C25.4774 598.132 25.5114 598.466 25.5794 598.802C25.6514 599.138 25.7674 599.446 25.9274 599.726C26.0914 600.006 26.3034 600.23 26.5634 600.398C26.8274 600.566 27.1494 600.65 27.5294 600.65ZM32.8007 602V593.6H34.3547V600.494H38.4167V602H32.8007ZM39.5976 602V593.6H41.1516V600.494H45.2136V602H39.5976Z" fill="black"/>
<line x1="23.5" y1="566.773" x2="23.5" y2="571.773" stroke="black" stroke-linecap="round"/>
<defs>
<clipPath id="clip0_80_642">
<rect width="29" height="29" fill="white" transform="matrix(1 0 0 -1 9 256)"/>
</clipPath>
</defs>
</svg>
